<svg width="56" height="56" viewBox="0 0 56 56" fill="none" xmlns="http://www.w3.org/2000/svg">
<g clip-path="url(#clip0)">
<path d="M28.0001 12.7273C31.5088 12.7273 34.3637 9.87239 34.3637 6.36372C34.3637 2.85505 31.5088 0 28.0001 0C24.4915 0 21.6365 2.85493 21.6365 6.3636C21.6365 9.87227 24.4913 12.7273 28.0001 12.7273ZM28.0001 2.54542C30.1056 2.54542 31.8183 4.25811 31.8183 6.3636C31.8183 8.46909 30.1056 10.1818 28.0001 10.1818C25.8946 10.1818 24.1819 8.46909 24.1819 6.3636C24.1819 4.25811 25.8946 2.54542 28.0001 2.54542Z" fill="#00AAFF"/>
<path d="M19.2724 25.4546H36.7277C38.2316 25.4546 39.4546 24.1345 39.4546 22.5113V21.696C39.4546 19.5694 38.4018 17.6268 36.7053 16.6262C34.6732 15.428 31.5137 14 28 14C24.4864 14 21.3269 15.4281 19.2948 16.6262C17.5982 17.6267 16.5455 19.5694 16.5455 21.696V22.5113C16.5455 24.1347 17.7685 25.4546 19.2724 25.4546ZM19.0909 21.696C19.0909 20.4842 19.6788 19.3556 20.5874 18.8187C22.3461 17.782 25.0606 16.5454 28 16.5454C30.9394 16.5454 33.6539 17.7822 35.4127 18.8187C36.3213 19.3556 36.9092 20.4841 36.9092 21.696V22.5113C36.9092 22.7761 36.7588 22.909 36.7277 22.909H19.2724C19.2414 22.909 19.0909 22.776 19.0909 22.5113V21.696Z" fill="#00AAFF"/>
<path d="M11.4545 43.2729C14.9632 43.2729 17.8181 40.4179 17.8181 36.9093C17.8181 33.4006 14.9632 30.5455 11.4545 30.5455C7.94588 30.5455 5.09095 33.4005 5.09095 36.9091C5.09095 40.4178 7.94588 43.2729 11.4545 43.2729ZM11.4545 33.0909C13.56 33.0909 15.2727 34.8036 15.2727 36.9091C15.2727 39.0146 13.56 40.7273 11.4545 40.7273C9.34906 40.7273 7.63636 39.0146 7.63636 36.9091C7.63636 34.8036 9.34906 33.0909 11.4545 33.0909Z" fill="#00AAFF"/>
<path d="M20.1598 47.1717C18.1277 45.9735 14.9682 44.5455 11.4546 44.5455C7.94087 44.5455 4.78144 45.9736 2.74933 47.1717C1.05275 48.1722 0 50.1148 0 52.2414V53.0567C0 54.6799 1.22301 56 2.7269 56H20.1822C21.6861 56 22.9091 54.6799 22.9091 53.0567V52.2414C22.9091 50.1148 21.8564 48.1722 20.1598 47.1717ZM20.3637 53.0569C20.3637 53.3216 20.2134 53.4545 20.1822 53.4545H2.7269C2.69588 53.4545 2.54542 53.3215 2.54542 53.0569V52.2416C2.54542 51.0298 3.1333 49.9011 4.04191 49.3642C5.80066 48.3276 8.51515 47.0909 11.4546 47.0909C14.394 47.0909 17.1084 48.3277 18.8672 49.3642C19.7758 49.9011 20.3637 51.0296 20.3637 52.2416V53.0569Z" fill="#00AAFF"/>
<path d="M44.5454 43.2729C48.0541 43.2729 50.909 40.4179 50.909 36.9093C50.909 33.4006 48.0542 30.5455 44.5454 30.5455C41.0366 30.5455 38.1818 33.4005 38.1818 36.9091C38.1818 40.4178 41.0367 43.2729 44.5454 43.2729ZM44.5454 33.0909C46.6509 33.0909 48.3636 34.8036 48.3636 36.9091C48.3636 39.0146 46.6509 40.7273 44.5454 40.7273C42.4399 40.7273 40.7272 39.0146 40.7272 36.9091C40.7272 34.8036 42.4401 33.0909 44.5454 33.0909Z" fill="#00AAFF"/>
<path d="M53.2508 47.1717C51.2187 45.9735 48.0593 44.5455 44.5456 44.5455C41.0319 44.5455 37.8725 45.9737 35.8404 47.1717C34.1438 48.1722 33.091 50.115 33.091 52.2416V53.0569C33.091 54.6801 34.314 56.0001 35.8179 56.0001H53.2732C54.7771 56.0001 56.0001 54.6801 56.0001 53.0569V52.2416C56 50.1148 54.9473 48.1722 53.2508 47.1717ZM53.4546 53.0569C53.4546 53.3216 53.3043 53.4545 53.2731 53.4545H35.8178C35.7868 53.4545 35.6363 53.3215 35.6363 53.0569V52.2416C35.6363 51.0298 36.2242 49.9011 37.1328 49.3642C38.8916 48.3276 41.6061 47.0909 44.5455 47.0909C47.4849 47.0909 50.1994 48.3277 51.9581 49.3642C52.8667 49.9011 53.4546 51.0296 53.4546 52.2416V53.0569Z" fill="#00AAFF"/>
<path d="M34.3624 43.2729C34.7365 43.2729 35.1056 43.1088 35.358 42.7956C35.7967 42.2462 35.7072 41.4457 35.1591 41.0058L29.2728 36.2968V29.2729C29.2728 28.5694 28.7035 28.0001 28 28.0001C27.2965 28.0001 26.7272 28.5693 26.7272 29.2728V36.2976L20.8409 41.0057C20.2928 41.4457 20.2033 42.2461 20.642 42.7955C20.8944 43.1087 21.2634 43.2727 21.6376 43.2727C21.916 43.2727 22.197 43.1821 22.4318 42.9944L28 38.5399L33.5681 42.9944C33.803 43.1821 34.0839 43.2729 34.3624 43.2729Z" fill="#00AAFF"/>
</g>
<defs>
<clipPath id="clip0">
<rect width="56" height="56" fill="white"/>
</clipPath>
</defs>
</svg>
