<svg width="42" height="42" viewBox="0 0 42 42" fill="none" xmlns="http://www.w3.org/2000/svg">
<g clip-path="url(#clip0)">
<path d="M10.2026 24.9624H17.3347C18.3194 24.9624 19.1177 24.1639 19.1177 23.1793C19.1177 22.1946 18.3194 21.3963 17.3347 21.3963H10.2026C9.21785 21.3963 8.41953 22.1946 8.41953 23.1793C8.41953 24.1639 9.21785 24.9624 10.2026 24.9624Z" fill="#00AAFF"/>
<path d="M41.379 38.9561L37.7014 35.2786C38.6016 33.9072 39.1273 32.269 39.1273 30.5095C39.1273 26.3138 36.1475 22.8016 32.1932 21.9764V14.8585C32.1932 14.3856 32.0054 13.9321 31.671 13.5977L18.5955 0.522189C18.2612 0.187812 17.8076 0 17.3348 0H1.88187C0.897166 0 0.0988464 0.798201 0.0988464 1.78303V37.4435C0.0988464 38.4281 0.897166 39.2266 1.88187 39.2266H30.4103C32.1701 39.2266 33.8085 38.7007 35.1801 37.8004L38.8575 41.4777C39.2057 41.826 39.662 42.0001 40.1183 42.0001C40.5746 42.0001 41.0309 41.826 41.379 41.4777C42.0754 40.7814 42.0754 39.6525 41.379 38.9561ZM35.9211 30.5095C35.9211 33.3498 33.2506 35.9211 30.4103 35.9211C27.5699 35.9211 24.8685 33.1517 24.8685 30.3114C24.8685 27.4712 27.5699 24.8684 30.4103 24.8684C33.2505 24.8684 35.9211 27.6691 35.9211 30.5095ZM19.1178 6.08761L26.1057 13.0755H19.1178V6.08761ZM2.76324 2.76316H16.0264V14.3684C16.0264 15.3531 16.8247 16.1514 17.8094 16.1514H28.6273V21.9764C25.3153 22.6675 22.6894 25.2444 21.9231 28.5284H10.2027C9.21795 28.5284 8.41963 29.3266 8.41963 30.3114C8.41963 31.296 9.21795 32.0945 10.2027 32.0945H21.8402C22.083 33.4096 22.658 35.3684 23.7632 36.4737H2.76324V2.76316Z" fill="#00AAFF"/>
</g>
<defs>
<clipPath id="clip0">
<rect width="42" height="42" fill="white"/>
</clipPath>
</defs>
</svg>
