<svg width="37" height="37" viewBox="0 0 37 37" fill="none" xmlns="http://www.w3.org/2000/svg">
<circle cx="18.5" cy="18.5" r="17.5" fill="white" stroke="#D7D7D7" stroke-width="2"/>
<g clip-path="url(#clip0)">
<path d="M10.9557 17.5885L10.9292 17.5947H22.3048L18.7287 13.7999C18.5536 13.6146 18.4575 13.3636 18.4575 13.1002C18.4575 12.8368 18.5536 12.5876 18.7287 12.4019L19.2852 11.8124C19.4601 11.6271 19.6933 11.5247 19.9419 11.5247C20.1907 11.5247 20.424 11.6264 20.599 11.8117L26.7291 18.3018C26.9048 18.4878 27.0008 18.7355 27.0001 18.9991C27.0008 19.2641 26.9048 19.512 26.7291 19.6977L20.599 26.1884C20.424 26.3735 20.1909 26.4754 19.9419 26.4754C19.6933 26.4754 19.4601 26.3734 19.2852 26.1884L18.7287 25.5989C18.5536 25.414 18.4575 25.1669 18.4575 24.9035C18.4575 24.6403 18.5536 24.4063 18.7287 24.2211L22.3452 20.4051H10.943C10.4306 20.4051 10.0001 19.9376 10.0001 19.3954V18.5617C10.0001 18.0195 10.4434 17.5885 10.9557 17.5885Z" fill="#D7D7D7"/>
</g>
<defs>
<clipPath id="clip0">
<rect width="17" height="18" transform="matrix(-1 0 0 1 27 10)" fill="white"/>
</clipPath>
</defs>
</svg>
