<svg width="37" height="37" viewBox="0 0 37 37" fill="none" xmlns="http://www.w3.org/2000/svg">
<circle cx="18.5" cy="18.5" r="17.5" fill="white" stroke="#D7D7D7" stroke-width="2"/>
<g clip-path="url(#clip0)">
<path d="M26.0443 17.5885L26.0708 17.5947H14.6952L18.2713 13.7999C18.4464 13.6146 18.5425 13.3636 18.5425 13.1002C18.5425 12.8368 18.4464 12.5876 18.2713 12.4019L17.7148 11.8124C17.5399 11.6271 17.3067 11.5247 17.0581 11.5247C16.8093 11.5247 16.576 11.6264 16.401 11.8117L10.2709 18.3018C10.0952 18.4878 9.99919 18.7355 9.99988 18.9991C9.99919 19.2641 10.0952 19.512 10.2709 19.6977L16.401 26.1884C16.576 26.3735 16.8091 26.4754 17.0581 26.4754C17.3067 26.4754 17.5399 26.3734 17.7148 26.1884L18.2713 25.5989C18.4464 25.414 18.5425 25.1669 18.5425 24.9035C18.5425 24.6403 18.4464 24.4063 18.2713 24.2211L14.6548 20.4051H26.057C26.5694 20.4051 26.9999 19.9376 26.9999 19.3954V18.5617C26.9999 18.0195 26.5566 17.5885 26.0443 17.5885Z" fill="#D7D7D7"/>
</g>
<defs>
<clipPath id="clip0">
<rect x="10" y="10" width="17" height="18" fill="white"/>
</clipPath>
</defs>
</svg>
