<svg width="42" height="42" viewBox="0 0 42 42" fill="none" xmlns="http://www.w3.org/2000/svg">
<path d="M42 3.76367C42 2.6591 41.1046 1.76367 40 1.76367H2C0.895431 1.76367 0 2.6591 0 3.76367V33.3145C0 34.419 0.895431 35.3145 2 35.3145H13.4055C12.8976 36.7466 11.5299 37.7754 9.92578 37.7754H7.46484V40.2363H34.5352V37.7754H32.0742C30.4701 37.7754 29.1024 36.7466 28.5945 35.3145H40C41.1046 35.3145 42 34.419 42 33.3145V3.76367ZM37.5391 4.22461C38.6436 4.22461 39.5391 5.12004 39.5391 6.22461V27.9316H2.46094V6.22461C2.46094 5.12004 3.35637 4.22461 4.46094 4.22461H37.5391ZM27.1557 37.7754H14.8443C15.3828 37.0597 15.7691 36.2232 15.9543 35.3145H26.0457C26.2309 36.2232 26.6172 37.0597 27.1557 37.7754ZM4.46094 32.8535C3.35637 32.8535 2.46094 31.9581 2.46094 30.8535V30.3926H39.5391V30.8535C39.5391 31.9581 38.6436 32.8535 37.5391 32.8535H4.46094Z" fill="#00AAFF"/>
<path d="M12.3867 17.3086H9.92578V19.7695H12.3867V17.3086Z" fill="#00AAFF"/>
<path d="M12.3867 12.3867H9.92578V14.8477H12.3867V12.3867Z" fill="#00AAFF"/>
<path d="M12.3867 22.2305H9.92578V24.6914H12.3867V22.2305Z" fill="#00AAFF"/>
<path d="M32.0742 7.46484H24.6914V12.3867H19.7695V17.3086H14.8477V24.6914H32.0742V7.46484ZM17.3086 19.7695H19.7695V22.2305H17.3086V19.7695ZM22.2305 22.2305V14.8477H24.6914V22.2305H22.2305ZM29.6133 22.2305H27.1523V9.92578H29.6133V22.2305Z" fill="#00AAFF"/>
</svg>
