<svg width="61" height="45" viewBox="0 0 61 45" fill="none" xmlns="http://www.w3.org/2000/svg">
<path d="M24.957 29.9061C25.2733 30.1063 25.6014 30.2872 25.9393 30.4479L26.6086 30.7946H26.9864L29.0374 28.7467H23.2839C23.8344 29.1585 24.3849 29.5485 24.957 29.9061Z" fill="#00AAFF"/>
<path d="M60.0501 1.2244H59.9853V1.17023C59.8666 1.05104 59.7586 0.996858 59.6399 0.877667C59.5212 0.758476 59.5751 0.823489 59.5212 0.823489L59.057 0.595943C58.9922 0.595943 58.9922 0.541765 58.9383 0.541765C58.7687 0.476422 58.5905 0.436269 58.4093 0.422574H58.2906C58.1179 0.422574 57.8804 0.422574 57.6429 0.422574H19.7432C19.5101 0.396089 19.2747 0.396089 19.0416 0.422574C19.0097 0.418198 18.9772 0.421848 18.9471 0.433196C18.9169 0.444545 18.89 0.463235 18.8689 0.487587C18.6962 0.487587 18.5235 0.487587 18.4047 0.595943C18.286 0.704298 18.3507 0.660956 18.3507 0.660956L17.9405 0.823489L17.8758 0.888502C17.757 0.94268 17.6491 1.05104 17.5304 1.11605L17.2713 1.27858C16.8804 1.70352 16.6346 2.2425 16.5696 2.81723V7.7474L17.3037 8.48422C18.0583 9.19528 18.5589 10.1357 18.7286 11.1606V3.90078L32.2865 16.6325L20.3369 26.2762C20.8767 26.7854 21.4164 27.2622 21.9561 27.7173L33.8301 18.1712L38.0616 22.202C38.2087 22.3395 38.3863 22.4398 38.5797 22.4946H38.936C39.1364 22.4496 39.3199 22.3481 39.4649 22.202L43.502 18.4204L56.7362 28.7792H37.4031L39.4433 30.8271H57.794C57.9863 30.8365 58.179 30.8183 58.3661 30.7729H58.4849C58.6427 30.7463 58.7979 30.7064 58.9491 30.6537H59.0138C59.5475 30.4775 60.0107 30.1339 60.3352 29.6735C60.6598 29.2132 60.8285 28.6604 60.8165 28.0965V3.1748C60.8274 2.44863 60.5519 1.74757 60.0501 1.2244ZM38.8604 19.9265L34.6829 15.9499L20.3261 2.47049H57.1464L38.8604 19.9265ZM58.7224 27.6089L45.1212 16.8601L58.7116 3.85744L58.7224 27.6089Z" fill="#00AAFF"/>
<path d="M16.602 15.6899V22.1912L16.8611 22.5271C17.4871 23.2964 18.1132 24.0224 18.7609 24.6942V12.255C18.5867 13.2846 18.0871 14.2305 17.336 14.9531C17.0877 15.1698 16.8395 15.4407 16.602 15.6899Z" fill="#00AAFF"/>
<path d="M9.02426 30.3395C13.2044 35.3536 18.4002 39.4167 24.2662 42.2586C26.9233 43.6378 29.8171 44.4981 32.7939 44.7941H33.3984C34.4236 44.8264 35.4435 44.6337 36.3869 44.2295C37.3303 43.8253 38.1744 43.2192 38.8604 42.4537C39.4023 41.8223 39.9789 41.2217 40.5875 40.6549C41.0085 40.254 41.4295 39.8315 41.8505 39.398C42.3099 38.9913 42.6779 38.4911 42.9299 37.9306C43.182 37.3702 43.3123 36.7623 43.3123 36.1474C43.3123 35.5324 43.182 34.9246 42.9299 34.3641C42.6779 33.8036 42.3099 33.3034 41.8505 32.8967L36.4532 27.4789C36.0644 27.034 35.589 26.6737 35.0561 26.4202C34.5233 26.1668 33.9444 26.0256 33.3552 26.0053C32.7615 26.0325 32.1791 26.1777 31.6417 26.4325C31.1044 26.6873 30.6227 27.0467 30.2248 27.4898L26.9864 30.7404C26.6949 30.5671 26.3927 30.4154 26.1012 30.2745C25.7642 30.1119 25.4363 29.9311 25.1189 29.7327C22.0354 27.7267 19.3004 25.2267 17.023 22.3321C15.9247 21.0135 15.003 19.5564 14.2812 17.9978C15.1232 17.2285 15.9112 16.4375 16.6776 15.6465L17.498 14.8122C17.9478 14.3966 18.3104 13.8949 18.5643 13.3367C18.8183 12.7785 18.9585 12.1749 18.9768 11.5615C18.961 10.9477 18.8218 10.3433 18.5677 9.78478C18.3136 9.22621 17.9498 8.72489 17.498 8.31086L14.8101 5.60197L13.8926 4.65928C13.3097 4.05249 12.6836 3.42403 12.0791 2.86058C11.6715 2.43128 11.1829 2.08759 10.6418 1.84949C10.1007 1.61139 9.51785 1.48363 8.92711 1.47363C7.7241 1.50231 6.58048 2.0043 5.74272 2.87142L2.39641 6.23044C1.20199 7.40172 0.472982 8.96927 0.345445 10.6405C0.228592 13.0986 0.656248 15.5522 1.59761 17.8245C3.32177 22.4016 5.83574 26.638 9.02426 30.3395ZM2.53674 10.8355C2.62481 9.67895 3.12714 8.59349 3.95082 7.77992L7.28634 4.44257C7.71127 3.97962 8.30071 3.70324 8.92711 3.67325C9.23387 3.68716 9.53461 3.76348 9.81109 3.89759C10.0876 4.0317 10.334 4.2208 10.5355 4.45341C11.14 5.01685 11.7013 5.60197 12.3166 6.2196L13.2449 7.17313L15.9112 9.84951C16.1553 10.0596 16.3554 10.3162 16.5 10.6045C16.6445 10.8928 16.7306 11.2071 16.7532 11.529C16.7028 12.178 16.4005 12.7812 15.9112 13.2085C15.6305 13.4794 15.3499 13.772 15.08 14.0537C14.2488 14.888 13.4608 15.6899 12.6081 16.4592C12.3358 16.7032 12.1459 17.0263 12.0647 17.3835C11.9834 17.7407 12.0149 18.1145 12.1547 18.4529V18.5179C12.9489 20.3734 14.007 22.1034 15.2959 23.654C17.7235 26.7384 20.6412 29.3999 23.9315 31.5314C24.3083 31.7751 24.7015 31.9924 25.1081 32.1816C25.4451 32.3441 25.7731 32.525 26.0904 32.7233L26.1876 32.7775C26.4569 32.922 26.7566 33 27.062 33.0051C27.3131 32.9959 27.5598 32.9366 27.7878 32.8305C28.0158 32.7245 28.2204 32.5738 28.3897 32.3874L31.736 29.0284C32.1554 28.5534 32.7456 28.265 33.3768 28.2266C33.6814 28.2461 33.979 28.3272 34.2517 28.465C34.5243 28.6027 34.7665 28.7944 34.9636 29.0284L40.3608 34.4462C40.6149 34.6491 40.8202 34.907 40.9612 35.2006C41.1022 35.4942 41.1755 35.816 41.1755 36.1419C41.1755 36.4679 41.1022 36.7897 40.9612 37.0833C40.8202 37.3769 40.6149 37.6348 40.3608 37.8377C39.983 38.2386 39.5944 38.6287 39.1734 39.0296C38.5133 39.6423 37.8897 40.2936 37.306 40.98C36.827 41.5246 36.2343 41.9565 35.5701 42.2449C34.9059 42.5334 34.1865 42.6712 33.4631 42.6487H32.999C30.3041 42.3687 27.6858 41.5821 25.2809 40.3299C19.6683 37.6136 14.7051 33.7145 10.7298 28.8984C7.71268 25.4038 5.3206 21.4117 3.65937 17.0985C2.82598 15.1206 2.44246 12.981 2.53674 10.8355Z" fill="#00AAFF"/>
</svg>
