<svg width="42" height="42" viewBox="0 0 42 42" fill="none" xmlns="http://www.w3.org/2000/svg">
<path d="M27.3332 2.80654L27.1359 0L0.783081 1.85317L3.27002 37.2183L6.8803 36.9644V42H33.2981V39.1063L37.4214 39.5503L41.217 4.30164L27.3332 2.80654ZM6.8803 34.4957L5.55385 34.589L3.41243 4.137L24.852 2.62927L25.1276 6.54749H6.8803V34.4957ZM30.8356 39.5373H9.34296V9.01015H30.8356V39.5373ZM35.2367 36.838L33.2982 36.6292V6.54749H27.5964L27.5088 5.30225L38.505 6.48629L35.2367 36.838Z" fill="#00AAFF"/>
<path d="M28.1202 24.3423H12.0588V26.8049H28.1202V24.3423Z" fill="#00AAFF"/>
<path d="M28.1202 28.7227H12.0588V31.1853H28.1202V28.7227Z" fill="#00AAFF"/>
<path d="M28.1202 33.103H12.0588V35.5657H28.1202V33.103Z" fill="#00AAFF"/>
<path d="M16.5198 18.8093C15.4338 18.8093 14.7025 18.0558 14.7025 16.8701C14.7025 15.6844 15.4338 14.9309 16.5198 14.9309C17.2179 14.9309 17.7609 15.2633 18.2152 15.8396L19.8663 14.3658C19.1017 13.3686 17.9049 12.8145 16.3867 12.8145C13.8935 12.8145 12.065 14.4877 12.065 16.8702C12.065 19.2528 13.8934 20.926 16.3867 20.9259C17.905 20.9259 19.1017 20.3718 19.8663 19.3745L18.2152 17.9007C17.7609 18.4768 17.2179 18.8093 16.5198 18.8093Z" fill="#00AAFF"/>
<path d="M26.3382 12.9917L24.4433 17.524L22.5926 12.9917H19.7779L23.058 20.7487H25.629L28.909 12.9917H26.3382Z" fill="#00AAFF"/>
</svg>
