<svg width="971" height="334" viewBox="0 0 971 334" fill="none" xmlns="http://www.w3.org/2000/svg">
<path d="M1 227.5V321C1 321.552 1.44772 322 2 322H331C331.552 322 332 321.552 332 321V291" stroke="#B1DFFF" stroke-width="2" stroke-dasharray="7 7"/>
<path d="M638 229V326C638 326.552 638.448 327 639 327H969C969.552 327 970 326.552 970 326V296" stroke="#B1DFFF" stroke-width="2" stroke-dasharray="7 7"/>
<path d="M316 105V8C316 7.44771 316.448 7 317 7H647C647.552 7 648 7.44772 648 8V38" stroke="#B1DFFF" stroke-width="2" stroke-dasharray="7 7"/>
<path d="M169.615 321.385L163.49 315.26C163.317 315.087 163.112 315 162.875 315C162.638 315 162.433 315.087 162.26 315.26C162.087 315.433 162 315.638 162 315.875V328.125C162 328.362 162.087 328.567 162.26 328.74C162.433 328.913 162.638 329 162.875 329C163.112 329 163.317 328.913 163.49 328.74L169.615 322.615C169.788 322.442 169.875 322.237 169.875 322C169.875 321.763 169.788 321.558 169.615 321.385Z" fill="#B1DFFF"/>
<path d="M485.615 6.38473L479.49 0.259735C479.317 0.0865306 479.112 0 478.875 0C478.638 0 478.433 0.0865306 478.26 0.259735C478.087 0.43294 478 0.637942 478 0.874931V13.1249C478 13.3618 478.087 13.567 478.26 13.7401C478.433 13.9133 478.638 14 478.875 14C479.112 14 479.317 13.9133 479.49 13.7401L485.615 7.61508C485.788 7.44206 485.875 7.23692 485.875 6.99988C485.875 6.76294 485.788 6.55794 485.615 6.38473Z" fill="#B1DFFF"/>
<path d="M807.615 326.385L801.49 320.26C801.317 320.087 801.112 320 800.875 320C800.638 320 800.433 320.087 800.26 320.26C800.087 320.433 800 320.638 800 320.875V333.125C800 333.362 800.087 333.567 800.26 333.74C800.433 333.913 800.638 334 800.875 334C801.112 334 801.317 333.913 801.49 333.74L807.615 327.615C807.788 327.442 807.875 327.237 807.875 327C807.875 326.763 807.788 326.558 807.615 326.385Z" fill="#B1DFFF"/>
</svg>
