<svg width="42" height="42" viewBox="0 0 42 42" fill="none" xmlns="http://www.w3.org/2000/svg">
<path d="M38.9491 7.88731H24.2068V7.04542C24.2068 5.36698 22.8382 4.0014 21.1559 4.0014H13.954C12.2717 4.0014 10.9031 5.3669 10.9031 7.04542V7.61455H8.51796C6.83566 7.61455 5.46705 8.98005 5.46705 10.6585V11.2487H3.05091C1.36869 11.2488 0 12.6144 0 14.2928V35.8184C0 37.0205 0.979617 37.9985 2.18384 37.9985H28.9131C30.1173 37.9985 31.097 37.0205 31.097 35.8184V34.3643H34.3802C35.5843 34.3643 36.564 33.3863 36.564 32.1841V30.7511H39.8162C41.0204 30.7511 42 29.7732 42 28.571V10.9313C42 9.25288 40.6314 7.88731 38.9491 7.88731ZM13.364 7.04542C13.364 6.72394 13.6287 6.46234 13.954 6.46234H21.1559C21.4812 6.46234 21.7458 6.72386 21.7458 7.04542V9.11778C21.7458 9.79732 22.2968 10.3482 22.9763 10.3482H38.9491C39.2744 10.3482 39.5391 10.6098 39.5391 10.9312V11.5046L18.7707 11.5005V10.6586C18.7707 8.98013 17.4021 7.61463 15.7198 7.61463H13.364V7.04542ZM7.92799 10.6586C7.92799 10.3371 8.19271 10.0756 8.51796 10.0756H15.7198C16.0451 10.0756 16.3098 10.3371 16.3098 10.6586V12.7309C16.3098 13.4105 16.8607 13.9614 17.5403 13.9614L33.5806 13.9655C33.8742 13.9988 34.103 14.2455 34.103 14.5444V15.1346H13.3037V14.2927C13.3037 12.6143 11.9351 11.2487 10.2528 11.2487H7.92799V10.6586ZM3.05091 13.7097H10.2528C10.5781 13.7097 10.8427 13.9712 10.8427 14.2928V16.3652C10.8427 17.0447 11.3936 17.5956 12.0732 17.5956H28.046C28.3713 17.5956 28.636 17.8571 28.636 18.1787V18.752H2.46094V14.2929C2.46094 13.9713 2.72565 13.7097 3.05091 13.7097ZM2.46094 35.5377V21.213H28.636V35.5377H2.46094ZM31.0969 31.9034V18.1787C31.0969 17.9734 31.0761 17.7728 31.0371 17.5787H34.103V31.9034H31.0969V31.9034ZM36.564 28.2903V14.5445C36.564 14.3465 36.5443 14.1531 36.5079 13.9656H39.5391V28.2903H36.564Z" fill="#00AAFF"/>
</svg>
