<svg width="490" height="87" viewBox="0 0 490 87" fill="none" xmlns="http://www.w3.org/2000/svg">
<path d="M9.94577 30.7994H5.52712C5.22772 30.7955 4.94194 30.6739 4.73164 30.461C4.52134 30.2481 4.40345 29.9611 4.40347 29.6621V6.06579C4.40347 5.76817 4.52186 5.48274 4.73258 5.27229C4.9433 5.06183 5.22911 4.9436 5.52712 4.9436H22.2299C22.5294 4.94358 22.8167 5.06132 23.0299 5.27135C23.243 5.48137 23.3648 5.76678 23.3688 6.06579V9.59917C23.3648 9.8996 23.2436 10.1866 23.0309 10.3991C22.8181 10.6115 22.5307 10.7326 22.2299 10.7365H12.1475C11.8495 10.7365 11.5637 10.8548 11.353 11.0652C11.1422 11.2757 11.0239 11.5611 11.0239 11.8587V29.6621C11.0207 29.9524 10.9078 30.2309 10.708 30.4418C10.5081 30.6526 10.2359 30.7804 9.94577 30.7994Z" fill="#00AAFF"/>
<path d="M44.9154 30.7996H28.1063C27.815 30.7957 27.5369 30.6773 27.3323 30.4701C27.1277 30.2629 27.013 29.9836 27.013 29.6926V6.06598C27.013 5.7764 27.1282 5.49868 27.3333 5.29392C27.5383 5.08916 27.8164 4.97412 28.1063 4.97412H44.9154C45.2054 4.97412 45.4835 5.08916 45.6885 5.29392C45.8935 5.49868 46.0087 5.7764 46.0087 6.06598V9.70551C46.0087 9.99509 45.8935 10.2728 45.6885 10.4776C45.4835 10.6823 45.2054 10.7974 44.9154 10.7974H34.7874C34.4975 10.7974 34.2194 10.9124 34.0144 11.1172C33.8094 11.3219 33.6942 11.5997 33.6942 11.8892V13.6483C33.6942 13.9379 33.8094 14.2156 34.0144 14.4204C34.2194 14.6252 34.4975 14.7402 34.7874 14.7402H44.6421C44.7857 14.7402 44.9279 14.7684 45.0605 14.8233C45.1931 14.8782 45.3137 14.9586 45.4152 15.06C45.5167 15.1614 45.5972 15.2818 45.6522 15.4142C45.7071 15.5467 45.7354 15.6887 45.7354 15.8321V19.4564C45.7354 19.7474 45.6207 20.0267 45.4161 20.2339C45.2115 20.4411 44.9335 20.5595 44.6421 20.5635H34.7874C34.4975 20.5635 34.2194 20.6785 34.0144 20.8833C33.8094 21.088 33.6942 21.3657 33.6942 21.6553V23.8542C33.6942 24.1438 33.8094 24.4215 34.0144 24.6263C34.2194 24.831 34.4975 24.9461 34.7874 24.9461H44.9154C45.2054 24.9461 45.4835 25.0611 45.6885 25.2659C45.8935 25.4706 46.0087 25.7483 46.0087 26.0379V29.6623C46.0127 29.8089 45.9876 29.9549 45.9346 30.0917C45.8817 30.2286 45.802 30.3535 45.7003 30.4594C45.5986 30.5652 45.4768 30.6498 45.3421 30.7082C45.2073 30.7666 45.0623 30.7977 44.9154 30.7996Z" fill="#00AAFF"/>
<path d="M72.3536 27.4935C71.0352 28.7487 69.4789 29.728 67.7761 30.3739C66.0733 31.0197 64.2585 31.3191 62.4382 31.2544C60.6162 31.3135 58.8006 31.0116 57.0962 30.3661C55.3917 29.7206 53.8322 28.7443 52.5076 27.4935C51.2139 26.2566 50.1962 24.7608 49.5211 23.104C48.846 21.4472 48.5287 19.6668 48.59 17.8791C48.5304 16.088 48.8499 14.3046 49.5276 12.6452C50.2053 10.9859 51.2259 9.48803 52.5228 8.24951C55.2078 5.75492 58.7731 4.42443 62.4382 4.54932C64.2577 4.49141 66.0706 4.79393 67.7725 5.43942C69.4743 6.08491 71.0313 7.0606 72.3536 8.31017C73.6454 9.55177 74.6617 11.0505 75.3365 12.7094C76.0114 14.3682 76.3298 16.1502 76.2711 17.9398C76.321 19.717 75.9982 21.485 75.3236 23.1302C74.6489 24.7755 73.6373 26.2618 72.3536 27.4935ZM62.4382 25.3553C63.3894 25.3903 64.3369 25.2185 65.2151 24.852C66.0934 24.4854 66.8815 23.9328 67.5249 23.2323C68.8446 21.7678 69.5416 19.8479 69.4685 17.8791C69.5456 15.9051 68.8483 13.9791 67.5249 12.5108C66.8572 11.8377 66.0625 11.3034 65.1868 10.9388C64.3111 10.5742 63.3717 10.3865 62.423 10.3865C61.4742 10.3865 60.5349 10.5742 59.6592 10.9388C58.7835 11.3034 57.9888 11.8377 57.321 12.5108C55.9977 13.9791 55.3003 15.9051 55.3774 17.8791C55.3043 19.8479 56.0014 21.7678 57.321 23.2323C57.9691 23.9351 58.7624 24.489 59.6459 24.8556C60.5294 25.2222 61.4822 25.3927 62.4382 25.3553Z" fill="#00AAFF"/>
<path d="M85.5337 30.7995H80.7354C80.5925 30.7995 80.4511 30.7711 80.3193 30.7161C80.1875 30.661 80.068 30.5804 79.9676 30.4788C79.8673 30.3772 79.7882 30.2567 79.735 30.1243C79.6817 29.9919 79.6553 29.8503 79.6573 29.7076V6.06582C79.6573 5.78026 79.7709 5.5064 79.9731 5.30448C80.1752 5.10256 80.4495 4.98913 80.7354 4.98913H85.2907C85.4335 4.98712 85.5754 5.01348 85.7079 5.06669C85.8405 5.1199 85.9611 5.19889 86.0629 5.29907C86.1646 5.39925 86.2454 5.51863 86.3005 5.65025C86.3556 5.78188 86.384 5.92314 86.384 6.06582V16.6811C86.379 16.914 86.4497 17.1422 86.5856 17.3315C86.7214 17.5209 86.9151 17.6611 87.1375 17.7311C87.36 17.8012 87.5992 17.7973 87.8192 17.7201C88.0392 17.6429 88.2283 17.4965 88.3579 17.3029L96.5423 5.39857C96.6444 5.2557 96.7787 5.13874 96.9343 5.05709C97.0899 4.97544 97.2625 4.93139 97.4382 4.92847H102.707C102.993 4.92847 103.267 5.0419 103.469 5.24382C103.672 5.44574 103.785 5.7196 103.785 6.00516V29.7076C103.787 29.8503 103.761 29.9919 103.708 30.1243C103.654 30.2567 103.575 30.3772 103.475 30.4788C103.375 30.5804 103.255 30.661 103.123 30.7161C102.991 30.7711 102.85 30.7995 102.707 30.7995H98.1519C97.8619 30.7995 97.5838 30.6844 97.3788 30.4797C97.1738 30.2749 97.0586 29.9972 97.0586 29.7076V18.3189C97.0602 18.0873 96.9871 17.8614 96.85 17.6747C96.7129 17.4879 96.5192 17.3503 96.2976 17.2822C96.076 17.2141 95.8383 17.2191 95.6198 17.2966C95.4013 17.3741 95.2136 17.5199 95.0846 17.7123L86.4295 30.3294C86.3283 30.4731 86.1942 30.5907 86.0384 30.6725C85.8827 30.7542 85.7096 30.7978 85.5337 30.7995Z" fill="#00AAFF"/>
<path d="M131.421 30.7994H126.957C126.661 30.7954 126.379 30.6755 126.172 30.4654C125.964 30.2554 125.848 29.9723 125.848 29.6772V21.5035C125.844 21.2085 125.724 20.9269 125.514 20.7197C125.303 20.5125 125.02 20.3964 124.725 20.3964H116.206C115.911 20.3964 115.627 20.5125 115.417 20.7197C115.207 20.9269 115.086 21.2085 115.082 21.5035V29.6772C115.082 29.9723 114.966 30.2554 114.759 30.4654C114.551 30.6755 114.269 30.7954 113.974 30.7994H109.51C109.214 30.7954 108.932 30.6755 108.725 30.4654C108.518 30.2554 108.401 29.9723 108.401 29.6772V6.06577C108.401 5.77216 108.518 5.49059 108.726 5.28298C108.934 5.07537 109.216 4.95874 109.51 4.95874H113.974C114.12 4.95874 114.264 4.98737 114.398 5.04301C114.533 5.09864 114.655 5.18018 114.758 5.28298C114.861 5.38578 114.942 5.50781 114.998 5.64213C115.054 5.77644 115.082 5.92039 115.082 6.06577V13.4662C115.086 13.7611 115.207 14.0427 115.417 14.2499C115.627 14.4571 115.911 14.5732 116.206 14.5732H124.725C125.02 14.5732 125.303 14.4571 125.514 14.2499C125.724 14.0427 125.844 13.7611 125.848 13.4662V6.06577C125.848 5.92039 125.877 5.77644 125.933 5.64213C125.988 5.50781 126.07 5.38578 126.173 5.28298C126.276 5.18018 126.398 5.09864 126.532 5.04301C126.667 4.98737 126.811 4.95874 126.957 4.95874H131.421C131.715 4.95874 131.997 5.07537 132.205 5.28298C132.413 5.49059 132.529 5.77216 132.529 6.06577V29.7227C132.518 30.0098 132.396 30.2815 132.19 30.4818C131.984 30.6821 131.708 30.7958 131.421 30.7994Z" fill="#00AAFF"/>
<path d="M154.349 30.7995H149.521C149.27 30.7955 149.03 30.6931 148.854 30.5144C148.678 30.3356 148.579 30.0949 148.579 29.8441V28.9949C148.573 28.7641 148.484 28.5433 148.328 28.3733C148.171 28.2032 147.959 28.0954 147.729 28.0699C144.652 27.873 141.692 26.8226 139.18 25.0369C138.104 24.1977 137.243 23.1153 136.667 21.8789C136.092 20.6424 135.819 19.2872 135.87 17.9247C135.812 16.5531 136.083 15.1876 136.662 13.9423C137.24 12.6971 138.109 11.6082 139.195 10.7669C141.708 8.99513 144.66 7.94606 147.729 7.73397C147.96 7.71155 148.174 7.60473 148.331 7.434C148.488 7.26327 148.577 7.04067 148.579 6.80892V5.85354C148.579 5.60418 148.678 5.36504 148.855 5.18871C149.031 5.01239 149.271 4.91333 149.521 4.91333H154.349C154.599 4.91333 154.838 5.01239 155.015 5.18871C155.191 5.36504 155.291 5.60418 155.291 5.85354V6.74826C155.293 6.98001 155.382 7.20261 155.539 7.37334C155.695 7.54407 155.91 7.6509 156.141 7.67331C159.211 7.87999 162.164 8.92957 164.675 10.7063C165.754 11.5431 166.619 12.6245 167.197 13.8613C167.776 15.098 168.051 16.4545 168 17.8185C168.051 19.1794 167.779 20.533 167.206 21.769C166.633 23.005 165.776 24.0883 164.705 24.9308C162.186 26.7127 159.221 27.7625 156.141 27.9637C155.911 27.9893 155.699 28.0971 155.542 28.2671C155.386 28.4372 155.297 28.658 155.291 28.8888V29.738C155.306 29.8708 155.292 30.0052 155.252 30.1327C155.212 30.2601 155.145 30.3776 155.056 30.4776C154.967 30.5777 154.859 30.658 154.737 30.7135C154.615 30.7689 154.483 30.7982 154.349 30.7995ZM142.733 17.8792C142.733 20.0022 144.252 21.3974 147.471 22.0343C147.611 22.0634 147.756 22.0611 147.896 22.0275C148.036 21.9939 148.166 21.9298 148.278 21.8399C148.389 21.7501 148.48 21.6366 148.543 21.5076C148.605 21.3786 148.638 21.2374 148.64 21.0941V14.6491C148.639 14.5061 148.606 14.3652 148.543 14.2367C148.48 14.1082 148.39 13.9954 148.277 13.9067C148.165 13.8179 148.034 13.7554 147.895 13.7238C147.755 13.6922 147.61 13.6923 147.471 13.724C144.252 14.361 142.733 15.7409 142.733 17.8792ZM161.258 17.8792C161.258 15.7409 159.74 14.361 156.521 13.724C156.381 13.6951 156.237 13.6971 156.099 13.7299C155.961 13.7626 155.831 13.8253 155.719 13.9135C155.608 14.0018 155.517 14.1134 155.454 14.2405C155.39 14.3676 155.355 14.507 155.351 14.6491V21.0941C155.353 21.2374 155.386 21.3786 155.449 21.5076C155.511 21.6366 155.602 21.7501 155.714 21.8399C155.825 21.9298 155.956 21.9939 156.095 22.0275C156.235 22.0611 156.38 22.0634 156.521 22.0343C159.618 21.3974 161.197 20.0022 161.197 17.8792H161.258Z" fill="#00AAFF"/>
<path d="M193.844 27.4937C191.108 29.9167 187.578 31.2546 183.921 31.2546C180.264 31.2546 176.734 29.9167 173.998 27.4937C172.701 26.2581 171.681 24.7629 171.003 23.1061C170.325 21.4492 170.006 19.6681 170.065 17.8793C170.005 16.0882 170.325 14.3047 171.003 12.6454C171.68 10.9861 172.701 9.4882 173.998 8.24968C176.734 5.82671 180.264 4.48877 183.921 4.48877C187.578 4.48877 191.108 5.82671 193.844 8.24968C195.136 9.49128 196.152 10.99 196.827 12.6489C197.502 14.3078 197.82 16.0897 197.761 17.8793C197.82 19.6666 197.501 21.4462 196.826 23.1025C196.151 24.7589 195.135 26.255 193.844 27.4937ZM183.928 25.3555C184.88 25.3904 185.827 25.2187 186.705 24.8521C187.584 24.4856 188.372 23.933 189.015 23.2324C190.335 21.768 191.032 19.8481 190.959 17.8793C191.036 15.9053 190.339 13.9792 189.015 12.511C188.372 11.8104 187.584 11.2578 186.705 10.8913C185.827 10.5247 184.88 10.353 183.928 10.3879C182.97 10.3514 182.016 10.5222 181.13 10.8887C180.244 11.2551 179.448 11.8085 178.796 12.511C177.484 13.9858 176.788 15.9073 176.852 17.8793C176.79 19.8463 177.486 21.7622 178.796 23.2324C179.448 23.9349 180.244 24.4883 181.13 24.8547C182.016 25.2212 182.97 25.392 183.928 25.3555Z" fill="#00AAFF"/>
<path d="M206.629 30.7996H202.332C202.016 30.7956 201.715 30.6677 201.493 30.4434C201.272 30.2192 201.147 29.9167 201.148 29.6016V6.06596C201.146 5.90935 201.175 5.75391 201.233 5.60864C201.292 5.46338 201.379 5.33118 201.489 5.21974C201.599 5.10829 201.73 5.0198 201.875 4.95941C202.02 4.89902 202.175 4.86793 202.332 4.86794H214.1C215.311 4.80295 216.522 4.98752 217.658 5.41016C218.795 5.83281 219.832 6.48448 220.705 7.32463C221.522 8.13474 222.165 9.10235 222.596 10.1686C223.027 11.2349 223.236 12.3775 223.21 13.527C223.234 14.6478 223.032 15.7619 222.617 16.8037C222.203 17.8455 221.583 18.7938 220.796 19.5929C219.916 20.4528 218.866 21.1196 217.713 21.5505C216.559 21.9814 215.329 22.1669 214.1 22.0951H208.998C208.682 22.0991 208.381 22.227 208.159 22.4513C207.938 22.6755 207.813 22.978 207.813 23.2931V29.6016C207.81 29.9155 207.684 30.2158 207.463 30.4392C207.242 30.6626 206.943 30.7918 206.629 30.7996ZM213.219 16.287C214.029 16.3164 214.821 16.0525 215.451 15.5439C215.744 15.2985 215.976 14.9886 216.129 14.6387C216.281 14.2888 216.351 13.9083 216.332 13.527C216.352 13.1389 216.284 12.7513 216.131 12.3938C215.978 12.0364 215.746 11.7185 215.451 11.4646C214.82 10.9602 214.027 10.7016 213.219 10.7367H209.013C208.857 10.7367 208.703 10.7673 208.56 10.8267C208.416 10.8862 208.286 10.9733 208.176 11.0831C208.066 11.193 207.978 11.3234 207.919 11.4669C207.859 11.6104 207.829 11.7642 207.829 11.9195V15.1648C207.829 15.4799 207.953 15.7824 208.175 16.0066C208.396 16.2308 208.698 16.3588 209.013 16.3628L213.219 16.287Z" fill="#00AAFF"/>
<path d="M254.384 30.7995H249.996C249.845 30.7995 249.695 30.7696 249.556 30.7115C249.417 30.6534 249.291 30.5682 249.185 30.461C249.079 30.3538 248.995 30.2266 248.939 30.0869C248.883 29.9471 248.855 29.7976 248.857 29.647V20.0325C248.851 19.7686 248.755 19.5146 248.585 19.3129C248.415 19.1112 248.18 18.974 247.92 18.9243C247.661 18.8746 247.392 18.9153 247.159 19.0398C246.926 19.1642 246.743 19.3648 246.64 19.6079L242.57 30.0716C242.488 30.2859 242.342 30.4702 242.152 30.6001C241.962 30.7301 241.738 30.7996 241.508 30.7995H240.111C239.881 30.7996 239.656 30.7301 239.466 30.6001C239.276 30.4702 239.131 30.2859 239.048 30.0716L235.009 19.7141C234.913 19.4661 234.734 19.2593 234.501 19.1296C234.269 19 233.999 18.9556 233.737 19.0043C233.476 19.0529 233.239 19.1915 233.07 19.3959C232.9 19.6004 232.807 19.8578 232.807 20.1235V29.7076C232.807 30.0107 232.687 30.3015 232.474 30.5173C232.261 30.733 231.972 30.8562 231.668 30.8601H227.265C227.114 30.8602 226.964 30.8302 226.825 30.7721C226.686 30.714 226.56 30.6289 226.454 30.5217C226.348 30.4144 226.264 30.2873 226.208 30.1475C226.152 30.0078 226.124 29.8582 226.126 29.7076V6.06582C226.126 5.76418 226.246 5.47489 226.459 5.26159C226.673 5.04829 226.963 4.92847 227.265 4.92847H234.629C234.859 4.92838 235.084 4.99788 235.274 5.12781C235.463 5.25775 235.609 5.44202 235.692 5.65637L239.746 16.2717C239.829 16.4862 239.975 16.6708 240.164 16.8009C240.354 16.931 240.579 17.0007 240.809 17.0007C241.039 17.0007 241.264 16.931 241.454 16.8009C241.644 16.6708 241.789 16.4862 241.872 16.2717L245.972 5.65637C246.055 5.44202 246.2 5.25775 246.39 5.12781C246.58 4.99788 246.805 4.92838 247.035 4.92847H254.384C254.687 4.92844 254.979 5.04778 255.195 5.26065C255.411 5.47352 255.534 5.76279 255.538 6.06582V29.647C255.538 29.9526 255.416 30.2458 255.2 30.4619C254.984 30.6781 254.69 30.7995 254.384 30.7995Z" fill="#00AAFF"/>
<path d="M283.568 30.7995H278.679C278.42 30.7971 278.168 30.714 277.958 30.5617C277.749 30.4095 277.592 30.1958 277.51 29.9503L276.796 27.9031C276.713 27.6592 276.556 27.4475 276.346 27.2978C276.136 27.1481 275.885 27.0681 275.627 27.069H267.245C266.986 27.0694 266.733 27.1497 266.521 27.299C266.309 27.4483 266.148 27.6592 266.061 27.9031L265.362 29.9503C265.277 30.197 265.118 30.4112 264.906 30.5633C264.693 30.7155 264.439 30.798 264.178 30.7995H259.304C259.102 30.8003 258.903 30.752 258.724 30.6588C258.545 30.5657 258.391 30.4304 258.276 30.2648C258.161 30.0991 258.088 29.9081 258.063 29.708C258.039 29.5079 258.063 29.3048 258.135 29.1162L266.941 5.71707C267.031 5.48011 267.191 5.27616 267.4 5.13252C267.609 4.98889 267.857 4.91241 268.111 4.91334H274.777C275.03 4.91241 275.278 4.98889 275.487 5.13252C275.696 5.27616 275.856 5.48011 275.946 5.71707L284.798 29.1011C284.871 29.2954 284.895 29.5046 284.867 29.7102C284.839 29.9158 284.761 30.1113 284.639 30.2794C284.517 30.4475 284.356 30.583 284.169 30.6737C283.982 30.7644 283.776 30.8077 283.568 30.7995ZM274.124 19.608L272.605 15.0585C272.521 14.8141 272.362 14.6021 272.151 14.452C271.94 14.302 271.687 14.2213 271.428 14.2213C271.169 14.2213 270.917 14.302 270.706 14.452C270.495 14.6021 270.336 14.8141 270.252 15.0585L268.733 19.608C268.675 19.7872 268.659 19.9772 268.685 20.1637C268.711 20.3503 268.78 20.5284 268.885 20.6846C268.99 20.8409 269.13 20.9713 269.293 21.0658C269.456 21.1604 269.638 21.2167 269.826 21.2306H272.954C273.15 21.2313 273.343 21.1853 273.518 21.0964C273.692 21.0076 273.843 20.8784 273.957 20.7197C274.071 20.561 274.146 20.3774 274.175 20.184C274.204 19.9906 274.186 19.7931 274.124 19.608Z" fill="#00AAFF"/>
<path d="M307.013 34.4088V31.9522C307.009 31.6451 306.884 31.352 306.665 31.1363C306.446 30.9205 306.151 30.7996 305.844 30.7996H288.503C288.193 30.7996 287.896 30.6766 287.677 30.4576C287.457 30.2386 287.334 29.9416 287.334 29.632V6.06598C287.332 5.91207 287.361 5.75931 287.419 5.61672C287.477 5.47413 287.563 5.3446 287.672 5.23576C287.781 5.12692 287.911 5.04099 288.053 4.98303C288.196 4.92507 288.349 4.89626 288.503 4.89829H292.846C293 4.89626 293.153 4.92507 293.296 4.98303C293.439 5.04099 293.568 5.12692 293.677 5.23576C293.786 5.3446 293.872 5.47413 293.93 5.61672C293.988 5.75931 294.017 5.91207 294.015 6.06598V23.8087C294.015 24.1184 294.138 24.4154 294.358 24.6344C294.577 24.8534 294.874 24.9764 295.184 24.9764H303.612C303.921 24.9725 304.216 24.8482 304.434 24.63C304.653 24.4119 304.777 24.1172 304.781 23.8087V6.06598C304.779 5.91207 304.808 5.75931 304.866 5.61672C304.924 5.47413 305.01 5.3446 305.119 5.23576C305.228 5.12692 305.358 5.04099 305.5 4.98303C305.643 4.92507 305.796 4.89626 305.95 4.89829H310.293C310.447 4.89626 310.6 4.92507 310.743 4.98303C310.885 5.04099 311.015 5.12692 311.124 5.23576C311.233 5.3446 311.319 5.47413 311.377 5.61672C311.435 5.75931 311.464 5.91207 311.462 6.06598V23.8087C311.462 24.1184 311.585 24.4154 311.805 24.6344C312.024 24.8534 312.321 24.9764 312.631 24.9764C312.784 24.9764 312.935 25.0067 313.076 25.0655C313.217 25.1244 313.345 25.2107 313.453 25.3193C313.56 25.4279 313.645 25.5568 313.702 25.6984C313.759 25.8399 313.787 25.9914 313.785 26.1441V34.4088C313.785 34.5602 313.755 34.7101 313.697 34.8499C313.639 34.9897 313.554 35.1168 313.447 35.2238C313.34 35.3308 313.213 35.4157 313.073 35.4736C312.933 35.5315 312.783 35.5614 312.631 35.5614H308.243C308.085 35.5718 307.927 35.5496 307.778 35.4964C307.629 35.4431 307.493 35.3599 307.377 35.2518C307.262 35.1437 307.17 35.0131 307.108 34.8681C307.045 34.7231 307.013 34.5668 307.013 34.4088Z" fill="#00AAFF"/>
<path d="M322.562 30.7995H317.536C317.413 30.7995 317.291 30.7751 317.178 30.7277C317.064 30.6802 316.962 30.6107 316.875 30.5232C316.789 30.4357 316.721 30.3319 316.676 30.218C316.63 30.104 316.607 29.982 316.609 29.8593V5.85354C316.607 5.73079 316.63 5.60887 316.676 5.49488C316.721 5.3809 316.789 5.27712 316.875 5.18961C316.962 5.1021 317.064 5.0326 317.178 4.98517C317.291 4.93773 317.413 4.91331 317.536 4.91333H322.349C322.599 4.91333 322.838 5.01239 323.015 5.18871C323.191 5.36504 323.291 5.60418 323.291 5.85354V17.1513C323.285 17.3524 323.346 17.5497 323.463 17.7133C323.581 17.8769 323.748 17.9979 323.94 18.0579C324.133 18.1179 324.339 18.1137 324.529 18.0459C324.719 17.978 324.881 17.8503 324.991 17.682L333.495 5.32278C333.582 5.19785 333.697 5.09552 333.832 5.0243C333.967 4.95308 334.117 4.91503 334.269 4.91333H339.751C340 4.91333 340.24 5.01239 340.416 5.18871C340.593 5.36504 340.692 5.60418 340.692 5.85354V29.8593C340.692 29.9828 340.668 30.105 340.62 30.2191C340.573 30.3332 340.504 30.4368 340.416 30.5241C340.329 30.6114 340.225 30.6807 340.111 30.7279C339.997 30.7752 339.874 30.7995 339.751 30.7995H334.907C334.784 30.7995 334.662 30.7751 334.549 30.7277C334.435 30.6802 334.333 30.6107 334.246 30.5232C334.16 30.4357 334.092 30.3319 334.047 30.218C334.001 30.104 333.978 29.982 333.98 29.8593V17.8337C333.976 17.6349 333.91 17.4424 333.789 17.284C333.669 17.1256 333.501 17.0094 333.31 16.9521C333.12 16.8948 332.916 16.8994 332.728 16.9651C332.54 17.0309 332.378 17.1545 332.265 17.3181L323.336 30.3294C323.256 30.4656 323.143 30.5798 323.008 30.6618C322.873 30.7439 322.72 30.7912 322.562 30.7995Z" fill="#00AAFF"/>
<path d="M367.811 27.4936C365.078 29.9154 361.55 31.2529 357.896 31.2529C354.242 31.2529 350.714 29.9154 347.98 27.4936C346.682 26.2587 345.659 24.764 344.979 23.1072C344.299 21.4505 343.976 19.6689 344.033 17.8791C343.976 16.0871 344.298 14.3032 344.978 12.6439C345.659 10.9847 346.682 9.4873 347.98 8.24953C350.714 5.82766 354.242 4.49023 357.896 4.49023C361.55 4.49023 365.078 5.82766 367.811 8.24953C369.105 9.49037 370.124 10.9886 370.801 12.6474C371.479 14.3062 371.8 16.0885 371.744 17.8791C371.8 19.6674 371.478 21.4474 370.801 23.1037C370.123 24.76 369.105 26.2556 367.811 27.4936ZM357.911 25.3553C358.862 25.3903 359.81 25.2186 360.688 24.852C361.566 24.4854 362.354 23.9328 362.998 23.2323C364.308 21.7621 365.003 19.8462 364.941 17.8791C365.006 15.9071 364.31 13.9857 362.998 12.5108C362.329 11.8373 361.533 11.3027 360.656 10.9379C359.779 10.573 358.838 10.3852 357.888 10.3852C356.938 10.3852 355.998 10.573 355.121 10.9379C354.244 11.3027 353.448 11.8373 352.779 12.5108C351.466 13.9857 350.771 15.9071 350.835 17.8791C350.773 19.8462 351.469 21.7621 352.779 23.2323C353.43 23.9355 354.226 24.4895 355.112 24.856C355.998 25.2225 356.953 25.3929 357.911 25.3553Z" fill="#00AAFF"/>
<path d="M398.059 30.7996H393.731C393.42 30.7956 393.122 30.6692 392.903 30.4478C392.684 30.2264 392.562 29.9278 392.562 29.6167V21.5642C392.558 21.2532 392.431 20.9562 392.21 20.7376C391.988 20.5191 391.689 20.3965 391.377 20.3966H382.98C382.669 20.3965 382.37 20.5191 382.148 20.7376C381.927 20.9562 381.8 21.2532 381.796 21.5642V29.6167C381.796 29.9278 381.673 30.2264 381.455 30.4478C381.236 30.6692 380.938 30.7956 380.627 30.7996H376.299C376.144 30.7996 375.99 30.769 375.846 30.7095C375.702 30.6501 375.572 30.563 375.462 30.4531C375.352 30.3433 375.265 30.2129 375.205 30.0694C375.146 29.9259 375.115 29.7721 375.115 29.6167V6.0659C375.115 5.75219 375.24 5.45133 375.462 5.2295C375.684 5.00768 375.985 4.88306 376.299 4.88306H380.627C380.938 4.88705 381.236 5.01342 381.455 5.23482C381.673 5.45622 381.796 5.7548 381.796 6.0659V13.4056C381.8 13.7167 381.927 14.0137 382.148 14.2322C382.37 14.4508 382.669 14.5733 382.98 14.5733H391.377C391.689 14.5733 391.988 14.4508 392.21 14.2322C392.431 14.0137 392.558 13.7167 392.562 13.4056V6.0659C392.562 5.7548 392.684 5.45622 392.903 5.23482C393.122 5.01342 393.42 4.88705 393.731 4.88306H398.059C398.373 4.88306 398.674 5.00768 398.896 5.2295C399.118 5.45133 399.243 5.75219 399.243 6.0659V29.6167C399.243 29.9304 399.118 30.2313 398.896 30.4531C398.674 30.6749 398.373 30.7996 398.059 30.7996Z" fill="#00AAFF"/>
<path d="M426.848 30.7996H422.536C422.22 30.7956 421.919 30.6676 421.697 30.4434C421.476 30.2191 421.351 29.9167 421.351 29.6016V21.5794C421.351 21.4228 421.32 21.2678 421.26 21.1233C421.199 20.9788 421.111 20.8477 420.999 20.7376C420.888 20.6276 420.755 20.5408 420.61 20.4822C420.464 20.4237 420.309 20.3946 420.152 20.3966H411.785C411.628 20.3946 411.473 20.4237 411.327 20.4822C411.182 20.5408 411.049 20.6276 410.938 20.7376C410.826 20.8477 410.738 20.9788 410.677 21.1233C410.617 21.2678 410.586 21.4228 410.586 21.5794V29.6016C410.586 29.9167 410.461 30.2191 410.24 30.4434C410.018 30.6676 409.717 30.7956 409.401 30.7996H405.104C404.786 30.7996 404.481 30.6734 404.256 30.4487C404.031 30.224 403.905 29.9193 403.905 29.6016V6.06593C403.905 5.7482 404.031 5.44348 404.256 5.21881C404.481 4.99414 404.786 4.86792 405.104 4.86792H409.401C409.558 4.86791 409.713 4.899 409.858 4.95939C410.003 5.01978 410.134 5.10826 410.244 5.21971C410.354 5.33116 410.441 5.46335 410.5 5.60862C410.558 5.75388 410.588 5.90933 410.586 6.06593V13.345C410.586 13.5016 410.617 13.6567 410.677 13.8012C410.738 13.9457 410.826 14.0768 410.938 14.1868C411.049 14.2968 411.182 14.3837 411.327 14.4422C411.473 14.5007 411.628 14.5299 411.785 14.5278H420.152C420.309 14.5299 420.464 14.5007 420.61 14.4422C420.755 14.3837 420.888 14.2968 420.999 14.1868C421.111 14.0768 421.199 13.9457 421.26 13.8012C421.32 13.6567 421.351 13.5016 421.351 13.345V6.06593C421.349 5.90933 421.378 5.75388 421.437 5.60862C421.496 5.46335 421.583 5.33116 421.693 5.21971C421.803 5.10826 421.934 5.01978 422.079 4.95939C422.224 4.899 422.379 4.86791 422.536 4.86792H426.848C427.005 4.86791 427.16 4.899 427.305 4.95939C427.45 5.01978 427.581 5.10826 427.691 5.21971C427.801 5.33116 427.888 5.46335 427.947 5.60862C428.005 5.75388 428.035 5.90933 428.032 6.06593V29.6016C428.033 29.9167 427.908 30.2191 427.687 30.4434C427.465 30.6676 427.164 30.7956 426.848 30.7996Z" fill="#00AAFF"/>
<path d="M433.818 4.91333H438.252C438.55 4.91333 438.835 5.03156 439.046 5.24201C439.257 5.45246 439.375 5.7379 439.375 6.03552V12.4805C439.375 12.7781 439.494 13.0636 439.704 13.274C439.915 13.4845 440.201 13.6027 440.499 13.6027H445.677C446.889 13.536 448.102 13.7213 449.239 14.1468C450.376 14.5722 451.412 15.2287 452.282 16.0746C453.066 16.8754 453.682 17.8244 454.094 18.866C454.506 19.9076 454.705 21.0208 454.681 22.1405C454.703 23.2598 454.502 24.3723 454.09 25.4135C453.678 26.4548 453.064 27.404 452.282 28.2063C451.41 29.0492 450.373 29.7037 449.237 30.129C448.101 30.5542 446.889 30.7412 445.677 30.6782H433.818C433.518 30.6742 433.233 30.5526 433.022 30.3398C432.812 30.1269 432.694 29.8399 432.694 29.5408V6.06585C432.69 5.91595 432.716 5.76676 432.771 5.62709C432.825 5.48742 432.908 5.3601 433.012 5.25266C433.117 5.14522 433.242 5.05984 433.381 5.00156C433.519 4.94328 433.668 4.91328 433.818 4.91333ZM444.781 19.426H440.499C440.201 19.426 439.915 19.5442 439.704 19.7547C439.494 19.9651 439.375 20.2505 439.375 20.5482V23.8541C439.375 24.1517 439.494 24.4371 439.704 24.6476C439.915 24.858 440.201 24.9763 440.499 24.9763H444.781C445.591 25.0085 446.385 24.7443 447.013 24.2332C447.304 23.9801 447.533 23.6642 447.683 23.3094C447.833 22.9547 447.9 22.5704 447.878 22.1859C447.898 21.806 447.831 21.4267 447.681 21.077C447.53 20.7273 447.302 20.4167 447.013 20.169C446.385 19.658 445.591 19.3937 444.781 19.426ZM462.137 30.7995H457.718C457.419 30.7955 457.133 30.6739 456.923 30.4611C456.712 30.2482 456.594 29.9612 456.594 29.6622V6.06585C456.594 5.76823 456.713 5.48279 456.923 5.27234C457.134 5.06189 457.42 4.94366 457.718 4.94366H462.137C462.436 4.94363 462.723 5.06138 462.937 5.2714C463.15 5.48143 463.271 5.76684 463.275 6.06585V29.6622C463.272 29.9626 463.15 30.2496 462.938 30.462C462.725 30.6745 462.437 30.7956 462.137 30.7995Z" fill="#00AAFF"/>
<path d="M485.794 30.7996H469.091C468.792 30.7956 468.506 30.674 468.296 30.4611C468.085 30.2483 467.967 29.9612 467.967 29.6622V6.0659C467.967 5.76827 468.086 5.48284 468.297 5.27239C468.507 5.06194 468.793 4.94371 469.091 4.94371H485.794C485.943 4.9417 486.09 4.96924 486.228 5.02474C486.367 5.08023 486.492 5.16257 486.598 5.26698C486.704 5.37138 486.788 5.49577 486.846 5.63292C486.903 5.77007 486.933 5.91724 486.933 6.0659V9.59928C486.933 9.90092 486.813 10.1902 486.599 10.4035C486.386 10.6168 486.096 10.7366 485.794 10.7366H475.742C475.444 10.7366 475.158 10.8549 474.947 11.0653C474.737 11.2758 474.618 11.5612 474.618 11.8588V13.6483C474.616 13.7969 474.644 13.9445 474.699 14.0824C474.755 14.2203 474.837 14.3458 474.942 14.4516C475.046 14.5574 475.171 14.6414 475.308 14.6988C475.446 14.7561 475.593 14.7856 475.742 14.7856H485.536C485.834 14.7856 486.12 14.9038 486.33 15.1143C486.541 15.3247 486.659 15.6102 486.659 15.9078V19.4715C486.659 19.7705 486.541 20.0576 486.331 20.2704C486.121 20.4833 485.835 20.6049 485.536 20.6089H475.742C475.444 20.6089 475.158 20.7271 474.947 20.9375C474.737 21.148 474.618 21.4334 474.618 21.7311V23.8541C474.618 24.1532 474.736 24.4402 474.946 24.653C475.157 24.8659 475.442 24.9875 475.742 24.9915H485.794C485.943 24.9895 486.09 25.017 486.228 25.0725C486.367 25.128 486.492 25.2103 486.598 25.3147C486.704 25.4191 486.788 25.5435 486.846 25.6807C486.903 25.8178 486.933 25.965 486.933 26.1137V29.6774C486.929 29.9764 486.807 30.2618 486.594 30.4718C486.381 30.6818 486.093 30.7996 485.794 30.7996Z" fill="#00AAFF"/>
<path d="M10.3176 78.2506H5.8382C5.54683 78.2507 5.26716 78.1361 5.05972 77.9318C4.85227 77.7274 4.73373 77.4497 4.72974 77.1588V53.4715C4.72974 53.1779 4.84652 52.8963 5.0544 52.6887C5.26227 52.4811 5.54421 52.3644 5.8382 52.3644H17.7124C18.9265 52.3054 20.1397 52.4972 21.2762 52.9277C22.4127 53.3582 23.4481 54.0183 24.3176 54.8666C25.8498 56.5431 26.6993 58.7309 26.6993 61.0008C26.6993 63.2706 25.8498 65.4584 24.3176 67.1349C23.4443 67.975 22.4072 68.6267 21.2708 69.0494C20.1345 69.472 18.9232 69.6566 17.7124 69.5916H12.5193C12.228 69.5915 11.9483 69.7061 11.7408 69.9104C11.5334 70.1148 11.4149 70.3925 11.4109 70.6834V77.1588C11.4109 77.4484 11.2957 77.7261 11.0907 77.9308C10.8856 78.1356 10.6075 78.2506 10.3176 78.2506ZM16.8165 63.738C17.6242 63.7731 18.4173 63.5145 19.0486 63.0101C19.349 62.7576 19.5854 62.4378 19.7384 62.0768C19.8915 61.7157 19.9569 61.3236 19.9293 60.9325C19.9509 60.5443 19.8827 60.1563 19.7299 59.7987C19.5772 59.441 19.3441 59.1233 19.0486 58.8701C18.4187 58.3615 17.6259 58.0976 16.8165 58.127H12.5193C12.2253 58.127 11.9434 58.2437 11.7355 58.4513C11.5276 58.6589 11.4109 58.9405 11.4109 59.2341V62.5855C11.4149 62.8764 11.5334 63.1541 11.7408 63.3585C11.9483 63.5628 12.228 63.6774 12.5193 63.6773L16.8165 63.738Z" fill="#00AAFF"/>
<path d="M47.5953 78.2507H30.8925C30.7469 78.2507 30.6028 78.2221 30.4683 78.1664C30.3338 78.1108 30.2116 78.0292 30.1087 77.9265C30.0057 77.8237 29.9241 77.7016 29.8684 77.5673C29.8127 77.433 29.784 77.289 29.784 77.1437V53.4867C29.782 53.34 29.8092 53.1945 29.864 53.0584C29.9188 52.9223 30.0001 52.7985 30.1033 52.6941C30.2064 52.5897 30.3293 52.5068 30.4647 52.4502C30.6002 52.3936 30.7456 52.3645 30.8925 52.3645H47.5953C47.7428 52.3645 47.889 52.3935 48.0253 52.4499C48.1616 52.5063 48.2855 52.589 48.3898 52.6932C48.4942 52.7974 48.5769 52.9211 48.6334 53.0573C48.6899 53.1934 48.7189 53.3393 48.7189 53.4867V57.0807C48.7149 57.3757 48.5948 57.6573 48.3845 57.8645C48.1742 58.0716 47.8907 58.1878 47.5953 58.1878H37.5129C37.366 58.1877 37.2206 58.2169 37.0851 58.2735C36.9496 58.33 36.8268 58.4129 36.7236 58.5173C36.6205 58.6218 36.5392 58.7456 36.4844 58.8816C36.4296 59.0177 36.4024 59.1633 36.4044 59.3099V61.1145C36.4024 61.2605 36.4296 61.4054 36.4846 61.5406C36.5396 61.6758 36.6212 61.7987 36.7245 61.9019C36.8278 62.0051 36.9509 62.0866 37.0863 62.1415C37.2217 62.1964 37.3667 62.2236 37.5129 62.2216H47.3371C47.6325 62.2256 47.9144 62.3455 48.1219 62.5556C48.3293 62.7656 48.4456 63.0488 48.4456 63.3438V66.9985C48.4456 67.2921 48.3288 67.5736 48.1209 67.7813C47.9131 67.9889 47.6311 68.1055 47.3371 68.1055H37.5129C37.2189 68.1055 36.9369 68.2221 36.7291 68.4297C36.5212 68.6373 36.4044 68.9189 36.4044 69.2125V71.3811C36.4024 71.527 36.4296 71.6719 36.4846 71.8071C36.5396 71.9423 36.6212 72.0652 36.7245 72.1684C36.8278 72.2716 36.9509 72.3531 37.0863 72.408C37.2217 72.4629 37.3667 72.4901 37.5129 72.4881H47.5953C47.7428 72.4881 47.889 72.5171 48.0253 72.5735C48.1616 72.6299 48.2855 72.7126 48.3898 72.8168C48.4942 72.921 48.5769 73.0447 48.6334 73.1808C48.6899 73.317 48.7189 73.4629 48.7189 73.6103V77.2043C48.6996 77.4886 48.5728 77.7549 48.3641 77.9493C48.1555 78.1436 47.8806 78.2513 47.5953 78.2507Z" fill="#00AAFF"/>
<path d="M81.8665 52.3645H86.3459C86.6398 52.3645 86.9218 52.4811 87.1297 52.6887C87.3375 52.8964 87.4543 53.1779 87.4543 53.4715V77.1588C87.4503 77.4498 87.3318 77.7275 87.1243 77.9318C86.9169 78.1362 86.6372 78.2507 86.3459 78.2507H53.6994C53.4081 78.2507 53.1284 78.1362 52.921 77.9318C52.7135 77.7275 52.595 77.4498 52.591 77.1588V53.4715C52.591 53.1779 52.7078 52.8964 52.9157 52.6887C53.1235 52.4811 53.4055 52.3645 53.6994 52.3645H58.2548C58.5487 52.3645 58.8307 52.4811 59.0386 52.6887C59.2464 52.8964 59.3632 53.1779 59.3632 53.4715V71.3356C59.3632 71.6252 59.4784 71.9029 59.6834 72.1076C59.8885 72.3124 60.1665 72.4274 60.4565 72.4274H65.6799C65.9699 72.4274 66.248 72.3124 66.453 72.1076C66.658 71.9029 66.7732 71.6252 66.7732 71.3356V53.4715C66.7732 53.1779 66.89 52.8964 67.0979 52.6887C67.3057 52.4811 67.5877 52.3645 67.8817 52.3645H72.437C72.7283 52.3685 73.0064 52.4869 73.211 52.6941C73.4156 52.9012 73.5303 53.1805 73.5302 53.4715V71.3356C73.5342 71.6265 73.6528 71.9042 73.8602 72.1086C74.0677 72.3129 74.3473 72.4275 74.6387 72.4274H79.7103C80.0017 72.4275 80.2813 72.3129 80.4888 72.1086C80.6962 71.9042 80.8148 71.6265 80.8187 71.3356V53.4715C80.8183 53.1881 80.9267 52.9154 81.1216 52.7094C81.3166 52.5035 81.5831 52.38 81.8665 52.3645Z" fill="#00AAFF"/>
<path d="M110.079 78.2507H93.2094C92.9194 78.2507 92.6413 78.1357 92.4363 77.9309C92.2313 77.7261 92.1161 77.4484 92.1161 77.1588V53.4715C92.1161 53.1805 92.2308 52.9012 92.4354 52.6941C92.64 52.4869 92.918 52.3685 93.2094 52.3645H110.079C110.373 52.3645 110.655 52.4811 110.863 52.6887C111.071 52.8964 111.188 53.1779 111.188 53.4715V57.0959C111.184 57.3869 111.065 57.6646 110.858 57.8689C110.65 58.0732 110.371 58.1878 110.079 58.1878H99.8905C99.5992 58.1917 99.3211 58.3101 99.1165 58.5173C98.9119 58.7245 98.7972 59.0038 98.7972 59.2948V61.1297C98.7972 61.4193 98.9124 61.697 99.1174 61.9018C99.3225 62.1065 99.6006 62.2216 99.8905 62.2216H109.73C110.024 62.2216 110.306 62.3382 110.514 62.5458C110.722 62.7534 110.838 63.035 110.838 63.3286V66.9985C110.838 67.1431 110.81 67.2864 110.754 67.4198C110.698 67.5533 110.616 67.6743 110.513 67.7759C110.41 67.8775 110.287 67.9576 110.153 68.0116C110.019 68.0656 109.875 68.0923 109.73 68.0903H99.8905C99.5992 68.0943 99.3211 68.2127 99.1165 68.4199C98.9119 68.6271 98.7972 68.9064 98.7972 69.1973V71.3811C98.7972 71.6706 98.9124 71.9484 99.1174 72.1531C99.3225 72.3579 99.6006 72.4729 99.8905 72.4729H110.079C110.373 72.4729 110.655 72.5896 110.863 72.7972C111.071 73.0048 111.188 73.2864 111.188 73.58V77.1588C111.184 77.4498 111.065 77.7275 110.858 77.9318C110.65 78.1362 110.371 78.2507 110.079 78.2507Z" fill="#00AAFF"/>
<path d="M138.018 78.2507H133.463C133.173 78.2507 132.895 78.1357 132.69 77.9309C132.485 77.7261 132.37 77.4484 132.37 77.1588V68.9547C132.37 68.6611 132.253 68.3795 132.045 68.1719C131.837 67.9643 131.555 67.8477 131.261 67.8477H122.773C122.482 67.8517 122.204 67.9701 121.999 68.1772C121.795 68.3844 121.68 68.6637 121.68 68.9547V77.1588C121.676 77.4498 121.557 77.7275 121.35 77.9318C121.142 78.1362 120.863 78.2507 120.571 78.2507H116.153C115.863 78.2507 115.585 78.1357 115.38 77.9309C115.175 77.7261 115.059 77.4484 115.059 77.1588V53.4715C115.059 53.1805 115.174 52.9012 115.379 52.6941C115.583 52.4869 115.861 52.3685 116.153 52.3645H120.708C121.002 52.3645 121.284 52.4811 121.492 52.6887C121.7 52.8964 121.817 53.1779 121.817 53.4715V60.9326C121.816 61.2236 121.931 61.5029 122.136 61.71C122.34 61.9172 122.618 62.0356 122.91 62.0396H131.337C131.631 62.0396 131.913 61.923 132.121 61.7154C132.329 61.5078 132.446 61.2262 132.446 60.9326V53.4715C132.446 53.1805 132.56 52.9012 132.765 52.6941C132.969 52.4869 133.248 52.3685 133.539 52.3645H138.094C138.388 52.3645 138.67 52.4811 138.878 52.6887C139.086 52.8964 139.203 53.1779 139.203 53.4715V77.1588C139.201 77.3095 139.168 77.4583 139.107 77.596C139.046 77.7337 138.957 77.8575 138.846 77.9597C138.735 78.0619 138.605 78.1405 138.462 78.1905C138.32 78.2405 138.169 78.261 138.018 78.2507Z" fill="#00AAFF"/>
<path d="M149.65 78.2507H144.882C144.592 78.2507 144.314 78.1357 144.109 77.9309C143.904 77.7261 143.788 77.4484 143.788 77.1588V53.4715C143.788 53.1805 143.903 52.9012 144.108 52.6941C144.312 52.4869 144.59 52.3685 144.882 52.3645H149.437C149.583 52.3645 149.727 52.3931 149.861 52.4488C149.996 52.5044 150.118 52.5859 150.221 52.6887C150.324 52.7915 150.405 52.9136 150.461 53.0479C150.517 53.1822 150.545 53.3262 150.545 53.4715V64.0868C150.549 64.3192 150.625 64.5447 150.763 64.7314C150.902 64.9181 151.096 65.0564 151.318 65.1269C151.539 65.1974 151.778 65.1963 151.999 65.124C152.22 65.0516 152.413 64.9116 152.55 64.7238L160.704 52.8649C160.804 52.7154 160.939 52.5928 161.098 52.5081C161.257 52.4235 161.435 52.3793 161.615 52.3797H166.853C167.145 52.3837 167.423 52.502 167.627 52.7092C167.832 52.9164 167.947 53.1957 167.947 53.4867V77.1588C167.947 77.4484 167.832 77.7261 167.627 77.9309C167.422 78.1357 167.143 78.2507 166.853 78.2507H162.298C162.007 78.2507 161.727 78.1362 161.52 77.9318C161.312 77.7275 161.194 77.4498 161.19 77.1588V65.8308C161.194 65.5947 161.121 65.3636 160.982 65.1723C160.844 64.981 160.647 64.8397 160.421 64.7696C160.195 64.6996 159.953 64.7045 159.73 64.7838C159.507 64.863 159.316 65.0122 159.185 65.209L150.561 77.7654C150.461 77.915 150.325 78.0376 150.166 78.1222C150.007 78.2069 149.83 78.251 149.65 78.2507Z" fill="#00AAFF"/>
<path d="M178.409 78.2506H173.322C173.13 78.2504 172.941 78.2003 172.774 78.1052C172.607 78.01 172.467 77.8731 172.369 77.7079C172.271 77.5427 172.218 77.3549 172.215 77.1629C172.211 76.9709 172.258 76.7813 172.35 76.6128L176.146 69.7887C176.223 69.6625 176.273 69.5219 176.294 69.3756C176.314 69.2293 176.304 69.0804 176.264 68.9381C176.224 68.7959 176.155 68.6634 176.062 68.5488C175.968 68.4343 175.852 68.3401 175.721 68.2722C174.678 67.7187 173.771 66.9419 173.064 65.9975C171.992 64.5381 171.456 62.7551 171.545 60.9476C171.519 59.8255 171.718 58.7094 172.13 57.665C172.542 56.6207 173.159 55.6692 173.945 54.8666C174.823 54.0256 175.866 53.3737 177.007 52.9511C178.149 52.5285 179.365 52.3443 180.58 52.4099H192.454C192.746 52.4139 193.024 52.5323 193.228 52.7395C193.433 52.9466 193.548 53.2259 193.548 53.5169V77.1587C193.548 77.4483 193.432 77.726 193.227 77.9308C193.022 78.1356 192.744 78.2506 192.454 78.2506H187.899C187.609 78.2506 187.331 78.1356 187.126 77.9308C186.921 77.726 186.806 77.4483 186.806 77.1587V70.6531C186.802 70.3621 186.683 70.0844 186.476 69.8801C186.268 69.6757 185.989 69.5612 185.697 69.5612H184.057C183.853 69.5648 183.654 69.623 183.481 69.7297C183.307 69.8364 183.165 69.9877 183.07 70.1678L179.396 77.6137C179.311 77.8038 179.172 77.9652 178.997 78.0782C178.822 78.1913 178.617 78.2512 178.409 78.2506ZM181.552 63.738H185.728C186.019 63.738 186.299 63.6234 186.506 63.4191C186.714 63.2148 186.832 62.9371 186.836 62.6461V59.2947C186.836 59.0011 186.719 58.7195 186.511 58.5119C186.304 58.3043 186.022 58.1877 185.728 58.1877H181.552C180.729 58.1632 179.924 58.426 179.274 58.9307C178.985 59.1754 178.757 59.4833 178.607 59.8305C178.457 60.1777 178.389 60.5548 178.409 60.9325C178.39 61.3233 178.462 61.7132 178.62 62.0712C178.778 62.4292 179.018 62.7455 179.32 62.9949C179.957 63.4896 180.745 63.7518 181.552 63.738Z" fill="#00AAFF"/>
</svg>
