<svg width="42" height="42" viewBox="0 0 42 42" fill="none" xmlns="http://www.w3.org/2000/svg">
<path d="M20.792 7.78214C18.8513 9.14707 16.6518 10.6942 15.4733 13.2537C13.4263 17.7189 19.662 22.5898 19.9284 22.795C19.9904 22.8427 20.0645 22.8664 20.1384 22.8664C20.2169 22.8664 20.2956 22.8396 20.3595 22.7861C20.4833 22.6826 20.5184 22.5067 20.444 22.3635C20.4214 22.32 18.1832 17.9724 18.2663 14.8533C18.2958 13.7671 19.8161 12.5347 21.4256 11.23C22.8997 10.035 24.5706 8.68053 25.5483 7.0961C27.6946 3.60846 25.3091 0.179068 25.2847 0.144917C25.19 0.0118946 25.0151 -0.0364396 24.8656 0.0292454C24.7162 0.0950681 24.6334 0.256733 24.6675 0.416333C24.6724 0.438916 25.1363 2.70677 23.8454 5.0432C23.3135 6.00865 22.1451 6.83061 20.792 7.78214Z" fill="#00AAFF"/>
<path d="M28.9682 9.32023C29.1051 9.21709 29.1453 9.02899 29.0624 8.87889C28.9795 8.72879 28.7989 8.66256 28.6387 8.72342C28.309 8.84873 20.5655 11.8335 20.5655 15.4401C20.5655 17.9261 21.6274 19.2395 22.4029 20.1986C22.707 20.5747 22.9696 20.8995 23.0561 21.1769C23.2997 21.9761 22.7226 23.4206 22.48 23.9097C22.41 24.0505 22.4443 24.2208 22.5633 24.3235C22.6276 24.379 22.7079 24.4071 22.7883 24.4071C22.8567 24.4071 22.9254 24.3868 22.9848 24.3454C23.1179 24.2528 26.2387 22.0463 25.679 19.3879C25.4705 18.3776 24.9739 17.6392 24.5358 16.9878C23.857 15.9785 23.3668 15.2494 24.1105 13.9028C24.9822 12.3324 28.9284 9.35011 28.9682 9.32023Z" fill="#00AAFF"/>
<path d="M8.8117 24.4645C8.67895 24.8618 8.74161 25.2563 8.99278 25.6051C9.83223 26.7704 12.8055 27.4122 17.3655 27.4122C17.3658 27.4122 17.3659 27.4122 17.366 27.4122C17.9839 27.4122 18.6362 27.4001 19.3044 27.3761C26.5949 27.1151 29.299 24.8439 29.4105 24.7474C29.5321 24.6422 29.5646 24.4669 29.489 24.325C29.4134 24.1833 29.2503 24.1121 29.0946 24.155C26.5271 24.856 21.7325 25.1049 18.4069 25.1049C14.6858 25.1049 12.7907 24.8369 12.3267 24.639C12.5648 24.3121 14.0332 23.7284 15.8527 23.3705C16.0266 23.3363 16.1461 23.1758 16.1289 22.9994C16.1117 22.823 15.9635 22.6884 15.7863 22.6884C14.7196 22.6886 9.37078 22.7742 8.8117 24.4645Z" fill="#00AAFF"/>
<path d="M33.2071 22.1254C31.7034 22.1254 30.2775 22.8789 30.2174 22.911C30.0784 22.9855 30.0078 23.145 30.046 23.2981C30.0843 23.4511 30.2218 23.5587 30.3797 23.5588C30.4116 23.5589 33.5872 23.5848 33.8749 25.3992C34.1296 26.9645 30.8702 29.5007 29.5927 30.346C29.4547 30.4373 29.4011 30.6138 29.4652 30.7662C29.5195 30.8961 29.6461 30.9773 29.7824 30.9773C29.8062 30.9773 29.8303 30.9749 29.8543 30.9696C30.1575 30.9049 37.2704 29.3376 36.5184 25.1961C36.0595 22.6581 34.4644 22.1254 33.2071 22.1254Z" fill="#00AAFF"/>
<path d="M28.3292 29.8392C28.354 29.7064 28.2988 29.5715 28.1884 29.4941L26.4829 28.2995C26.3997 28.2413 26.2947 28.2229 26.197 28.2488C26.1793 28.2535 24.3957 28.7223 21.8063 29.0098C20.7786 29.125 19.6276 29.1859 18.4773 29.1859C15.8886 29.1859 14.1959 28.8817 13.9494 28.6586C13.9168 28.596 13.9271 28.5675 13.9329 28.5516C13.9777 28.427 14.2177 28.279 14.3725 28.2205C14.5434 28.1573 14.6355 27.9716 14.5823 27.7973C14.5293 27.623 14.3496 27.5202 14.1723 27.5629C12.4614 27.9758 11.6249 28.5532 11.6857 29.2789C11.7938 30.5654 14.7742 31.2259 17.2937 31.4006C17.656 31.4254 18.0479 31.4381 18.4582 31.4381C18.4584 31.4381 18.4586 31.4381 18.4589 31.4381C22.6485 31.4381 28.0195 30.1235 28.0732 30.1102C28.2043 30.0778 28.3043 29.9719 28.3292 29.8392Z" fill="#00AAFF"/>
<path d="M15.4712 32.6008C15.6004 32.5167 15.6577 32.3571 15.6118 32.21C15.5661 32.063 15.4286 31.9664 15.274 31.9684C15.0448 31.9744 13.0306 32.0653 12.8896 33.3477C12.8469 33.731 12.9566 34.081 13.2159 34.3882C13.9391 35.2453 15.8912 35.7547 19.1829 35.9457C19.5724 35.9689 19.9678 35.9806 20.3588 35.9806C24.5436 35.9806 27.362 34.6704 27.48 34.6146C27.5945 34.5605 27.6699 34.4481 27.6767 34.3217C27.6834 34.1954 27.6204 34.0755 27.5124 34.0095L25.357 32.6938C25.2823 32.6482 25.1928 32.6331 25.1074 32.6505C25.0938 32.6534 23.7252 32.9372 21.66 33.2177C21.2691 33.2708 20.7797 33.2978 20.2055 33.2978C18.1424 33.2978 15.8477 32.9607 15.4076 32.74C15.4013 32.6986 15.4094 32.6463 15.4712 32.6008Z" fill="#00AAFF"/>
<path d="M18.4085 39.9368C27.9941 39.9287 33.1388 38.2241 34.1299 37.1514C34.4808 36.7717 34.5186 36.4124 34.4888 36.1778C34.4151 35.6003 33.8892 35.2468 33.8294 35.2083C33.6855 35.1158 33.4925 35.14 33.3802 35.2695C33.2683 35.3991 33.2657 35.5881 33.378 35.7174C33.4385 35.7952 33.4735 35.9254 33.2967 36.1023C32.9005 36.4723 28.9043 37.5956 22.2507 37.933C21.3392 37.9805 20.3833 38.0044 19.4094 38.0046C13.4521 38.0046 9.0922 37.1887 8.5199 36.713C8.74064 36.3962 10.2827 35.8897 11.9227 35.6034C12.1075 35.5712 12.2324 35.397 12.2038 35.2117C12.1751 35.0263 12.0042 34.8987 11.8175 34.923C11.7712 34.9292 11.6144 34.9389 11.4325 34.9499C8.72646 35.1151 5.59933 35.4835 5.43615 36.8776C5.38658 37.3026 5.51285 37.6881 5.81153 38.0239C6.54233 38.845 8.64301 39.9367 18.408 39.9367C18.4083 39.9368 18.4083 39.9368 18.4085 39.9368Z" fill="#00AAFF"/>
<path d="M36.0127 37.4536C35.8772 37.391 35.7172 37.4226 35.616 37.5317C35.6018 37.5468 34.1608 39.0539 29.8276 39.9388C28.1687 40.2712 25.0548 40.4397 20.5724 40.4397C16.0815 40.4397 11.8084 40.2631 11.7657 40.2613C11.5873 40.2526 11.4346 40.3823 11.4103 40.558C11.3859 40.7337 11.4991 40.8991 11.6715 40.9401C11.716 40.9508 16.1943 41.9999 22.3175 41.9999C25.2543 41.9999 28.1121 41.7613 30.8116 41.2906C35.8452 40.4082 36.1975 37.9123 36.2101 37.8066C36.2276 37.6587 36.148 37.5163 36.0127 37.4536Z" fill="#00AAFF"/>
</svg>
