<svg width="42" height="42" viewBox="0 0 42 42" fill="none" xmlns="http://www.w3.org/2000/svg">
<g clip-path="url(#clip0)">
<path d="M40.7695 19.7694H40.0229V19.6819C40.0229 16.6093 38.2961 14.1406 36.0463 12.8746C37.2707 11.8027 38.0462 10.2304 38.0462 8.47919C38.0462 5.25722 35.4247 2.63574 32.2027 2.63574C28.9807 2.63574 26.3593 5.25722 26.3593 8.47919C26.3593 10.2304 27.1347 11.8027 28.3588 12.8746C26.1039 14.1429 24.3825 16.6176 24.3825 19.6819V19.7694H13.4951C12.3649 18.9417 10.973 18.4514 9.46788 18.4514C5.70085 18.4514 2.63589 21.5161 2.63589 25.2834C2.63589 27.5024 3.70006 29.4773 5.34453 30.726C2.17447 32.35 0 35.6517 0 39.4514V40.7694C0 41.449 0.550827 41.9998 1.23047 41.9998H18.3641C19.0437 41.9998 19.5946 41.449 19.5946 40.7694V39.4514C19.5946 38.5068 19.4597 37.5929 19.2091 36.7281H39.5391V38.1335C39.5391 38.8128 40.0899 39.364 40.7695 39.364C41.4492 39.364 42 38.8128 42 38.1335V20.9998C42 20.3202 41.4492 19.7694 40.7695 19.7694ZM28.8202 8.47919C28.8202 6.61426 30.3375 5.09668 32.2027 5.09668C34.0676 5.09668 35.5852 6.61426 35.5852 8.47919C35.5852 10.3441 34.068 11.8617 32.2027 11.8617C30.3378 11.8617 28.8202 10.3441 28.8202 8.47919ZM26.8434 19.6819C26.8434 16.6753 29.2912 14.3226 32.2027 14.3226C35.1059 14.3226 37.562 16.6666 37.562 19.6819V19.7694H26.8434V19.6819ZM9.46788 20.9124C11.8779 20.9124 13.8386 22.8731 13.8386 25.2834C13.8386 27.6934 11.8779 29.6541 9.46788 29.6541C7.05757 29.6541 5.09683 27.6934 5.09683 25.2834C5.09683 22.8731 7.05757 20.9124 9.46788 20.9124ZM17.1336 39.5389H2.46094V39.4514C2.46094 35.4063 5.75212 32.1151 9.79729 32.1151C13.8425 32.1151 17.1336 35.4063 17.1336 39.4514V39.5389ZM13.8402 30.5276C15.3421 29.2735 16.2995 27.3884 16.2995 25.2834C16.2995 24.1862 16.0384 23.15 15.577 22.2303H39.5391V34.2671H18.1068C17.0869 32.6387 15.6026 31.3294 13.8402 30.5276Z" fill="#00AAFF"/>
<path d="M4.5255 16.2995H22.3179C23.2985 16.2995 23.8865 15.2037 23.3417 14.3866L20.9125 10.7429V4.5255C20.9125 2.04501 18.9114 0 16.387 0H4.5255C2.01457 0 0 2.03252 0 4.5255V11.7744C0 14.2616 2.0072 16.2995 4.5255 16.2995ZM2.46094 4.5255C2.46094 3.39917 3.36713 2.46094 4.5255 2.46094H16.387C17.5339 2.46094 18.4516 3.38379 18.4516 4.5255V11.1152C18.4516 11.3581 18.5234 11.5956 18.6583 11.7978L20.0188 13.8386H4.5255C3.37866 13.8386 2.46094 12.9158 2.46094 11.774V4.5255Z" fill="#00AAFF"/>
<path d="M6.50226 7.07373H14.4103C15.0896 7.07373 15.6407 6.52258 15.6407 5.84326C15.6407 5.16362 15.0896 4.61279 14.4103 4.61279H6.50226C5.82294 4.61279 5.27179 5.16362 5.27179 5.84326C5.27179 6.52258 5.82262 7.07373 6.50226 7.07373Z" fill="#00AAFF"/>
<path d="M6.50226 11.687H10.4564C11.1357 11.687 11.6869 11.1359 11.6869 10.4565C11.6869 9.7769 11.1357 9.22607 10.4564 9.22607H6.50226C5.82294 9.22607 5.27179 9.7769 5.27179 10.4565C5.27179 11.1359 5.82262 11.687 6.50226 11.687Z" fill="#00AAFF"/>
</g>
<defs>
<clipPath id="clip0">
<rect width="42" height="42" fill="white"/>
</clipPath>
</defs>
</svg>
