<svg width="42" height="42" viewBox="0 0 42 42" fill="none" xmlns="http://www.w3.org/2000/svg">
<path d="M38.3086 14.8486H36.2137L24.4597 4.9788C24.6093 4.57799 24.6914 4.1447 24.6914 3.69238C24.6914 1.65694 23.0354 0.000976562 21 0.000976562C18.9646 0.000976562 17.3086 1.65694 17.3086 3.69238C17.3086 4.14462 17.3907 4.57799 17.5402 4.97872L5.78624 14.8486H3.69141C1.65596 14.8486 0 16.5046 0 18.54V31.7847C0 33.1919 0.781922 34.4571 2.04053 35.0865C2.0749 35.1036 2.11001 35.1192 2.14586 35.1331L18.8645 41.6183C18.8719 41.6212 18.8794 41.624 18.8868 41.6268C20.2497 42.1252 21.7504 42.1251 23.1131 41.6268C23.1206 41.6241 23.1281 41.6213 23.1354 41.6183L39.8541 35.1331C39.8899 35.1192 39.9249 35.1036 39.9593 35.0865C41.2181 34.4571 42 33.192 42 31.7847V18.54C42 16.5046 40.344 14.8486 38.3086 14.8486ZM21 2.46191C21.6785 2.46191 22.2305 3.0139 22.2305 3.69238C22.2305 4.37086 21.6785 4.92285 21 4.92285C20.3215 4.92285 19.7695 4.37086 19.7695 3.69238C19.7695 3.0139 20.3215 2.46191 21 2.46191ZM19.1188 6.86675C19.6701 7.19471 20.3132 7.38379 21 7.38379C21.6868 7.38379 22.3299 7.19471 22.8811 6.86675L32.3868 14.8486H9.61316L19.1188 6.86675ZM39.5391 31.7847C39.5391 32.2378 39.2959 32.6466 38.9014 32.8631L22.2576 39.3193C21.4462 39.6133 20.5538 39.6133 19.7425 39.3193L3.09865 32.8631C2.70408 32.6466 2.46094 32.2378 2.46094 31.7847V18.54C2.46094 17.8616 3.01293 17.3096 3.69141 17.3096H6.23438H35.7656H38.3086C38.9871 17.3096 39.5391 17.8616 39.5391 18.54V31.7847Z" fill="#00AAFF"/>
</svg>
