<svg width="520" height="319" viewBox="0 0 520 319" fill="none" xmlns="http://www.w3.org/2000/svg">
<rect width="520" height="318.182" fill="#F9F9F9"/>
<path d="M259.091 0L259.091 220" stroke="#DFDFDF" stroke-width="15"/>
<path d="M86.3636 0.90918V318.182" stroke="#DFDFDF" stroke-width="15"/>
<path d="M427.273 0V318.182" stroke="#DFDFDF" stroke-width="15"/>
<path d="M443.636 0V318.182" stroke="#DFDFDF" stroke-width="15"/>
<path d="M0 220L520 220" stroke="#DFDFDF" stroke-width="15"/>
<circle cx="223.818" cy="192.818" r="7.31812" fill="white" fill-opacity="0.5" stroke="#FFCD10" stroke-width="3"/>
<circle cx="224" cy="193" r="4" fill="#FFCD10"/>
<g clip-path="url(#clip0)">
<path d="M254.739 194.639L254.759 194.643H246.242L248.92 191.96C249.051 191.829 249.123 191.651 249.123 191.465C249.123 191.279 249.051 191.103 248.92 190.971L248.503 190.555C248.372 190.424 248.198 190.351 248.011 190.351C247.825 190.351 247.651 190.423 247.52 190.554L242.93 195.143C242.799 195.274 242.727 195.45 242.727 195.636C242.727 195.823 242.799 195.999 242.93 196.13L247.52 200.719C247.651 200.85 247.825 200.922 248.011 200.922C248.198 200.922 248.372 200.85 248.503 200.719L248.92 200.303C249.051 200.172 249.123 199.997 249.123 199.811C249.123 199.625 249.051 199.459 248.92 199.328L246.212 196.63H254.749C255.132 196.63 255.455 196.3 255.455 195.916V195.327C255.455 194.943 255.123 194.639 254.739 194.639Z" fill="#555555"/>
</g>
<path d="M163.602 171.031H158.836L157.766 174H156.219L160.562 162.625H161.875L166.227 174H164.688L163.602 171.031ZM159.289 169.797H163.156L161.219 164.477L159.289 169.797ZM171.242 166.031C172.305 166.031 173.154 166.388 173.789 167.102C174.43 167.81 174.75 168.745 174.75 169.906V170.039C174.75 170.836 174.596 171.549 174.289 172.18C173.982 172.805 173.539 173.292 172.961 173.641C172.388 173.984 171.727 174.156 170.977 174.156C169.841 174.156 168.927 173.779 168.234 173.023C167.542 172.263 167.195 171.245 167.195 169.969V169.266C167.195 167.49 167.523 166.078 168.18 165.031C168.841 163.984 169.815 163.346 171.102 163.117C171.831 162.987 172.323 162.828 172.578 162.641C172.833 162.453 172.961 162.195 172.961 161.867H174.148C174.148 162.518 174 163.026 173.703 163.391C173.411 163.755 172.943 164.013 172.297 164.164L171.219 164.406C170.359 164.609 169.714 164.953 169.281 165.438C168.854 165.917 168.576 166.557 168.445 167.359C169.211 166.474 170.143 166.031 171.242 166.031ZM170.961 167.219C170.253 167.219 169.69 167.458 169.273 167.938C168.857 168.411 168.648 169.07 168.648 169.914V170.039C168.648 170.945 168.857 171.664 169.273 172.195C169.695 172.721 170.263 172.984 170.977 172.984C171.695 172.984 172.263 172.719 172.68 172.188C173.096 171.656 173.305 170.88 173.305 169.859C173.305 169.062 173.094 168.424 172.672 167.945C172.255 167.461 171.685 167.219 170.961 167.219ZM181.594 174C181.51 173.833 181.443 173.536 181.391 173.109C180.719 173.807 179.917 174.156 178.984 174.156C178.151 174.156 177.466 173.922 176.93 173.453C176.398 172.979 176.133 172.38 176.133 171.656C176.133 170.776 176.466 170.094 177.133 169.609C177.805 169.12 178.747 168.875 179.961 168.875H181.367V168.211C181.367 167.706 181.216 167.305 180.914 167.008C180.612 166.706 180.167 166.555 179.578 166.555C179.062 166.555 178.63 166.685 178.281 166.945C177.932 167.206 177.758 167.521 177.758 167.891H176.305C176.305 167.469 176.453 167.062 176.75 166.672C177.052 166.276 177.458 165.964 177.969 165.734C178.484 165.505 179.049 165.391 179.664 165.391C180.638 165.391 181.401 165.635 181.953 166.125C182.505 166.609 182.792 167.279 182.812 168.133V172.023C182.812 172.799 182.911 173.417 183.109 173.875V174H181.594ZM179.195 172.898C179.648 172.898 180.078 172.781 180.484 172.547C180.891 172.312 181.185 172.008 181.367 171.633V169.898H180.234C178.464 169.898 177.578 170.417 177.578 171.453C177.578 171.906 177.729 172.26 178.031 172.516C178.333 172.771 178.721 172.898 179.195 172.898ZM191.539 165.547V174H190.086V170.711H187.906L185.914 174H184.352L186.477 170.492C185.935 170.294 185.518 169.99 185.227 169.578C184.94 169.161 184.797 168.677 184.797 168.125C184.797 167.354 185.086 166.734 185.664 166.266C186.242 165.792 187.016 165.552 187.984 165.547H191.539ZM186.25 168.141C186.25 168.552 186.391 168.885 186.672 169.141C186.953 169.391 187.326 169.518 187.789 169.523H190.086V166.719H188.008C187.471 166.719 187.044 166.852 186.727 167.117C186.409 167.378 186.25 167.719 186.25 168.141ZM202.43 174H200.977V164.367L198.062 165.438V164.125L202.203 162.57H202.43V174ZM207.328 168.297L207.906 162.625H213.734V163.961H209.133L208.789 167.062C209.346 166.734 209.979 166.57 210.688 166.57C211.724 166.57 212.547 166.914 213.156 167.602C213.766 168.284 214.07 169.208 214.07 170.375C214.07 171.547 213.753 172.471 213.117 173.148C212.487 173.82 211.604 174.156 210.469 174.156C209.464 174.156 208.643 173.878 208.008 173.32C207.372 172.763 207.01 171.992 206.922 171.008H208.289C208.378 171.659 208.609 172.151 208.984 172.484C209.359 172.812 209.854 172.977 210.469 172.977C211.141 172.977 211.667 172.747 212.047 172.289C212.432 171.831 212.625 171.198 212.625 170.391C212.625 169.63 212.417 169.021 212 168.562C211.589 168.099 211.039 167.867 210.352 167.867C209.721 167.867 209.227 168.005 208.867 168.281L208.484 168.594L207.328 168.297ZM220.398 174H218.945V164.367L216.031 165.438V164.125L220.172 162.57H220.398V174ZM224.734 176.266L223.914 175.703C224.404 175.021 224.659 174.318 224.68 173.594V172.289H226.094V173.422C226.094 173.948 225.964 174.474 225.703 175C225.448 175.526 225.125 175.948 224.734 176.266ZM236.492 174H235.039V164.367L232.125 165.438V164.125L236.266 162.57H236.492V174ZM242.828 167.609H243.914C244.596 167.599 245.133 167.419 245.523 167.07C245.914 166.721 246.109 166.25 246.109 165.656C246.109 164.323 245.445 163.656 244.117 163.656C243.492 163.656 242.992 163.836 242.617 164.195C242.247 164.549 242.062 165.021 242.062 165.609H240.617C240.617 164.708 240.945 163.961 241.602 163.367C242.263 162.768 243.102 162.469 244.117 162.469C245.19 162.469 246.031 162.753 246.641 163.32C247.25 163.888 247.555 164.677 247.555 165.688C247.555 166.182 247.393 166.661 247.07 167.125C246.753 167.589 246.318 167.935 245.766 168.164C246.391 168.362 246.872 168.69 247.211 169.148C247.555 169.607 247.727 170.167 247.727 170.828C247.727 171.849 247.393 172.659 246.727 173.258C246.06 173.857 245.193 174.156 244.125 174.156C243.057 174.156 242.188 173.867 241.516 173.289C240.849 172.711 240.516 171.948 240.516 171H241.969C241.969 171.599 242.164 172.078 242.555 172.438C242.945 172.797 243.469 172.977 244.125 172.977C244.823 172.977 245.357 172.794 245.727 172.43C246.096 172.065 246.281 171.542 246.281 170.859C246.281 170.198 246.078 169.69 245.672 169.336C245.266 168.982 244.68 168.799 243.914 168.789H242.828V167.609ZM256.797 166.578C256.281 166.578 255.833 166.742 255.453 167.07C255.078 167.398 254.891 167.786 254.891 168.234H253.516C253.516 167.75 253.669 167.286 253.977 166.844C254.284 166.401 254.693 166.049 255.203 165.789C255.714 165.523 256.245 165.391 256.797 165.391C257.896 165.391 258.784 165.789 259.461 166.586C260.143 167.378 260.484 168.414 260.484 169.695V169.938C260.484 170.729 260.328 171.453 260.016 172.109C259.708 172.76 259.273 173.266 258.711 173.625C258.154 173.979 257.516 174.156 256.797 174.156C255.859 174.156 255.078 173.865 254.453 173.281C253.828 172.698 253.516 171.971 253.516 171.102H254.891C254.891 171.633 255.076 172.081 255.445 172.445C255.815 172.805 256.266 172.984 256.797 172.984C257.417 172.984 257.927 172.745 258.328 172.266C258.729 171.786 258.961 171.128 259.023 170.289H255.852V169.102H259.008C258.935 168.341 258.703 167.732 258.312 167.273C257.922 166.81 257.417 166.578 256.797 166.578ZM268.094 166.719H265.258V174H263.812V166.719H261.031V165.547H268.094V166.719ZM274.594 174C274.51 173.833 274.443 173.536 274.391 173.109C273.719 173.807 272.917 174.156 271.984 174.156C271.151 174.156 270.466 173.922 269.93 173.453C269.398 172.979 269.133 172.38 269.133 171.656C269.133 170.776 269.466 170.094 270.133 169.609C270.805 169.12 271.747 168.875 272.961 168.875H274.367V168.211C274.367 167.706 274.216 167.305 273.914 167.008C273.612 166.706 273.167 166.555 272.578 166.555C272.062 166.555 271.63 166.685 271.281 166.945C270.932 167.206 270.758 167.521 270.758 167.891H269.305C269.305 167.469 269.453 167.062 269.75 166.672C270.052 166.276 270.458 165.964 270.969 165.734C271.484 165.505 272.049 165.391 272.664 165.391C273.638 165.391 274.401 165.635 274.953 166.125C275.505 166.609 275.792 167.279 275.812 168.133V172.023C275.812 172.799 275.911 173.417 276.109 173.875V174H274.594ZM272.195 172.898C272.648 172.898 273.078 172.781 273.484 172.547C273.891 172.312 274.185 172.008 274.367 171.633V169.898H273.234C271.464 169.898 270.578 170.417 270.578 171.453C270.578 171.906 270.729 172.26 271.031 172.516C271.333 172.771 271.721 172.898 272.195 172.898ZM284.82 170.328H283.805V174H282.359V170.328H281.344L278.977 174H277.148L280.172 169.625L277.438 165.547H279.188L281.367 169.047H282.359V165.547H283.805V169.047H284.789L286.984 165.547H288.734L285.992 169.633L289.016 174H287.188L284.82 170.328Z" fill="#555555"/>
<path d="M87.2853 131.168L91.1818 131.168L91.1818 132.481L81.2287 132.481L81.2287 128.81C81.2287 127.721 81.5067 126.869 82.0627 126.253C82.6187 125.634 83.3547 125.324 84.2707 125.324C85.2368 125.324 85.9819 125.627 86.506 126.233C87.0256 126.834 87.2853 127.698 87.2853 128.824L87.2853 131.168ZM86.2121 131.168L86.2121 128.81C86.2121 128.108 86.048 127.57 85.7199 127.197C85.3872 126.823 84.9087 126.636 84.2844 126.636C83.6919 126.636 83.2179 126.823 82.8625 127.197C82.507 127.57 82.3224 128.083 82.3088 128.735L82.3088 131.168L86.2121 131.168ZM87.4152 124.278C86.6906 124.278 86.0389 124.137 85.4601 123.854C84.8814 123.567 84.4347 123.17 84.1203 122.665C83.8058 122.154 83.6486 121.573 83.6486 120.921C83.6486 119.914 83.9972 119.101 84.6945 118.481C85.3918 117.857 86.3192 117.544 87.4767 117.544L87.5656 117.544C88.2857 117.544 88.9328 117.683 89.507 117.961C90.0767 118.235 90.521 118.629 90.84 119.144C91.159 119.654 91.3185 120.242 91.3185 120.908C91.3185 121.91 90.9699 122.724 90.2726 123.348C89.5754 123.968 88.6525 124.278 87.5041 124.278L87.4152 124.278ZM87.5656 123.006C88.3859 123.006 89.0444 122.817 89.5412 122.439C90.0379 122.056 90.2863 121.546 90.2863 120.908C90.2863 120.265 90.0357 119.755 89.5344 119.376C89.0285 118.998 88.3221 118.809 87.4152 118.809C86.604 118.809 85.9478 119.003 85.4465 119.39C84.9406 119.773 84.6877 120.283 84.6877 120.921C84.6877 121.546 84.936 122.049 85.4328 122.432C85.9295 122.815 86.6405 123.006 87.5656 123.006ZM85.8088 111.891C85.4624 111.891 85.189 112.023 84.9885 112.288C84.7834 112.552 84.6808 112.914 84.6808 113.375C84.6808 113.821 84.797 114.195 85.0295 114.496C85.2619 114.792 85.5353 114.94 85.8498 114.94L85.8498 116.198C85.2072 116.198 84.6808 115.929 84.2707 115.391C83.8605 114.853 83.6554 114.181 83.6554 113.375C83.6554 112.509 83.8423 111.834 84.216 111.351C84.5851 110.868 85.1138 110.626 85.8019 110.626C86.1346 110.626 86.44 110.727 86.7179 110.927C86.9959 111.128 87.217 111.413 87.381 111.782C87.6727 110.92 88.2469 110.49 89.1037 110.49C89.7827 110.49 90.3205 110.752 90.717 111.276C91.1135 111.8 91.3117 112.5 91.3117 113.375C91.3117 114.227 91.1043 114.931 90.6896 115.487C90.2704 116.038 89.7053 116.314 88.9943 116.314L88.9943 115.056C89.3543 115.056 89.6642 114.897 89.924 114.578C90.1792 114.254 90.3068 113.853 90.3068 113.375C90.3068 112.891 90.1952 112.502 89.9719 112.206C89.7485 111.909 89.4592 111.761 89.1037 111.761C88.689 111.761 88.3928 111.887 88.215 112.137C88.0327 112.383 87.9416 112.768 87.9416 113.292L87.9416 114.557L86.8752 114.557L86.8752 113.183C86.8524 112.322 86.4969 111.891 85.8088 111.891ZM91.1818 104.283C91.036 104.356 90.7762 104.415 90.4025 104.46C91.0132 105.048 91.3185 105.75 91.3185 106.566C91.3185 107.295 91.1135 107.894 90.7033 108.364C90.2886 108.829 89.7645 109.061 89.131 109.061C88.3609 109.061 87.7638 108.769 87.34 108.186C86.9116 107.598 86.6974 106.773 86.6974 105.711L86.6974 104.481L86.1164 104.481C85.6743 104.481 85.3234 104.613 85.0637 104.877C84.7993 105.142 84.6672 105.531 84.6672 106.046C84.6672 106.498 84.7811 106.876 85.009 107.181C85.2368 107.486 85.5125 107.639 85.8361 107.639L85.8361 108.911C85.467 108.911 85.1115 108.781 84.7697 108.521C84.4234 108.257 84.1499 107.901 83.9494 107.455C83.7489 107.003 83.6486 106.509 83.6486 105.971C83.6486 105.119 83.8628 104.451 84.2912 103.968C84.715 103.485 85.3006 103.235 86.048 103.216L89.4523 103.216C90.1314 103.216 90.6714 103.13 91.0724 102.957L91.1818 102.957L91.1818 104.283ZM90.2179 106.381C90.2179 105.985 90.1154 105.609 89.9103 105.253C89.7053 104.898 89.4387 104.64 89.1105 104.481L87.5929 104.481L87.5929 105.472C87.5929 107.022 88.0464 107.796 88.9533 107.796C89.3498 107.796 89.6597 107.664 89.883 107.4C90.1063 107.136 90.2179 106.796 90.2179 106.381ZM84.2092 97.9868C84.2092 97.0571 84.5213 96.3143 85.1457 95.7583C85.7655 95.1978 86.5835 94.9175 87.5998 94.9175L87.716 94.9175C88.4133 94.9175 89.0376 95.0519 89.589 95.3208C90.1359 95.5897 90.562 95.9771 90.8674 96.4829C91.1681 96.9842 91.3185 97.563 91.3185 98.2192C91.3185 99.2127 90.9881 100.013 90.3273 100.619C89.662 101.225 88.771 101.528 87.6545 101.528L87.0392 101.528C85.4852 101.528 84.2502 101.241 83.3342 100.667C82.4181 100.088 81.8599 99.2355 81.6594 98.1099C81.5454 97.4718 81.4064 97.0412 81.2424 96.8179C81.0783 96.5946 80.8527 96.4829 80.5656 96.4829L80.5656 95.4438C81.1353 95.4438 81.5796 95.5737 81.8986 95.8335C82.2176 96.0887 82.4432 96.4989 82.5754 97.064L82.7873 98.0073C82.965 98.7593 83.2658 99.3244 83.6896 99.7026C84.1089 100.076 84.6694 100.32 85.3713 100.434C84.5965 99.7642 84.2092 98.9484 84.2092 97.9868ZM85.2482 98.2329C85.2482 98.8527 85.4579 99.3449 85.8771 99.7095C86.2918 100.074 86.8683 100.256 87.6066 100.256L87.716 100.256C88.509 100.256 89.1379 100.074 89.6027 99.7095C90.063 99.3403 90.2931 98.8436 90.2931 98.2192C90.2931 97.5903 90.0607 97.0936 89.5959 96.729C89.131 96.3644 88.452 96.1821 87.5588 96.1821C86.8615 96.1821 86.3032 96.3667 85.884 96.7358C85.4601 97.1004 85.2482 97.5994 85.2482 98.2329ZM91.1818 88.9292C91.036 89.0021 90.7762 89.0614 90.4025 89.1069C91.0132 89.6948 91.3185 90.3966 91.3185 91.2124C91.3185 91.9416 91.1135 92.5409 90.7033 93.0103C90.2886 93.4751 89.7645 93.7075 89.131 93.7075C88.3609 93.7075 87.7638 93.4159 87.34 92.8325C86.9116 92.2446 86.6974 91.4198 86.6974 90.3579L86.6974 89.1274L86.1164 89.1274C85.6743 89.1274 85.3234 89.2596 85.0637 89.5239C84.7993 89.7882 84.6672 90.1779 84.6672 90.6929C84.6672 91.144 84.7811 91.5223 85.009 91.8276C85.2368 92.133 85.5125 92.2856 85.8361 92.2856L85.8361 93.5571C85.467 93.5571 85.1115 93.4272 84.7697 93.1675C84.4234 92.9032 84.1499 92.5477 83.9494 92.1011C83.7489 91.6499 83.6486 91.1554 83.6486 90.6177C83.6486 89.7655 83.8628 89.0978 84.2912 88.6147C84.715 88.1317 85.3006 87.881 86.048 87.8628L89.4523 87.8628C90.1314 87.8628 90.6714 87.7762 91.0724 87.603L91.1818 87.603L91.1818 88.9292ZM90.2179 91.0278C90.2179 90.6313 90.1154 90.2554 89.9103 89.8999C89.7053 89.5444 89.4387 89.2869 89.1105 89.1274L87.5929 89.1274L87.5929 90.1187C87.5929 91.6681 88.0464 92.4429 88.9533 92.4429C89.3498 92.4429 89.6597 92.3107 89.883 92.0464C90.1063 91.7821 90.2179 91.4425 90.2179 91.0278ZM88.0304 83.5767L88.0304 84.4995L91.1818 84.4995L91.1818 85.771L83.7853 85.771L83.7853 84.4995L86.9162 84.4995L86.9162 83.6724L83.7853 81.1841L83.7853 79.6528L87.34 82.5786L91.1818 79.4067L91.1818 81.0132L88.0304 83.5767ZM83.7853 73.5347L83.7853 72.27L91.1818 72.27L91.1818 73.5347L85.7883 73.5347L91.1818 76.9458L91.1818 78.2104L83.7853 78.2104L83.7853 76.9458L89.1857 76.9458L83.7853 73.5347ZM91.3185 67.1704C91.3185 68.173 90.9904 68.9888 90.3342 69.6177C89.6733 70.2466 88.7915 70.561 87.6886 70.561L87.4562 70.561C86.7225 70.561 86.0685 70.422 85.4943 70.144C84.9155 69.8615 84.4644 69.4696 84.1408 68.9683C83.8127 68.4624 83.6486 67.9155 83.6486 67.3276C83.6486 66.366 83.9653 65.6187 84.5988 65.0854C85.2323 64.5522 86.1392 64.2856 87.3195 64.2856L87.8459 64.2856L87.8459 69.2964C88.575 69.2782 89.1652 69.0662 89.6164 68.6606C90.063 68.2505 90.2863 67.731 90.2863 67.1021C90.2863 66.6554 90.1952 66.2772 90.0129 65.9673C89.8306 65.6574 89.589 65.3862 89.2883 65.1538L89.8898 64.3813C90.8423 65.0011 91.3185 65.9308 91.3185 67.1704ZM84.6877 67.3276C84.6877 67.8381 84.8745 68.2664 85.2482 68.6128C85.6174 68.9591 86.1369 69.1733 86.8068 69.2554L86.8068 65.5503L86.7111 65.5503C86.0685 65.5868 85.5718 65.7599 85.2209 66.0698C84.8654 66.3797 84.6877 66.799 84.6877 67.3276ZM91.1818 62.6997L83.7853 62.6997L83.7853 59.8149C83.7853 58.8306 83.9585 58.0763 84.3049 57.5522C84.6467 57.0236 85.1502 56.7593 85.8156 56.7593C86.1574 56.7593 86.4673 56.8618 86.7453 57.0669C87.0187 57.272 87.2284 57.575 87.3742 57.9761C87.479 57.5295 87.6841 57.1717 87.9894 56.9028C88.2948 56.6294 88.6594 56.4927 89.0832 56.4927C89.7622 56.4927 90.2817 56.7433 90.6418 57.2446C91.0018 57.7414 91.1818 58.4455 91.1818 59.3569L91.1818 62.6997ZM87.9347 61.4351L90.1633 61.4351L90.1633 59.3433C90.1633 58.8146 90.0653 58.4204 89.8693 58.1606C89.6733 57.8963 89.3976 57.7642 89.0422 57.7642C88.3039 57.7642 87.9347 58.3065 87.9347 59.3911L87.9347 61.4351ZM86.923 61.4351L86.923 59.8013C86.923 58.6164 86.5767 58.0239 85.884 58.0239C85.1913 58.0239 84.8335 58.5845 84.8107 59.7056L84.8107 61.4351L86.923 61.4351ZM91.1818 50.2515C91.036 50.3244 90.7762 50.3836 90.4025 50.4292C91.0132 51.0171 91.3185 51.7189 91.3185 52.5347C91.3185 53.2638 91.1135 53.8631 90.7033 54.3325C90.2886 54.7974 89.7645 55.0298 89.131 55.0298C88.3608 55.0298 87.7638 54.7381 87.34 54.1548C86.9116 53.5669 86.6974 52.742 86.6974 51.6802L86.6974 50.4497L86.1164 50.4497C85.6743 50.4497 85.3234 50.5819 85.0636 50.8462C84.7993 51.1105 84.6672 51.5002 84.6672 52.0151C84.6672 52.4663 84.7811 52.8446 85.009 53.1499C85.2368 53.4552 85.5125 53.6079 85.8361 53.6079L85.8361 54.8794C85.467 54.8794 85.1115 54.7495 84.7697 54.4897C84.4233 54.2254 84.1499 53.87 83.9494 53.4233C83.7489 52.9722 83.6486 52.4777 83.6486 51.9399C83.6486 51.0877 83.8628 50.4201 84.2912 49.937C84.715 49.4539 85.3006 49.2033 86.048 49.1851L89.4523 49.1851C90.1314 49.1851 90.6714 49.0985 91.0724 48.9253L91.1818 48.9253L91.1818 50.2515ZM90.2179 52.3501C90.2179 51.9536 90.1154 51.5776 89.9103 51.2222C89.7052 50.8667 89.4386 50.6092 89.1105 50.4497L87.5929 50.4497L87.5929 51.4409C87.5929 52.9904 88.0464 53.7651 88.9533 53.7651C89.3498 53.7651 89.6597 53.633 89.883 53.3687C90.1063 53.1043 90.2179 52.7648 90.2179 52.3501Z" fill="#555555"/>
<path d="M260.013 122.078L263.909 122.078L263.909 123.39L253.956 123.39L253.956 119.719C253.956 118.63 254.234 117.778 254.79 117.163C255.346 116.543 256.082 116.233 256.998 116.233C257.964 116.233 258.709 116.536 259.233 117.142C259.753 117.744 260.013 118.607 260.013 119.733L260.013 122.078ZM258.939 122.078L258.939 119.719C258.939 119.017 258.775 118.48 258.447 118.106C258.114 117.732 257.636 117.545 257.012 117.545C256.419 117.545 255.945 117.732 255.59 118.106C255.234 118.48 255.05 118.992 255.036 119.644L255.036 122.078L258.939 122.078ZM263.909 110.272C263.763 110.345 263.503 110.404 263.13 110.45C263.74 111.038 264.046 111.739 264.046 112.555C264.046 113.284 263.841 113.884 263.431 114.353C263.016 114.818 262.492 115.05 261.858 115.05C261.088 115.05 260.491 114.759 260.067 114.175C259.639 113.587 259.425 112.763 259.425 111.701L259.425 110.47L258.844 110.47C258.402 110.47 258.051 110.602 257.791 110.867C257.527 111.131 257.394 111.521 257.394 112.036C257.394 112.487 257.508 112.865 257.736 113.17C257.964 113.476 258.24 113.628 258.563 113.628L258.563 114.9C258.194 114.9 257.839 114.77 257.497 114.51C257.151 114.246 256.877 113.89 256.677 113.444C256.476 112.993 256.376 112.498 256.376 111.96C256.376 111.108 256.59 110.441 257.018 109.958C257.442 109.474 258.028 109.224 258.775 109.206L262.18 109.206C262.859 109.206 263.399 109.119 263.8 108.946L263.909 108.946L263.909 110.272ZM262.945 112.371C262.945 111.974 262.843 111.598 262.638 111.243C262.433 110.887 262.166 110.63 261.838 110.47L260.32 110.47L260.32 111.461C260.32 113.011 260.774 113.786 261.681 113.786C262.077 113.786 262.387 113.653 262.61 113.389C262.834 113.125 262.945 112.785 262.945 112.371ZM262.877 107.285L262.337 106.847C261.699 106.355 260.742 106.075 259.466 106.006L256.513 105.89L256.513 101.125L262.877 101.125L262.877 100.175L266.083 100.175L266.083 101.44L263.909 101.44L263.909 106.601L266.083 106.601L266.083 107.866L262.877 107.859L262.877 107.285ZM262.877 105.788L262.877 102.39L257.682 102.39L257.682 104.667L259.445 104.742C260.917 104.819 262.061 105.168 262.877 105.788ZM260.142 99.1089C259.418 99.1089 258.766 98.9676 258.187 98.6851C257.609 98.3979 257.162 98.0015 256.848 97.4956C256.533 96.9852 256.376 96.4041 256.376 95.7524C256.376 94.7453 256.725 93.9318 257.422 93.312C258.119 92.6877 259.046 92.3755 260.204 92.3755L260.293 92.3755C261.013 92.3755 261.66 92.5145 262.234 92.7925C262.804 93.0659 263.248 93.4601 263.567 93.9751C263.886 94.4855 264.046 95.0734 264.046 95.7388C264.046 96.7414 263.697 97.5548 263 98.1792C262.303 98.799 261.38 99.1089 260.231 99.1089L260.142 99.1089ZM260.293 97.8374C261.113 97.8374 261.772 97.6483 262.268 97.27C262.765 96.8872 263.014 96.3768 263.014 95.7388C263.014 95.0962 262.763 94.5858 262.262 94.2075C261.756 93.8293 261.049 93.6401 260.142 93.6401C259.331 93.6401 258.675 93.8338 258.174 94.2212C257.668 94.604 257.415 95.1144 257.415 95.7524C257.415 96.3768 257.663 96.8804 258.16 97.2632C258.657 97.646 259.368 97.8374 260.293 97.8374ZM263.014 87.8228C263.014 87.3716 262.877 86.9774 262.603 86.6401C262.33 86.3029 261.988 86.116 261.578 86.0796L261.578 84.8833C262.002 84.9061 262.405 85.0519 262.788 85.3208C263.171 85.5897 263.476 85.9497 263.704 86.4009C263.932 86.8475 264.046 87.3215 264.046 87.8228C264.046 88.8299 263.711 89.632 263.041 90.229C262.366 90.8215 261.446 91.1177 260.279 91.1177L260.067 91.1177C259.347 91.1177 258.707 90.9855 258.146 90.7212C257.586 90.4569 257.151 90.0786 256.841 89.5864C256.531 89.0897 256.376 88.5041 256.376 87.8296C256.376 87.0002 256.624 86.312 257.121 85.7651C257.618 85.2137 258.263 84.9198 259.056 84.8833L259.056 86.0796C258.577 86.116 258.185 86.2983 257.88 86.6265C257.57 86.95 257.415 87.3511 257.415 87.8296C257.415 88.4722 257.647 88.9712 258.112 89.3267C258.572 89.6776 259.24 89.853 260.115 89.853L260.354 89.853C261.207 89.853 261.863 89.6776 262.323 89.3267C262.783 88.9757 263.014 88.4744 263.014 87.8228ZM257.538 77.9653L257.538 80.4468L263.909 80.4468L263.909 81.7114L257.538 81.7114L257.538 84.145L256.513 84.145L256.513 77.9653L257.538 77.9653ZM260.142 77.3569C259.418 77.3569 258.766 77.2157 258.187 76.9331C257.609 76.646 257.162 76.2495 256.848 75.7437C256.533 75.2332 256.376 74.6522 256.376 74.0005C256.376 72.9933 256.725 72.1799 257.422 71.5601C258.119 70.9357 259.046 70.6235 260.204 70.6235L260.293 70.6235C261.013 70.6235 261.66 70.7625 262.234 71.0405C262.804 71.314 263.248 71.7082 263.567 72.2231C263.886 72.7336 264.046 73.3215 264.046 73.9868C264.046 74.9894 263.697 75.8029 263 76.4272C262.303 77.047 261.38 77.3569 260.231 77.3569L260.142 77.3569ZM260.293 76.0854C261.113 76.0854 261.772 75.8963 262.268 75.5181C262.765 75.1353 263.014 74.6248 263.014 73.9868C263.014 73.3442 262.763 72.8338 262.262 72.4556C261.756 72.0773 261.049 71.8882 260.142 71.8882C259.331 71.8882 258.675 72.0819 258.174 72.4692C257.668 72.8521 257.415 73.3625 257.415 74.0005C257.415 74.6248 257.663 75.1284 258.16 75.5112C258.657 75.894 259.368 76.0854 260.293 76.0854ZM263.909 68.9214L256.513 68.9214L256.513 66.0366C256.513 65.0522 256.686 64.298 257.032 63.7739C257.374 63.2453 257.878 62.981 258.543 62.981C258.885 62.981 259.195 63.0835 259.473 63.2886C259.746 63.4937 259.956 63.7967 260.101 64.1978C260.206 63.7511 260.411 63.3934 260.717 63.1245C261.022 62.8511 261.387 62.7144 261.81 62.7144C262.489 62.7144 263.009 62.965 263.369 63.4663C263.729 63.9631 263.909 64.6672 263.909 65.5786L263.909 68.9214ZM260.662 67.6567L262.891 67.6567L262.891 65.5649C262.891 65.0363 262.793 64.6421 262.597 64.3823C262.401 64.118 262.125 63.9858 261.769 63.9858C261.031 63.9858 260.662 64.5282 260.662 65.6128L260.662 67.6567ZM259.65 67.6567L259.65 66.0229C259.65 64.8381 259.304 64.2456 258.611 64.2456C257.919 64.2456 257.561 64.8062 257.538 65.9272L257.538 67.6567L259.65 67.6567ZM256.513 60.9302L256.513 59.6587L262.877 59.6587L262.877 56.2544L256.513 56.2544L256.513 54.9897L262.877 54.9897L262.877 54.1079L266.103 54.231L266.103 55.3657L263.909 55.3657L263.909 60.9302L256.513 60.9302ZM263.909 48.1743C263.763 48.2472 263.503 48.3065 263.13 48.3521C263.74 48.9399 264.046 49.6418 264.046 50.4575C264.046 51.1867 263.841 51.786 263.431 52.2554C263.016 52.7202 262.492 52.9526 261.858 52.9526C261.088 52.9526 260.491 52.661 260.067 52.0776C259.639 51.4897 259.425 50.6649 259.425 49.603L259.425 48.3726L258.844 48.3726C258.402 48.3726 258.051 48.5047 257.791 48.769C257.527 49.0334 257.394 49.423 257.394 49.938C257.394 50.3892 257.508 50.7674 257.736 51.0728C257.964 51.3781 258.24 51.5308 258.563 51.5308L258.563 52.8022C258.194 52.8022 257.839 52.6724 257.497 52.4126C257.151 52.1483 256.877 51.7928 256.677 51.3462C256.476 50.895 256.376 50.4006 256.376 49.8628C256.376 49.0106 256.59 48.3429 257.018 47.8599C257.442 47.3768 258.028 47.1261 258.775 47.1079L262.18 47.1079C262.859 47.1079 263.399 47.0213 263.8 46.8481L263.909 46.8481L263.909 48.1743ZM262.945 50.2729C262.945 49.8765 262.843 49.5005 262.638 49.145C262.433 48.7896 262.166 48.5321 261.838 48.3726L260.32 48.3726L260.32 49.3638C260.32 50.9132 260.774 51.688 261.681 51.688C262.077 51.688 262.387 51.5558 262.61 51.2915C262.834 51.0272 262.945 50.6877 262.945 50.2729Z" fill="#555555"/>
<path d="M431.4 109.945L431.4 114.744L440.273 114.744L440.273 116.063L430.32 116.063L430.32 109.945L431.4 109.945ZM440.273 105.406C440.127 105.479 439.867 105.538 439.493 105.583C440.104 106.171 440.409 106.873 440.409 107.689C440.409 108.418 440.204 109.017 439.794 109.487C439.38 109.952 438.855 110.184 438.222 110.184C437.452 110.184 436.855 109.892 436.431 109.309C436.003 108.721 435.788 107.896 435.788 106.834L435.788 105.604L435.207 105.604C434.765 105.604 434.414 105.736 434.155 106C433.89 106.265 433.758 106.654 433.758 107.169C433.758 107.621 433.872 107.999 434.1 108.304C434.328 108.61 434.603 108.762 434.927 108.762L434.927 110.034C434.558 110.034 434.202 109.904 433.861 109.644C433.514 109.38 433.241 109.024 433.04 108.578C432.84 108.126 432.74 107.632 432.74 107.094C432.74 106.242 432.954 105.574 433.382 105.091C433.806 104.608 434.392 104.358 435.139 104.339L438.543 104.339C439.222 104.339 439.762 104.253 440.163 104.08L440.273 104.08L440.273 105.406ZM439.309 107.504C439.309 107.108 439.206 106.732 439.001 106.376C438.796 106.021 438.53 105.764 438.201 105.604L436.684 105.604L436.684 106.595C436.684 108.145 437.137 108.919 438.044 108.919C438.441 108.919 438.751 108.787 438.974 108.523C439.197 108.259 439.309 107.919 439.309 107.504ZM433.922 97.5786L433.922 100.99L440.273 100.99L440.273 102.261L432.876 102.261L432.876 97.5786L433.922 97.5786ZM440.273 91.9116C440.127 91.9845 439.867 92.0438 439.493 92.0894C440.104 92.6772 440.409 93.3791 440.409 94.1948C440.409 94.924 440.204 95.5233 439.794 95.9927C439.38 96.4575 438.855 96.6899 438.222 96.6899C437.452 96.6899 436.855 96.3983 436.431 95.8149C436.003 95.2271 435.788 94.4022 435.788 93.3403L435.788 92.1099L435.207 92.1099C434.765 92.1099 434.414 92.242 434.155 92.5063C433.89 92.7707 433.758 93.1603 433.758 93.6753C433.758 94.1265 433.872 94.5047 434.1 94.8101C434.328 95.1154 434.603 95.2681 434.927 95.2681L434.927 96.5396C434.558 96.5396 434.202 96.4097 433.861 96.1499C433.514 95.8856 433.241 95.5301 433.04 95.0835C432.84 94.6323 432.74 94.1379 432.74 93.6001C432.74 92.7479 432.954 92.0802 433.382 91.5972C433.806 91.1141 434.392 90.8634 435.139 90.8452L438.543 90.8452C439.222 90.8452 439.762 90.7586 440.163 90.5854L440.273 90.5854L440.273 91.9116ZM439.309 94.0103C439.309 93.6138 439.206 93.2378 439.001 92.8823C438.796 92.5269 438.53 92.2694 438.201 92.1099L436.684 92.1099L436.684 93.1011C436.684 94.6506 437.137 95.4253 438.044 95.4253C438.441 95.4253 438.751 95.2931 438.974 95.0288C439.197 94.7645 439.309 94.425 439.309 94.0103ZM436.657 82.6147C437.782 82.6147 438.689 82.8722 439.377 83.3872C440.065 83.9022 440.409 84.5994 440.409 85.479C440.409 86.3768 440.125 87.0832 439.555 87.5981L443.116 87.5981L443.116 88.8628L432.876 88.8628L432.876 87.7075L433.697 87.646C433.059 87.131 432.74 86.4155 432.74 85.4995C432.74 84.6108 433.074 83.909 433.744 83.394C434.414 82.8745 435.346 82.6147 436.54 82.6147L436.657 82.6147ZM436.513 83.8794C435.679 83.8794 435.02 84.0571 434.537 84.4126C434.054 84.7681 433.813 85.2557 433.813 85.8755C433.813 86.6411 434.152 87.2153 434.831 87.5981L438.366 87.5981C439.04 87.2199 439.377 86.6411 439.377 85.8618C439.377 85.2557 439.138 84.7749 438.659 84.4194C438.176 84.0594 437.461 83.8794 436.513 83.8794ZM432.876 76.2163L432.876 74.9517L440.273 74.9517L440.273 76.2163L434.879 76.2163L440.273 79.6274L440.273 80.8921L432.876 80.8921L432.876 79.6274L438.277 79.6274L432.876 76.2163ZM440.273 66.8784L440.273 68.1431L437.115 68.1431L437.115 71.5405L440.273 71.5405L440.273 72.812L432.876 72.812L432.876 71.5405L436.082 71.5405L436.082 68.1431L432.876 68.1431L432.876 66.8784L440.273 66.8784ZM440.273 60.2749C440.127 60.3478 439.867 60.4071 439.493 60.4526C440.104 61.0405 440.409 61.7423 440.409 62.5581C440.409 63.2873 440.204 63.8866 439.794 64.356C439.38 64.8208 438.855 65.0532 438.222 65.0532C437.452 65.0532 436.855 64.7616 436.431 64.1782C436.003 63.5903 435.788 62.7655 435.788 61.7036L435.788 60.4731L435.207 60.4731C434.765 60.4731 434.414 60.6053 434.155 60.8696C433.89 61.134 433.758 61.5236 433.758 62.0386C433.758 62.4897 433.872 62.868 434.1 63.1733C434.328 63.4787 434.603 63.6313 434.927 63.6313L434.927 64.9028C434.558 64.9028 434.202 64.7729 433.861 64.5132C433.514 64.2489 433.241 63.8934 433.04 63.4468C432.84 62.9956 432.74 62.5011 432.74 61.9634C432.74 61.1112 432.954 60.4435 433.382 59.9604C433.806 59.4774 434.392 59.2267 435.139 59.2085L438.543 59.2085C439.222 59.2085 439.762 59.1219 440.163 58.9487L440.273 58.9487L440.273 60.2749ZM439.309 62.3735C439.309 61.9771 439.206 61.6011 439.001 61.2456C438.796 60.8901 438.53 60.6326 438.201 60.4731L436.684 60.4731L436.684 61.4644C436.684 63.0138 437.137 63.7886 438.044 63.7886C438.441 63.7886 438.751 63.6564 438.974 63.3921C439.197 63.1278 439.309 62.7882 439.309 62.3735Z" fill="#555555"/>
<path d="M331.197 221.402H327.027L326.09 224H324.737L328.538 214.047H329.686L333.494 224H332.147L331.197 221.402ZM327.423 220.322H330.807L329.112 215.667L327.423 220.322ZM337.882 217.027C338.812 217.027 339.555 217.34 340.111 217.964C340.671 218.584 340.952 219.402 340.952 220.418V220.534C340.952 221.231 340.817 221.856 340.548 222.407C340.279 222.954 339.892 223.38 339.386 223.686C338.885 223.986 338.306 224.137 337.65 224.137C336.656 224.137 335.857 223.806 335.251 223.146C334.644 222.48 334.341 221.589 334.341 220.473V219.857C334.341 218.303 334.628 217.068 335.203 216.152C335.781 215.236 336.634 214.678 337.759 214.478C338.397 214.364 338.828 214.225 339.051 214.061C339.275 213.896 339.386 213.671 339.386 213.384H340.425C340.425 213.953 340.295 214.398 340.036 214.717C339.78 215.036 339.37 215.261 338.805 215.394L337.862 215.605C337.11 215.783 336.545 216.084 336.167 216.508C335.793 216.927 335.549 217.488 335.435 218.189C336.105 217.415 336.921 217.027 337.882 217.027ZM337.636 218.066C337.016 218.066 336.524 218.276 336.16 218.695C335.795 219.11 335.613 219.687 335.613 220.425V220.534C335.613 221.327 335.795 221.956 336.16 222.421C336.529 222.881 337.026 223.111 337.65 223.111C338.279 223.111 338.776 222.879 339.14 222.414C339.505 221.949 339.687 221.27 339.687 220.377C339.687 219.68 339.502 219.121 339.133 218.702C338.769 218.278 338.27 218.066 337.636 218.066ZM346.94 224C346.867 223.854 346.808 223.594 346.762 223.221C346.174 223.831 345.473 224.137 344.657 224.137C343.928 224.137 343.328 223.932 342.859 223.521C342.394 223.107 342.162 222.583 342.162 221.949C342.162 221.179 342.453 220.582 343.037 220.158C343.625 219.73 344.449 219.516 345.511 219.516H346.742V218.935C346.742 218.493 346.61 218.142 346.345 217.882C346.081 217.618 345.691 217.485 345.176 217.485C344.725 217.485 344.347 217.599 344.042 217.827C343.736 218.055 343.584 218.331 343.584 218.654H342.312C342.312 218.285 342.442 217.93 342.702 217.588C342.966 217.242 343.321 216.968 343.768 216.768C344.219 216.567 344.714 216.467 345.251 216.467C346.104 216.467 346.771 216.681 347.254 217.109C347.737 217.533 347.988 218.119 348.006 218.866V222.271C348.006 222.95 348.093 223.49 348.266 223.891V224H346.94ZM344.841 223.036C345.238 223.036 345.614 222.934 345.969 222.729C346.325 222.523 346.582 222.257 346.742 221.929V220.411H345.751C344.201 220.411 343.426 220.865 343.426 221.771C343.426 222.168 343.558 222.478 343.823 222.701C344.087 222.924 344.427 223.036 344.841 223.036ZM355.642 216.604V224H354.371V221.122H352.463L350.72 224H349.353L351.212 220.931C350.738 220.757 350.374 220.491 350.119 220.131C349.868 219.766 349.743 219.342 349.743 218.859C349.743 218.185 349.996 217.643 350.501 217.232C351.007 216.818 351.684 216.608 352.532 216.604H355.642ZM351.014 218.873C351.014 219.233 351.137 219.525 351.383 219.748C351.629 219.967 351.955 220.078 352.361 220.083H354.371V217.629H352.552C352.083 217.629 351.709 217.745 351.431 217.978C351.153 218.205 351.014 218.504 351.014 218.873Z" fill="#555555"/>
<g clip-path="url(#clip1)">
<path d="M487.273 12.9294V16.9698H489.293V12.9294H493.333V10.9092H489.293C488.182 10.9092 487.273 11.8183 487.273 12.9294ZM489.293 23.0304H487.273V27.0708C487.273 28.1819 488.182 29.091 489.293 29.091H493.333V27.0708H489.293V23.0304ZM503.434 27.0708H499.394V29.091H503.434C504.545 29.091 505.455 28.1819 505.455 27.0708V23.0304H503.434V27.0708ZM503.434 10.9092H499.394V12.9294H503.434V16.9698H505.455V12.9294C505.455 11.8183 504.545 10.9092 503.434 10.9092Z" fill="white"/>
</g>
<defs>
<clipPath id="clip0">
<rect x="242.727" y="189.273" width="12.7273" height="12.7273" fill="white"/>
</clipPath>
<clipPath id="clip1">
<rect x="487.273" y="10.9092" width="18.1818" height="18.1818" fill="white"/>
</clipPath>
</defs>
</svg>
