<svg width="128" height="49" viewBox="0 0 128 49" fill="none" xmlns="http://www.w3.org/2000/svg">
<path d="M50.217 30.5474H47.2845C47.0844 30.5566 46.8887 30.4883 46.7403 30.3576C46.5919 30.2269 46.5029 30.0444 46.4928 29.8501V14.8924C46.504 14.6988 46.5935 14.5174 46.7417 14.3876C46.89 14.2578 47.0851 14.1901 47.2845 14.1993H50.2148C50.4149 14.1901 50.6106 14.2584 50.759 14.3891C50.9074 14.5198 50.9964 14.7023 51.0065 14.8966V19.0258C51.0065 19.78 52.091 20.1002 52.6072 19.4977L56.8932 14.4774C56.9716 14.389 57.0688 14.3184 57.1782 14.2703C57.2876 14.2223 57.4065 14.1981 57.5266 14.1993H61.3657C62.036 14.1993 62.4025 14.8861 61.9774 15.3412L55.8304 21.9288C55.7145 22.0491 55.65 22.2076 55.65 22.3723C55.65 22.537 55.7145 22.6955 55.8304 22.8158L61.9774 29.4035C62.4112 29.8585 62.036 30.5453 61.3657 30.5453H57.6307C57.5117 30.5467 57.3937 30.523 57.2851 30.4757C57.1765 30.4284 57.0798 30.3587 57.0017 30.2714L52.6636 25.2343C52.1322 24.617 51.0174 24.9499 51.0174 25.723V29.848C51.0126 29.9451 50.9881 30.0404 50.9453 30.1283C50.9024 30.2162 50.842 30.2949 50.7675 30.36C50.6931 30.425 50.6061 30.4751 50.5116 30.5073C50.4171 30.5394 50.3169 30.5531 50.217 30.5474Z" fill="#222222"/>
<path d="M78.4749 30.6189H76.41C76.2372 30.6154 76.0698 30.5595 75.9314 30.459C75.7929 30.3585 75.6903 30.2185 75.6378 30.0585L74.7464 27.5199C74.6945 27.3596 74.592 27.2192 74.4534 27.1187C74.3148 27.0181 74.1472 26.9624 73.9742 26.9595L68.9746 26.9659C68.8032 26.9692 68.6371 27.0243 68.4995 27.1236C68.3619 27.2229 68.2596 27.3615 68.2068 27.5199L67.2915 30.0669C67.2383 30.2256 67.1356 30.3641 66.9976 30.4634C66.8596 30.5627 66.6932 30.6178 66.5215 30.621H64.4522C64.3137 30.6149 64.1788 30.5767 64.0586 30.5095C63.9384 30.4424 63.8366 30.3482 63.7616 30.2349C63.6866 30.1217 63.6407 29.9926 63.6276 29.8585C63.6146 29.7245 63.6348 29.5893 63.6866 29.4644L69.1633 14.8101C69.2179 14.6537 69.321 14.5174 69.4585 14.4201C69.596 14.3228 69.7611 14.2692 69.9312 14.2666H73.022C73.1917 14.2696 73.3563 14.3234 73.4934 14.4207C73.6304 14.518 73.7332 14.654 73.7877 14.8101L79.2449 29.4644C79.2963 29.5895 79.3161 29.7248 79.3026 29.8589C79.2892 29.993 79.2428 30.122 79.1673 30.2351C79.0919 30.3482 78.9897 30.442 78.8692 30.5088C78.7487 30.5756 78.6135 30.6133 78.4749 30.6189ZM73.3127 23.001L72.2455 19.9526C72.1965 19.7905 72.0949 19.6482 71.9557 19.547C71.8165 19.4457 71.6472 19.391 71.4733 19.391C71.2994 19.391 71.1302 19.4457 70.991 19.547C70.8518 19.6482 70.7501 19.7905 70.7012 19.9526L69.6253 22.9989C69.5773 23.1233 69.5603 23.257 69.5755 23.389C69.5908 23.521 69.6381 23.6477 69.7134 23.7586C69.7886 23.8695 69.8899 23.9616 70.0088 24.0273C70.1277 24.0929 70.2609 24.1304 70.3975 24.1365H72.5318C72.6689 24.1316 72.8029 24.0951 72.9227 24.03C73.0424 23.965 73.1446 23.8733 73.2208 23.7625C73.297 23.6517 73.3451 23.5249 73.3611 23.3925C73.377 23.2601 73.3604 23.126 73.3127 23.001Z" fill="#222222"/>
<path d="M89.4891 30.6548C87.0497 30.6548 84.9957 29.8963 83.327 28.3795C81.6583 26.8627 80.8247 24.888 80.8261 22.4554C80.8261 20.0074 81.6597 18.0328 83.327 16.5314C84.9942 15.03 87.0483 14.2793 89.4891 14.2793C92.092 14.2793 94.1417 15.1922 95.6383 17.018C95.7159 17.1125 95.7712 17.2223 95.8004 17.3398C95.8296 17.4572 95.832 17.5795 95.8074 17.6979C95.7828 17.8164 95.7318 17.9282 95.658 18.0254C95.5842 18.1227 95.4894 18.2031 95.3802 18.261L93.9812 18.9983C93.817 19.0869 93.6267 19.1187 93.4415 19.0885C93.2562 19.0582 93.0871 18.9678 92.9617 18.8319C92.6166 18.4403 92.2068 18.1071 91.7493 17.846C91.0638 17.4586 90.2821 17.2611 89.4891 17.275C88.8062 17.2558 88.1269 17.3772 87.4958 17.6314C86.8648 17.8856 86.2963 18.2667 85.8279 18.7497C84.8692 19.7329 84.3898 20.973 84.3898 22.4702C84.3898 23.9674 84.8692 25.2075 85.8279 26.1906C87.0035 27.3887 88.5673 27.8535 90.5194 27.5853C90.5735 27.5778 90.6271 27.5672 90.6799 27.5537C91.3836 27.3846 92.0505 27.095 92.6494 26.6984C92.7468 26.6229 92.8249 26.5266 92.8776 26.417C92.9303 26.3073 92.9561 26.1873 92.9531 26.0663V25.3775C92.9531 25.2697 92.9312 25.1629 92.8886 25.0634C92.8461 24.9638 92.7837 24.8734 92.7052 24.7972C92.6266 24.7211 92.5333 24.6608 92.4307 24.6197C92.3281 24.5787 92.2181 24.5577 92.1071 24.5579H89.5043C89.2801 24.5574 89.0653 24.4706 88.9068 24.3167C88.7483 24.1627 88.659 23.9541 88.6584 23.7363V22.4407C88.6584 22.2228 88.7475 22.0138 88.9062 21.8597C89.0648 21.7056 89.28 21.6191 89.5043 21.6191H95.5776C95.6887 21.6188 95.7989 21.6399 95.9016 21.6811C96.0044 21.7222 96.0977 21.7828 96.1763 21.8591C96.255 21.9355 96.3173 22.0261 96.3597 22.1259C96.4021 22.2258 96.4238 22.3327 96.4235 22.4407V27.3514C96.4244 27.5665 96.3406 27.7738 96.1892 27.9308C94.386 29.7468 92.1527 30.6548 89.4891 30.6548Z" fill="#222222"/>
<path d="M102.093 30.5726H100.258C100.028 30.5726 99.8075 30.4838 99.6448 30.3258C99.4821 30.1678 99.3907 29.9534 99.3907 29.7299V15.0714C99.3907 14.848 99.4821 14.6336 99.6448 14.4756C99.8075 14.3175 100.028 14.2288 100.258 14.2288H102.093C102.323 14.2288 102.544 14.3175 102.707 14.4756C102.869 14.6336 102.961 14.848 102.961 15.0714V29.7236C102.962 29.8348 102.94 29.9451 102.897 30.048C102.854 30.151 102.79 30.2447 102.709 30.3236C102.628 30.4025 102.532 30.4651 102.427 30.5079C102.321 30.5506 102.208 30.5726 102.093 30.5726Z" fill="#222222"/>
<path d="M17.7264 23.8133L10.8216 30.5198L23.5009 42.8349L30.4057 36.1284L17.7264 23.8133Z" fill="#FF8E49"/>
<path d="M15.1595 10.1523L22.0613 16.8559L9.38201 29.171C7.55155 27.3931 6.52321 24.9818 6.52321 22.4674C6.52321 19.9531 7.55155 17.5418 9.38201 15.7639L15.1595 10.1523Z" fill="#00A98C"/>
<path d="M36.1316 14.4138L29.2298 21.1173L16.5505 8.80223C18.381 7.02435 20.8636 6.02554 23.4523 6.02554C26.041 6.02554 28.5236 7.02435 30.3541 8.80223L36.1316 14.4138Z" fill="#B0D735"/>
<path d="M31.7827 34.8103L24.8809 28.1068L37.5602 15.7917C39.3907 17.5696 40.419 19.9809 40.419 22.4952C40.419 25.0095 39.3907 27.4208 37.5602 29.1987L31.7827 34.8103Z" fill="#FFCD10"/>
<path d="M23.5033 18.1773L19.1338 22.4214L23.5033 26.6655L27.8729 22.4214L23.5033 18.1773Z" fill="#00AAFF"/>
<path d="M117.472 26.0918C117.472 25.4787 117.298 24.9225 116.749 24.5517C116.201 24.181 115.101 24.0609 113.726 23.7343C111.327 23.1866 109.57 22.5146 108.342 21.7646C107.77 21.4306 107.298 20.9573 106.972 20.3916C106.646 19.826 106.477 19.1874 106.483 18.5392C106.483 17.2358 107.187 16.1698 108.594 15.3412C110.001 14.5126 111.797 14.0989 113.984 14.1003C116.199 14.1003 118.007 14.5652 119.406 15.495C120.58 16.2787 121.235 17.2056 121.382 18.2948C121.43 18.6298 121.094 18.9268 120.664 18.9268L118.17 18.9774C118.007 18.9895 117.845 18.9472 117.71 18.8576C117.575 18.768 117.476 18.6363 117.428 18.4844C117.308 17.9664 116.994 17.51 116.548 17.2035C115.924 16.7485 115.05 16.5203 113.925 16.5189C112.847 16.5189 112.011 16.7085 111.42 17.0877C110.829 17.4669 110.53 17.9507 110.524 18.5392C110.52 18.8217 110.6 19.0993 110.754 19.3391C110.908 19.5788 111.129 19.7707 111.392 19.8917C112.023 20.2372 113.103 20.49 114.645 20.8755C116.869 21.3643 118.619 21.9289 119.764 22.7189C120.308 23.1004 120.749 23.603 121.051 24.1843C121.353 24.7657 121.507 25.409 121.499 26.0602C121.499 27.4239 120.818 28.4997 119.456 29.2876C118.094 30.0755 116.305 30.4716 114.09 30.4758C111.894 30.4758 109.979 30.0292 108.347 29.136C106.928 28.3607 106.143 27.3158 105.991 26.0012C105.952 25.6662 106.288 25.3691 106.713 25.3691L109.225 25.327C109.391 25.313 109.556 25.3566 109.691 25.45C109.827 25.5434 109.924 25.6805 109.965 25.8368C110.01 26.1576 110.128 26.4645 110.312 26.7347C110.496 27.0049 110.739 27.2316 111.025 27.3979C111.758 27.8375 112.78 28.058 114.09 28.0594C115.188 28.0594 116.027 27.8811 116.608 27.5243C116.871 27.3825 117.09 27.1747 117.242 26.9227C117.394 26.6707 117.473 26.3837 117.472 26.0918Z" fill="#222222"/>
</svg>
