<svg width="1127" height="129" viewBox="0 0 1127 129" fill="none" xmlns="http://www.w3.org/2000/svg">
<circle cx="15.5" cy="113.5" r="14" fill="white" stroke="#B1DFFF" stroke-width="3"/>
<circle cx="15.5" cy="113.5" r="8.5" fill="#00AAFF"/>
<path d="M16 97.4225V8C16 7.44771 16.4477 7 17 7H339.719C340.271 7 340.719 7.44772 340.719 8V113C340.719 113.552 341.167 114 341.719 114H658.391C658.943 114 659.391 113.552 659.391 113V8C659.391 7.44771 659.838 7 660.391 7H1125C1125.55 7 1126 7.44772 1126 8V113C1126 113.552 1125.55 114 1125 114H947.358" stroke="#B1DFFF" stroke-width="2" stroke-dasharray="7 7"/>
<circle cx="340.5" cy="113.5" r="14" fill="white" stroke="#B1DFFF" stroke-width="3"/>
<circle cx="340.5" cy="113.5" r="8.5" fill="#00AAFF"/>
<circle cx="665.5" cy="113.5" r="14" fill="white" stroke="#B1DFFF" stroke-width="3"/>
<circle cx="665.5" cy="113.5" r="8.5" fill="#00AAFF"/>
<circle cx="949.5" cy="113.5" r="14" fill="white" stroke="#B1DFFF" stroke-width="3"/>
<circle cx="949.5" cy="113.5" r="8.5" fill="#00AAFF"/>
<g clip-path="url(#clip0)">
<path d="M150.678 6.38473L144.553 0.259736C144.379 0.0865307 144.175 9.72323e-08 143.938 7.65015e-08C143.7 5.57706e-08 143.495 0.0865306 143.322 0.259735C143.149 0.43294 143.062 0.637942 143.062 0.874931L143.062 13.1249C143.062 13.3618 143.149 13.567 143.322 13.7401C143.496 13.9133 143.701 14 143.938 14C144.174 14 144.379 13.9133 144.553 13.7401L150.678 7.61508C150.851 7.44206 150.938 7.23692 150.938 6.99988C150.938 6.76294 150.851 6.55794 150.678 6.38473Z" fill="#B1DFFF"/>
</g>
<g clip-path="url(#clip1)">
<path d="M507.678 113.385L501.553 107.26C501.38 107.087 501.175 107 500.938 107C500.7 107 500.495 107.087 500.322 107.26C500.149 107.433 500.062 107.638 500.062 107.875L500.062 120.125C500.062 120.362 500.149 120.567 500.322 120.74C500.496 120.913 500.701 121 500.938 121C501.175 121 501.38 120.913 501.553 120.74L507.678 114.615C507.851 114.442 507.938 114.237 507.938 114C507.938 113.763 507.851 113.558 507.678 113.385Z" fill="#B1DFFF"/>
<g clip-path="url(#clip2)">
<path d="M542.751 131.863L542.814 131.877H516.048L524.462 123.444C524.874 123.032 525.1 122.475 525.1 121.889C525.1 121.304 524.874 120.75 524.462 120.337L523.153 119.028C522.741 118.616 522.192 118.388 521.607 118.388C521.022 118.388 520.473 118.614 520.061 119.026L505.638 133.448C505.224 133.862 504.998 134.412 505 134.998C504.998 135.587 505.224 136.138 505.638 136.55L520.061 150.974C520.473 151.386 521.022 151.612 521.607 151.612C522.192 151.612 522.741 151.385 523.153 150.974L524.462 149.664C524.874 149.253 525.1 148.704 525.1 148.119C525.1 147.534 524.874 147.014 524.462 146.602L515.953 138.122H542.781C543.987 138.122 545 137.083 545 135.879V134.026C545 132.821 543.957 131.863 542.751 131.863Z" fill="white"/>
</g>
</g>
<g clip-path="url(#clip3)">
<path d="M922.678 6.38473L916.553 0.259736C916.38 0.0865307 916.175 9.72323e-08 915.938 7.65015e-08C915.7 5.57706e-08 915.495 0.0865306 915.322 0.259735C915.149 0.43294 915.062 0.637942 915.062 0.874931L915.062 13.1249C915.062 13.3618 915.149 13.567 915.322 13.7401C915.496 13.9133 915.701 14 915.938 14C916.175 14 916.38 13.9133 916.553 13.7401L922.678 7.61508C922.851 7.44206 922.938 7.23692 922.938 6.99988C922.938 6.76294 922.851 6.55794 922.678 6.38473Z" fill="#B1DFFF"/>
</g>
<defs>
<clipPath id="clip0">
<rect width="14" height="14" transform="matrix(-1 -8.74228e-08 -8.74228e-08 1 154 0)" fill="white"/>
</clipPath>
<clipPath id="clip1">
<rect width="14" height="14" transform="matrix(-1 8.74228e-08 8.74228e-08 1 511 107)" fill="white"/>
</clipPath>
<clipPath id="clip2">
<rect x="505" y="115" width="40" height="40" fill="white"/>
</clipPath>
<clipPath id="clip3">
<rect width="14" height="14" transform="matrix(-1 -8.74228e-08 -8.74228e-08 1 926 0)" fill="white"/>
</clipPath>
</defs>
</svg>
