<svg width="42" height="42" viewBox="0 0 42 42" fill="none" xmlns="http://www.w3.org/2000/svg">
<g clip-path="url(#clip0)">
<path d="M41.735 17.8149C41.6354 17.1588 41.183 16.6114 40.5585 16.3899L37.2498 15.2134C37.0541 14.659 36.8321 14.1201 36.586 13.5987L38.0917 10.43C38.3759 9.83251 38.3084 9.12579 37.916 8.59142C36.647 6.86536 35.1306 5.349 33.4091 4.08574C32.8743 3.69309 32.17 3.62632 31.5712 3.91123L28.4045 5.41577C27.8831 5.16967 27.3435 4.94816 26.7886 4.75244L25.6116 1.44326C25.3901 0.819942 24.8442 0.368723 24.1895 0.26797C21.8635 -0.0894861 20.142 -0.0894861 17.8124 0.26797C17.1585 0.368723 16.6118 0.819942 16.3903 1.44326L15.2133 4.75244C14.6585 4.94816 14.1188 5.16967 13.5979 5.41577L10.43 3.91123C9.83246 3.62656 9.12695 3.69333 8.59257 4.08574C6.87109 5.349 5.35474 6.86536 4.08569 8.59142C3.69304 9.12579 3.62579 9.83227 3.90997 10.43L5.41572 13.5987C5.16962 14.1191 4.94811 14.6593 4.75191 15.2134L1.44273 16.3911C0.818686 16.6126 0.366985 17.1598 0.266714 17.8149C0.0861783 19.0008 0.0018158 20.0119 0.0018158 21.0011C0.0018158 21.9889 0.0861783 23.0015 0.266714 24.1874C0.366262 24.8435 0.818686 25.3909 1.44321 25.6124L4.75191 26.7889C4.94811 27.3442 5.17035 27.8834 5.41572 28.4048L3.90997 31.5722C3.62579 32.1698 3.69328 32.8765 4.0852 33.4097C5.35257 35.1345 6.86893 36.6509 8.59257 37.9165C9.12695 38.3092 9.83246 38.3772 10.4305 38.0911L13.5972 36.5865C14.1186 36.8326 14.6582 37.0541 15.2131 37.2498L16.3901 40.559C16.6116 41.1823 17.1575 41.6336 17.8122 41.7343C18.9759 41.9136 20.0186 42.0004 21.0006 42.0004C21.9826 42.0004 23.0256 41.9136 24.189 41.7343C24.8434 41.6336 25.3896 41.1823 25.6111 40.559L26.7881 37.2498C27.343 37.0541 27.8827 36.8326 28.404 36.5865L31.5708 38.0911C32.1695 38.3769 32.875 38.309 33.4094 37.9165C35.135 36.6487 36.6513 35.1323 37.9163 33.4097C38.3082 32.8765 38.3757 32.1698 38.0915 31.5722L36.5857 28.4048C36.8318 27.8834 37.0538 27.343 37.2496 26.7889L40.5583 25.6124C41.1828 25.3909 41.6352 24.8437 41.7348 24.1874C41.9153 23.0015 41.9996 21.9891 41.9996 21.0011C41.9996 20.0131 41.9155 19.0005 41.735 17.8149ZM38.3133 22.5898L35.2092 23.6938C34.6666 23.8859 34.2494 24.3265 34.086 24.8796C33.8088 25.817 33.4438 26.704 33.0003 27.5173C32.7251 28.0235 32.708 28.6306 32.9553 29.1508L34.3632 32.1119C33.683 32.9288 32.9307 33.6823 32.1126 34.3618L29.152 32.9556C28.6311 32.7058 28.0258 32.7258 27.5189 33.0001C26.7045 33.4432 25.817 33.8076 24.8789 34.0853C24.3269 34.2482 23.8863 34.6652 23.6937 35.2078L22.5893 38.313C21.462 38.4278 20.5398 38.4278 19.4124 38.313L18.308 35.2078C18.1152 34.6664 17.6746 34.248 17.1228 34.0853C16.1842 33.8076 15.296 33.4432 14.4828 33.0001C13.9759 32.7237 13.3694 32.7061 12.8497 32.9556L9.8891 34.363C9.07175 33.682 8.31948 32.9298 7.63855 32.1119L9.04644 29.1508C9.29375 28.6304 9.27663 28.0235 9.00137 27.5173C8.55907 26.7065 8.1939 25.8182 7.91574 24.8784C7.75232 24.3265 7.33461 23.8859 6.79252 23.6938L3.68846 22.5898C3.62989 22.0251 3.60169 21.5047 3.60169 21.0009C3.60169 20.4971 3.62989 19.9779 3.68846 19.4132L6.79324 18.3083C7.33509 18.1162 7.75232 17.6756 7.91574 17.1236C8.19342 16.1862 8.55859 15.298 9.00137 14.4835C9.27663 13.9786 9.29375 13.3702 9.04644 12.8512L7.63855 9.89012C8.31996 9.07228 9.07223 8.3188 9.8891 7.63908L12.851 9.04649C13.3694 9.29621 13.9783 9.2762 14.484 9.0019C15.2967 8.55888 16.1842 8.19443 17.1228 7.91676C17.6748 7.75382 18.1154 7.33562 18.308 6.79425L19.4124 3.68899C20.5291 3.57305 21.453 3.57305 22.5893 3.68899L23.6937 6.79425C23.8865 7.33562 24.3271 7.75406 24.8789 7.91676C25.8175 8.19443 26.7057 8.55888 27.5189 9.0019C28.0258 9.27837 28.6311 9.29596 29.152 9.04649L32.1126 7.63908C32.9295 8.3188 33.6817 9.07228 34.3632 9.89012L32.9553 12.8512C32.708 13.3704 32.7251 13.9786 33.0003 14.4835C33.4446 15.3004 33.8095 16.1874 34.086 17.1224C34.2494 17.6756 34.6666 18.1162 35.2092 18.3083L38.3133 19.4122C38.3718 19.977 38.4 20.4974 38.4 21.0011C38.4 21.5049 38.3718 22.0251 38.3133 22.5898Z" fill="#00AAFF"/>
<path d="M21.0002 12.2451C16.4056 12.2451 12.6673 15.9831 12.6673 20.5779C12.6673 25.1728 16.4053 28.9108 21.0002 28.9108C25.5951 28.9108 29.333 25.1728 29.333 20.5779C29.333 15.9831 25.5948 12.2451 21.0002 12.2451ZM21.0002 25.3109C18.3905 25.3109 16.2672 23.1876 16.2672 20.5779C16.2672 17.9682 18.3905 15.845 21.0002 15.845C23.6099 15.845 25.7332 17.9682 25.7332 20.5779C25.7332 23.1876 23.6099 25.3109 21.0002 25.3109Z" fill="#00AAFF"/>
</g>
<defs>
<clipPath id="clip0">
<rect width="42" height="42" fill="white"/>
</clipPath>
</defs>
</svg>
