<svg width="701" height="285" viewBox="0 0 701 285" fill="none" xmlns="http://www.w3.org/2000/svg">
<path d="M20.0948 40.1086L43.6952 36.6705M20.0948 40.1086V50.208M20.0948 40.1086L35.1133 43.5467M43.6952 36.6705L52.4917 50.208M43.6952 36.6705L61.2882 38.1746M43.6952 36.6705L35.1133 43.5467M52.4917 50.208V60.7373M52.4917 50.208L61.2882 38.1746M52.4917 50.208L70.0847 58.3736M52.4917 50.208L35.1133 43.5467M52.4917 50.208L36.6151 53.2164M52.4917 50.208L65.6865 48.2741M20.0948 50.208L22.884 68.9028M20.0948 50.208L13.8729 72.9856L22.884 68.9028M20.0948 50.208L36.6151 53.2164M20.0948 50.208L35.1133 43.5467M20.0948 50.208L29.9641 60.7373M52.4917 60.7373L22.884 68.9028M52.4917 60.7373L70.0847 58.3736M52.4917 60.7373L36.6151 53.2164M52.4917 60.7373H29.9641M22.884 68.9028L29.9641 60.7373M61.2882 38.1746H90.4669M61.2882 38.1746L75.8775 46.555M61.2882 38.1746L65.6865 48.2741M70.0847 58.3736L88.3214 74.2749M70.0847 58.3736L83.7086 57.8364M70.0847 58.3736L75.8775 46.555M70.0847 58.3736L65.6865 48.2741M90.4669 38.1746L97.3324 57.2992M90.4669 38.1746L108.06 39.0342M90.4669 38.1746L83.7086 57.8364M90.4669 38.1746L75.8775 46.555M88.3214 74.2749L97.3324 57.2992M88.3214 74.2749L106.987 65.8945M88.3214 74.2749L102.052 86.0934M88.3214 74.2749L83.7086 57.8364M97.3324 57.2992L108.06 39.0342M97.3324 57.2992L114.282 54.7206M97.3324 57.2992L106.987 65.8945M97.3324 57.2992L83.7086 57.8364M108.06 39.0342L119.002 40.9681M108.06 39.0342L114.282 54.7206M119.002 40.9681L114.282 54.7206M119.002 40.9681L122.435 32.3728M119.002 40.9681L111.922 32.3728M119.002 40.9681L136.166 39.0342M119.002 40.9681L128.227 50.208M114.282 54.7206L106.987 65.8945M114.282 54.7206L128.227 50.208M114.282 54.7206L123.507 65.8945M106.987 65.8945L102.052 86.0934M106.987 65.8945H123.507M106.987 65.8945L115.998 80.2916M102.052 86.0934L115.998 80.2916M102.052 86.0934L111.922 94.6887M102.052 86.0934L103.769 100.705M111.922 32.3728H122.435M111.922 32.3728L102.911 36.6705L102.052 29.1496M111.922 32.3728L102.052 29.1496M111.922 32.3728L115.998 22.7031M122.435 32.3728L115.998 22.7031M122.435 32.3728L129.3 26.7859M122.435 32.3728L136.166 39.0342M102.052 29.1496L115.998 22.7031M115.998 22.7031L129.3 26.7859M129.3 26.7859L136.166 39.0342M129.3 26.7859L145.177 25.2817M136.166 39.0342L128.227 50.208M136.166 39.0342L145.177 25.2817M136.166 39.0342L147.966 48.9187M136.166 39.0342L151.613 34.9514M128.227 50.208L123.507 65.8945M128.227 50.208L141.959 64.1754M128.227 50.208L147.966 48.9187M123.507 65.8945L115.998 80.2916M123.507 65.8945L132.518 76.4237M123.507 65.8945L141.959 64.1754M115.998 80.2916L111.922 94.6887M115.998 80.2916L125.224 89.1017M115.998 80.2916L132.518 76.4237M145.177 25.2817L138.955 20.5543H153.759M145.177 25.2817L153.759 20.5543M145.177 25.2817L161.697 29.1496M145.177 25.2817L151.613 34.9514M111.922 94.6887L125.224 89.1017M111.922 94.6887L103.769 100.705M111.922 94.6887L114.282 109.73M111.922 94.6887L124.366 101.565M125.224 89.1017L132.518 76.4237M125.224 89.1017L124.366 101.565M125.224 89.1017L140.886 95.7631M132.518 76.4237L141.959 64.1754M132.518 76.4237L140.886 95.7631M132.518 76.4237L151.613 77.2832M141.959 64.1754L147.966 48.9187M141.959 64.1754L151.613 77.2832M141.959 64.1754L158.479 62.2415M147.966 48.9187L158.479 62.2415M147.966 48.9187L151.613 34.9514M147.966 48.9187L162.555 46.555M103.769 100.705L114.282 109.73M114.282 109.73L124.366 101.565M114.282 109.73L131.446 131.219M124.366 101.565L131.446 131.219M124.366 101.565L141.959 113.383M124.366 101.565L140.886 95.7631M131.446 131.219L141.959 113.383M131.446 131.219L144.533 139.814M141.959 113.383L144.533 139.814M141.959 113.383L152.686 131.219M141.959 113.383L140.886 95.7631M141.959 113.383L154.831 102.639M141.959 113.383L159.981 117.681M144.533 139.814L158.479 144.541M144.533 139.814L152.686 131.219M158.479 144.541L152.686 131.219M158.479 144.541L166.846 138.74M158.479 144.541L168.348 149.484M152.686 131.219L159.981 117.681M152.686 131.219L166.846 138.74M140.886 95.7631L151.613 77.2832M140.886 95.7631L154.831 102.639M140.886 95.7631L157.835 87.1678M151.613 77.2832L158.479 62.2415M151.613 77.2832L157.835 87.1678M151.613 77.2832L164.915 74.9195M158.479 62.2415L162.555 46.555M158.479 62.2415L172.854 49.5634M158.479 62.2415L164.915 74.9195M158.479 62.2415L177.574 63.101M154.831 102.639L159.981 117.681M154.831 102.639L157.835 87.1678M154.831 102.639L169.85 106.292M154.831 102.639L168.134 92.9696M159.981 117.681L169.85 106.292M159.981 117.681L177.145 116.392M157.835 87.1678L168.134 92.9696M157.835 87.1678L164.915 74.9195M169.85 106.292L177.145 116.392M169.85 106.292L168.134 92.9696M169.85 106.292L181.865 105.218M169.85 106.292L177.574 95.3333M177.145 116.392L187.014 126.706L185.727 114.028M177.145 116.392L185.727 114.028M177.145 116.392L181.865 105.218M168.134 92.9696L177.574 95.3333M168.134 92.9696L164.915 74.9195M168.134 92.9696L179.29 80.2916M185.727 114.028L181.865 105.218M185.727 114.028L197.527 105.218M181.865 105.218H197.527M181.865 105.218L190.447 94.044M181.865 105.218L177.574 95.3333M197.527 105.218L190.447 94.044M197.527 105.218L201.818 92.9696M190.447 94.044L177.574 95.3333M190.447 94.044L179.29 80.2916M190.447 94.044L196.454 81.366M190.447 94.044L201.818 92.9696M177.574 95.3333L179.29 80.2916M153.759 20.5543L161.697 29.1496M153.759 20.5543L166.632 25.9263M161.697 29.1496L151.613 34.9514M161.697 29.1496L162.555 46.555M161.697 29.1496L166.632 25.9263M161.697 29.1496L174.785 37.1002M151.613 34.9514L162.555 46.555M162.555 46.555L174.785 37.1002M162.555 46.555L172.854 49.5634M166.632 25.9263L174.785 37.1002M166.632 25.9263L181.436 27.6454M174.785 37.1002L172.854 49.5634M174.785 37.1002L181.436 27.6454M174.785 37.1002L192.592 31.2984M174.785 37.1002L185.297 41.6128M172.854 49.5634L177.574 63.101M172.854 49.5634L185.297 41.6128M172.854 49.5634L186.37 55.3652M164.915 74.9195L179.29 80.2916M164.915 74.9195L177.574 63.101M179.29 80.2916L177.574 63.101M179.29 80.2916L189.803 67.6135M179.29 80.2916L196.454 81.366M177.574 63.101L186.37 55.3652M177.574 63.101L189.803 67.6135M181.436 27.6454L192.592 31.2984M192.592 31.2984L185.297 41.6128M192.592 31.2984L196.454 41.6128M192.592 31.2984L205.465 36.4556M185.297 41.6128L186.37 55.3652M185.297 41.6128H196.454M186.37 55.3652L196.454 41.6128M186.37 55.3652L189.803 67.6135M186.37 55.3652L198.599 54.2908M196.454 41.6128L205.465 36.4556M196.454 41.6128L198.599 54.2908M189.803 67.6135L198.599 54.2908M189.803 67.6135L204.607 69.1177M189.803 67.6135L196.454 81.366M205.465 36.4556L211.687 46.555M205.465 36.4556L226.062 45.0509L211.687 46.555M198.599 54.2908L204.607 69.1177M198.599 54.2908L220.054 58.8033M198.599 54.2908L211.687 46.555M204.607 69.1177L196.454 81.366M204.607 69.1177L211.687 86.0934M204.607 69.1177L221.127 80.2916M204.607 69.1177L220.054 58.8033M196.454 81.366L211.687 86.0934M196.454 81.366L201.818 92.9696M211.687 86.0934L201.818 92.9696M211.687 86.0934L220.054 89.7464M211.687 86.0934L221.127 80.2916M220.054 89.7464L228.851 87.1678L221.127 80.2916M220.054 89.7464L221.127 80.2916M221.127 80.2916L236.789 72.126M221.127 80.2916L220.054 58.8033M236.789 72.126L220.054 58.8033M236.789 72.126L229.494 82.4404L242.367 83.085L236.789 72.126ZM220.054 58.8033L211.687 46.555M166.846 138.74L168.348 133.797L175.428 134.872M166.846 138.74L175.428 134.872M166.846 138.74L168.348 149.484M166.846 138.74L172.854 142.178M175.428 134.872L172.854 142.178M168.348 149.484L172.854 142.178M168.348 149.484L175.857 152.492M172.854 142.178L175.857 152.492M172.854 142.178L180.577 145.401M175.857 152.492L180.577 145.401M175.857 152.492L182.294 160.013M180.577 145.401L182.294 160.013M182.294 160.013C182.98 160.013 188.73 157.291 191.519 155.93M182.294 160.013L193.236 163.666M191.519 155.93L193.236 163.666M191.519 155.93L199.458 154.426M193.236 163.666L199.458 154.426M193.236 163.666C193.579 163.666 201.675 162.52 205.68 161.947M193.236 163.666V169.683M193.236 163.666L201.389 166.674M199.458 154.426L206.538 151.847M199.458 154.426L205.68 161.947M206.538 151.847L205.68 161.947M206.538 151.847L217.051 156.36M205.68 161.947L201.389 166.674M205.68 161.947L217.051 156.36M205.68 161.947L223.273 163.236M205.68 161.947L214.691 169.683M193.236 169.683L201.389 166.674M193.236 169.683L189.588 174.625M193.236 169.683L196.883 179.352M201.389 166.674L196.883 179.352M201.389 166.674L214.691 169.683M201.389 166.674L205.036 175.27M189.588 174.625L196.883 179.352M189.588 174.625L187.228 179.352M196.883 179.352H187.228M196.883 179.352L195.596 185.154M196.883 179.352L205.036 175.27M196.883 179.352L203.105 184.509M187.228 179.352L186.37 187.088M187.228 179.352L195.596 185.154M186.37 187.088L195.596 185.154M186.37 187.088L191.519 194.609M195.596 185.154L203.105 184.509M195.596 185.154L191.519 194.609M195.596 185.154L200.316 192.03M217.051 156.36L226.705 154.426M217.051 156.36L223.273 163.236M226.705 154.426L223.273 163.236M226.705 154.426L231.211 161.947M223.273 163.236L214.691 169.683M223.273 163.236L221.127 176.559M223.273 163.236L231.211 170.112M223.273 163.236L231.211 161.947M214.691 169.683L205.036 175.27M214.691 169.683L211.687 181.931M214.691 169.683L221.127 176.559M205.036 175.27L203.105 184.509M205.036 175.27L211.687 181.931M203.105 184.509L200.316 192.03M203.105 184.509L211.687 181.931M203.105 184.509L209.112 190.741M191.519 194.609L200.316 192.03M191.519 194.609L195.596 201.055M200.316 192.03L209.112 190.741M200.316 192.03L195.596 201.055M200.316 192.03L205.036 199.336M211.687 181.931L209.112 190.741M211.687 181.931L220.054 187.088M211.687 181.931L221.127 176.559M209.112 190.741L205.036 199.336M209.112 190.741L217.48 195.898M209.112 190.741L220.054 187.088M195.596 201.055L205.036 199.336M195.596 201.055L202.461 208.361M205.036 199.336L202.461 208.361M205.036 199.336L215.549 206.642M205.036 199.336L217.48 195.898M202.461 208.361L215.549 206.642M202.461 208.361L208.04 216.957M215.549 206.642L217.48 195.898M215.549 206.642L226.705 201.915M215.549 206.642L208.04 216.957M215.549 206.642L220.054 218.461M215.549 206.642L229.494 210.295M217.48 195.898L220.054 187.088M217.48 195.898L230.138 190.741M217.48 195.898L226.705 201.915M220.054 187.088L221.127 176.559M220.054 187.088L231.211 181.286M220.054 187.088L230.138 190.741M221.127 176.559L231.211 170.112M221.127 176.559L231.211 181.286M231.211 170.112V161.947M231.211 170.112L243.655 167.534M231.211 170.112L239.364 175.914M231.211 170.112V181.286M231.211 161.947L243.655 167.534M243.655 167.534L239.364 175.914M243.655 167.534L250.091 176.559M239.364 175.914L231.211 181.286M239.364 175.914L242.367 186.014M239.364 175.914L250.091 176.559M231.211 181.286L230.138 190.741M231.211 181.286L242.367 186.014M230.138 190.741L242.367 186.014M230.138 190.741L226.705 201.915M230.138 190.741L240.222 199.336M242.367 186.014L250.091 176.559M242.367 186.014L240.222 199.336M242.367 186.014L248.589 192.46M242.367 186.014L253.953 183.865M250.091 176.559L253.953 183.865M250.091 176.559L261.462 181.286M226.705 201.915L240.222 199.336M226.705 201.915L229.494 210.295M226.705 201.915L241.509 208.361M240.222 199.336L248.589 192.46M240.222 199.336L241.509 208.361M240.222 199.336L257.386 204.494M248.589 192.46L253.953 183.865M248.589 192.46L261.462 190.741M248.589 192.46L257.386 204.494M253.953 183.865L261.462 181.286M253.953 183.865L261.462 190.741M208.04 216.957L220.054 218.461M208.04 216.957L207.396 227.916M220.054 218.461L229.494 210.295M220.054 218.461L207.396 227.916M220.054 218.461L236.145 223.188M220.054 218.461V236.941M229.494 210.295L241.509 208.361M229.494 210.295L236.145 223.188M241.509 208.361L257.386 204.494M241.509 208.361L253.953 224.048M241.509 208.361L236.145 223.188M207.396 227.916L204.821 241.668M207.396 227.916L220.054 236.941M261.462 181.286V190.741M261.462 181.286L272.19 184.509M261.462 190.741L272.19 184.509M261.462 190.741L272.19 199.981M261.462 190.741H277.768M261.462 190.741L257.386 204.494M272.19 184.509L277.768 190.741M277.768 190.741L272.19 199.981M272.19 199.981L257.386 204.494M272.19 199.981L267.899 215.238M257.386 204.494L267.899 215.238M257.386 204.494L253.953 224.048M267.899 215.238L253.953 224.048M253.953 224.048L236.145 223.188M253.953 224.048L242.367 236.941M236.145 223.188L220.054 236.941M236.145 223.188L242.367 236.941M204.821 241.668L220.054 236.941M204.821 241.668L217.48 247.255M204.821 241.668L200.745 257.999M220.054 236.941H242.367M220.054 236.941L234.215 248.544M220.054 236.941L217.48 247.255M242.367 236.941L234.215 248.544M234.215 248.544L217.48 247.255M234.215 248.544L220.054 258.859M217.48 247.255L200.745 257.999M217.48 247.255L220.054 258.859M200.745 257.999L220.054 258.859M200.745 257.999L208.04 267.024M200.745 257.999L199.243 276.264M220.054 258.859L208.04 267.024M220.054 258.859L217.48 271.537M208.04 267.024L217.48 271.537M208.04 267.024L199.243 276.264M208.04 267.024L206.752 284M208.04 267.024L220.054 283.14M217.48 271.537L220.054 283.14M199.243 276.264L206.752 284M206.752 284L220.054 283.14M202.676 23.1329L211.687 28.0752L216.192 23.1329M202.676 23.1329H216.192M202.676 23.1329L215.334 16.0418M216.192 23.1329L215.334 16.0418M216.192 23.1329L224.345 27.2156M216.192 23.1329L226.062 17.9757M215.334 16.0418L226.062 17.9757M215.334 16.0418L228.636 10.0251M224.345 27.2156L226.062 17.9757M224.345 27.2156L233.356 30.224M224.345 27.2156L234.215 23.7775M226.062 17.9757L228.636 10.0251M226.062 17.9757L236.789 16.9013M226.062 17.9757L234.215 23.7775M228.636 10.0251L236.789 16.9013M228.636 10.0251L243.44 5.08276M236.789 16.9013L234.215 23.7775M236.789 16.9013L243.44 24.6371M236.789 16.9013L249.018 14.9674M236.789 16.9013L243.44 5.08276M233.356 30.224L234.215 23.7775M233.356 30.224L234.215 37.53M233.356 30.224L244.084 34.0919M233.356 30.224L243.44 24.6371M234.215 23.7775L243.44 24.6371M234.215 37.53L244.084 34.0919M234.215 37.53L246.229 45.0509M234.215 37.53L240.651 50.6378M244.084 34.0919L243.44 24.6371M244.084 34.0919L255.026 24.6371M244.084 34.0919L257.386 37.53M244.084 34.0919L246.229 45.0509M243.44 24.6371L249.018 14.9674M243.44 24.6371H255.026M249.018 14.9674L243.44 5.08276M249.018 14.9674L255.026 1.64465M249.018 14.9674L255.026 24.6371M249.018 14.9674H263.608M243.44 5.08276L255.026 1.64465M255.026 1.64465L263.608 14.9674M255.026 1.64465L274.764 10.0251M255.026 1.64465C256.056 2.08189 272.047 1.39707 279.913 1M255.026 24.6371L257.386 37.53M255.026 24.6371L269.401 32.5877M255.026 24.6371L263.608 14.9674M257.386 37.53L246.229 45.0509M257.386 37.53L258.244 47.6295M257.386 37.53L267.47 45.9104M257.386 37.53L269.401 32.5877M246.229 45.0509L240.651 50.6378M246.229 45.0509L251.164 56.8694M246.229 45.0509L258.244 47.6295M240.651 50.6378L251.164 56.8694M251.164 56.8694L258.244 47.6295M251.164 56.8694L261.248 60.3075L258.244 47.6295M258.244 47.6295L267.47 45.9104M267.47 45.9104L269.401 32.5877M267.47 45.9104L279.913 42.6872M269.401 32.5877L279.913 42.6872M269.401 32.5877L263.608 14.9674M269.401 32.5877L281.201 24.6371M263.608 14.9674L281.201 24.6371M263.608 14.9674L274.764 10.0251M279.913 42.6872L281.201 24.6371M279.913 42.6872L295.576 31.7282M281.201 24.6371L274.764 10.0251M281.201 24.6371L288.281 12.6036M281.201 24.6371L295.576 31.7282M274.764 10.0251L279.913 1M274.764 10.0251L288.281 12.6036M279.913 1L288.281 12.6036M279.913 1L295.576 11.5292M288.281 12.6036L295.576 31.7282M288.281 12.6036L295.576 11.5292M295.576 31.7282V11.5292M295.576 31.7282L309.736 10.0251L295.576 11.5292M305.659 46.7699L296.863 45.6955L299.437 50.6378M305.659 46.7699L299.437 50.6378M305.659 46.7699L309.521 51.2825M305.659 46.7699L315.529 46.1253L309.521 51.2825M299.437 50.6378L309.521 51.2825M35.1133 43.5467L36.6151 53.2164M36.6151 53.2164L29.9641 60.7373M83.7086 57.8364L75.8775 46.555M75.8775 46.555L65.6865 48.2741M384.613 244.462L401.777 239.949M384.613 244.462L376.246 226.197M384.613 244.462L390.191 235.651M401.777 239.949L394.697 222.973M401.777 239.949L390.191 235.651M401.777 239.949L410.788 230.709M376.246 226.197L394.697 222.973M376.246 226.197L369.38 207.932M376.246 226.197L390.191 235.651M376.246 226.197L380.108 215.882M394.697 222.973L414.436 213.733M394.697 222.973L398.5 203M394.697 222.973L386.973 207.932M394.697 222.973L390.191 235.651M394.697 222.973L410.788 230.709M394.697 222.973L380.108 215.882M369.38 207.932L381 197M369.38 207.932H386.973M369.38 207.932L380.108 215.882M369.38 207.932L367 191.5M414.436 213.733L398.5 203M414.436 213.733L423.017 192.138M414.436 213.733L410.788 230.709M414.436 213.733L410.788 198.047M398.5 203L393.5 182M398.5 203L381 197M398.5 203L386.973 207.932M398.5 203L410.788 198.047M398.5 203L408.428 186.5M423.017 192.138L439.109 168.823M423.017 192.138L419.5 171M423.017 192.138L410.788 198.047M423.017 192.138L408.428 186.5M393.5 182L396.5 158.724M393.5 182L381 197M393.5 182L408.428 186.5M393.5 182L402.5 172.5M393.5 182H380.108M393.5 182L381 171M368.308 174.41L359 149.913M368.308 174.41L381 197M368.308 174.41L371 150.5M368.308 174.41L356.5 168.823M368.308 174.41L377.64 161.455M368.308 174.41L380.108 182M368.308 174.41L381 171M368.308 174.41L367 191.5M396.5 158.724L404.352 137.235M396.5 158.724L385.5 144.327M396.5 158.724L419.5 171M396.5 158.724H418.297M396.5 158.724L409 150.5M396.5 158.724L377.64 161.455M396.5 158.724L402.5 172.5M396.5 158.724L381 171M439.109 168.823L423.017 144.327M439.109 168.823L419.5 171M439.109 168.823L418.297 158.724M423.017 144.327L404.352 137.235M423.017 144.327L408.428 115.532M423.017 144.327L418.297 158.724M423.017 144.327L409 150.5M375.173 129.273L404.352 137.235M375.173 129.273L361.5 117.5M375.173 129.273L385.257 114.243M375.173 129.273L351 140M375.173 129.273L359 149.913M375.173 129.273L385.5 144.327M375.173 129.273L371 150.5M375.173 129.273L394.804 125.739M404.352 137.235L408.428 115.532M404.352 137.235L385.5 144.327M404.352 137.235L409 150.5M404.352 137.235L394.804 125.739M346.638 160.848L336.34 135.516M346.638 160.848L328.831 167.964M346.638 160.848L329.689 149.699M346.638 160.848L351 140M346.638 160.848L359 149.913M346.638 160.848L356.5 168.823M336.34 135.516L315.529 138.74M336.34 135.516L339.343 106.292M336.34 135.516L327.436 122.516M336.34 135.516L329.689 149.699M336.34 135.516L351 140M336.34 135.516L346.638 122.516M328.831 167.964L329.689 149.699M328.831 167.964L312.739 152.599M315.529 138.74L327.436 122.516M315.529 138.74L329.689 149.699M315.529 138.74L312.739 152.599M339.343 106.292L361.5 117.5M339.343 106.292L365.948 102.21M339.343 106.292L327.436 122.516M339.343 106.292L346.638 122.516M361.5 117.5L385.257 114.243M361.5 117.5L365.948 102.21M361.5 117.5L351 140M361.5 117.5L346.638 122.516M385.257 114.243L365.948 102.21M385.257 114.243L408.428 115.532M385.257 114.243L394.804 125.739M408.428 115.532L425.67 108.306M408.428 115.532L430.108 119.704M408.428 115.532L394.804 125.739M434.174 207.932L442.541 200.196V215.023M434.174 207.932L442.541 215.023M434.174 207.932L431.814 219.965M442.541 215.023L431.814 219.965M442.541 215.023L436.319 226.197L431.814 219.965M329.689 149.699L312.739 152.599M351 140L346.638 122.516M351 140L359 149.913M359 149.913L371 150.5M359 149.913L356.5 168.823M385.5 144.327L371 150.5M385.5 144.327L377.64 161.455M381 197L386.973 207.932M381 197L380.108 182M381 197L367 191.5M419.5 171L418.297 158.724M419.5 171L408.428 186.5M419.5 171L402.5 172.5M418.297 158.724L409 150.5M386.973 207.932L380.108 215.882M410.788 198.047L408.428 186.5M371 150.5L377.64 161.455M408.428 186.5L402.5 172.5M327.436 97.2673L334.838 103.929L347.711 100.276M327.436 97.2673L347.711 100.276M327.436 97.2673L329.689 89.7464L344.922 88.8869M327.436 97.2673L344.922 88.8869M347.711 100.276L344.922 88.8869M347.711 100.276L357.58 91.2506M344.922 88.8869L336.34 81.1511L351.144 77.0683M344.922 88.8869L351.144 77.0683M344.922 88.8869L357.58 91.2506M351.144 77.0683L357.58 91.2506M351.144 77.0683C351.83 77.0683 357.58 72.0544 360.369 69.5475M351.144 77.0683L364.875 80.2916M357.58 91.2506L364.875 80.2916M357.58 91.2506H367.664M360.369 69.5475L364.875 80.2916M360.369 69.5475L379.679 81.1511M360.369 69.5475H377.962M364.875 80.2916L367.664 91.2506M364.875 80.2916L379.679 81.1511M367.664 91.2506L375.173 103.284L375.464 93.0167L367.664 91.2506ZM367.664 91.2506L379.679 81.1511M379.679 81.1511L377.962 69.5475M379.679 81.1511L383.326 95.5482M379.679 81.1511L393.624 84.8041M377.962 69.5475L393.624 84.8041M377.962 69.5475L397.486 72.126M377.962 69.5475L394.697 59.8778M383.326 95.5482L393.624 84.8041M383.326 95.5482L388.046 104.573L394.697 100.276M383.326 95.5482L394.697 100.276M393.624 84.8041L397.486 72.126M393.624 84.8041L394.697 100.276M393.624 84.8041L413.878 78.3576M393.624 84.8041L411.246 93.8507M397.486 72.126L413.878 78.3576M397.486 72.126L394.697 59.8778M397.486 72.126L412.633 63.8271M394.697 100.276L411.246 93.8507M394.697 100.276L412.633 103.929M413.878 78.3576L411.246 93.8507M413.878 78.3576L412.633 63.8271M413.878 78.3576L431.385 63.8271M413.878 78.3576L430.108 82.4529M411.246 93.8507L430.108 82.4529M411.246 93.8507L412.633 103.929M411.246 93.8507L431.385 95.5482M394.697 59.8778L412.633 63.8271M394.697 59.8778L410.788 53.861M394.697 59.8778L399.203 48.9187M394.697 59.8778L385.257 50.208M412.633 63.8271H431.385M412.633 63.8271L410.788 53.861M412.633 63.8271L422.374 50.208M431.385 63.8271L430.108 82.4529M431.385 63.8271L442.397 72.1826M431.385 63.8271L447.047 56.5992M431.385 63.8271L422.374 50.208M430.108 82.4529L453.408 83.8428M430.108 82.4529L431.385 95.5482M430.108 82.4529L442.397 72.1826M332.692 73.2004L327.114 75.5642L326.256 71.2665M332.692 73.2004L326.256 71.2665M332.692 73.2004L332.263 66.9689L326.256 71.2665M335.696 67.3986C333.837 65.6079 331.534 63.2299 331.191 62.8861L341.703 62.2415M335.696 67.3986L341.703 62.2415M335.696 67.3986L342.347 67.6135M335.696 67.3986L340.416 72.126M335.696 67.3986L338.271 77.0683M341.703 62.2415L342.347 67.6135M342.347 67.6135L346.638 70.6219M342.347 67.6135L340.416 72.126M346.638 70.6219L340.416 72.126M346.638 70.6219L344.064 76.4237M346.638 70.6219L349.427 73.8451L344.064 76.4237M340.416 72.126L338.271 77.0683M340.416 72.126L344.064 76.4237M338.271 77.0683L344.064 76.4237M410.788 53.861L399.203 48.9187M410.788 53.861L411.646 43.9765M410.788 53.861L422.374 50.208M399.203 48.9187L385.257 50.208M399.203 48.9187L411.646 43.9765M399.203 48.9187L397.486 36.8853M385.257 50.208L397.486 36.8853M385.257 50.208L380.966 39.4639M385.257 50.208L371.311 45.6955M385.257 50.208L373.028 54.7206M385.257 50.208L376.675 65.4647M411.646 43.9765H427.308L411.646 38.6044M411.646 43.9765V38.6044M411.646 43.9765L397.486 36.8853M411.646 43.9765L422.374 50.208M411.646 38.6044L397.486 36.8853M397.486 36.8853L380.966 39.4639M380.966 39.4639L371.311 45.6955M371.311 45.6955L373.028 54.7206M371.311 45.6955L360.369 52.142M373.028 54.7206L360.369 52.142M373.028 54.7206L367.664 60.5224M373.028 54.7206L376.675 65.4647M360.369 52.142L357.151 60.5224H367.664M360.369 52.142L367.664 60.5224M367.664 60.5224L376.675 65.4647M422.374 50.208L439.323 43.3318M422.374 50.208L447.047 56.5992M439.323 43.3318L447.047 56.5992M439.323 43.3318L463.718 50.525M439.323 43.3318L465.713 40.1086M447.047 56.5992L455.627 67.6135M447.047 56.5992L473.657 60.3075M447.047 56.5992L463.718 50.525M455.627 67.6135L453.408 83.8428M455.627 67.6135L475.102 72.1826M455.627 67.6135L473.657 60.3075M455.627 67.6135L442.397 72.1826M453.408 83.8428L431.385 95.5482M453.408 83.8428L450.265 102.21M453.408 83.8428L471.938 91.0707M453.408 83.8428L475.102 72.1826M453.408 83.8428L442.397 72.1826M412.633 103.929L431.385 95.5482M412.633 103.929L425.67 108.306M431.385 95.5482L425.67 108.306M431.385 95.5482L450.265 102.21M425.67 108.306L430.108 119.704M425.67 108.306L450.265 102.21M450.265 102.21L430.108 119.704M450.265 102.21L457.131 115.532M450.265 102.21L470.329 108.871M450.265 102.21L471.938 91.0707M430.108 119.704L442.49 129.273M430.108 119.704L426.45 137.235M430.108 119.704L457.131 115.532M426.45 137.235L442.49 129.273M426.45 137.235L447.047 145.401M426.45 137.235L431.385 149.913L447.047 145.401M442.49 129.273L447.047 145.401M442.49 129.273L458.847 137.235M442.49 129.273L457.131 115.532M447.047 145.401L458.847 137.235M458.847 137.235L457.131 115.532M458.847 137.235L467.555 121.334M458.847 137.235L475.102 131.648M457.131 115.532L470.329 108.871M457.131 115.532L467.555 121.334M470.329 108.871L485.03 124.708M470.329 108.871L471.938 91.0707M470.329 108.871L482.018 96.4077M470.329 108.871L467.555 121.334M485.03 124.708L491.459 134.012M485.03 124.708L511.936 116.646M485.03 124.708L482.018 96.4077M485.03 124.708L467.555 121.334M485.03 124.708L475.102 131.648M485.03 124.708L496.125 104.573M471.938 91.0707L475.102 72.1826M471.938 91.0707L492.796 78.3576M471.938 91.0707L482.018 96.4077M506.111 85.4487L492.796 78.3576M506.111 85.4487L513.045 69.5475M506.111 85.4487L523.031 91.0707M506.111 85.4487L482.018 96.4077M506.111 85.4487L496.125 104.573M506.111 85.4487L507.775 100.276M475.102 72.1826L473.657 60.3075M475.102 72.1826L492.796 78.3576M475.102 72.1826L496.125 61.6031M473.657 60.3075L463.718 50.525M473.657 60.3075L489.528 45.6955M473.657 60.3075L496.125 61.6031M463.718 50.525L465.713 40.1086M463.718 50.525L489.528 45.6955M465.713 40.1086L489.528 45.6955M465.713 40.1086L483.949 30.224M489.528 45.6955L496.125 61.6031M489.528 45.6955L483.949 30.224M489.528 45.6955L504.117 35.3812M489.528 45.6955L501.673 48.9187M496.125 61.6031L492.796 78.3576M496.125 61.6031L513.045 69.5475M496.125 61.6031L521.71 52.142M496.125 61.6031L501.673 48.9187M492.796 78.3576L513.045 69.5475M492.796 78.3576L482.018 96.4077M513.045 69.5475L521.71 52.142M513.045 69.5475L523.031 91.0707M513.045 69.5475L534.787 70.8367M521.71 52.142L504.117 35.3812M521.71 52.142L534.787 70.8367M521.71 52.142L541.019 45.9104M521.71 52.142L524.973 37.3151M521.71 52.142L501.673 48.9187M457.131 28.5049V37.3151L446.832 35.3812L457.131 28.5049ZM457.131 28.5049L468.073 24.4222M457.131 28.5049L468.931 30.224M468.073 24.4222L482.018 25.9263L468.931 30.224M468.073 24.4222L468.931 30.224M483.949 30.224L504.117 35.3812M504.117 35.3812L539.303 25.9263M504.117 35.3812L524.973 37.3151M504.117 35.3812L501.673 48.9187M491.459 134.012L511.936 116.646M491.459 134.012V149.913M491.459 134.012L507.775 141.944M511.936 116.646L523.031 91.0707M511.936 116.646L507.775 141.944M511.936 116.646L524.14 131.648M511.936 116.646L533.571 109.516M511.936 116.646L496.125 104.573M511.936 116.646L507.775 100.276M523.031 91.0707L534.787 70.8367M523.031 91.0707L533.571 109.516M523.031 91.0707L542.725 90.1762M523.031 91.0707L507.775 100.276M491.459 149.913L507.775 141.944M491.459 149.913L497.895 162.162L507.775 141.944M507.775 141.944L524.14 131.648M524.14 131.648L545.221 134.012M524.14 131.648L535.79 145.836M524.14 131.648L533.571 109.516M524.14 131.648L543.835 119.185M553.82 103.581L556.594 78.3576M553.82 103.581L564.405 119.185M553.82 103.581L542.725 90.1762M553.82 103.581L533.571 109.516M553.82 103.581L569.237 101.514M553.82 103.581L543.835 119.185M556.594 78.3576L534.787 70.8367M556.594 78.3576L576.288 63.8271M556.594 78.3576L574.069 83.8428M556.594 78.3576L554.93 61.6031M556.594 78.3576L542.725 90.1762M556.594 78.3576L569.237 101.514M534.787 70.8367L554.93 61.6031M534.787 70.8367L542.725 90.1762M534.787 70.8367L541.019 45.9104M541.019 45.9104L539.303 25.9263M541.019 45.9104L561.831 30.224M541.019 45.9104L554.93 61.6031M541.019 45.9104L560.755 47.1473M541.019 45.9104L524.973 37.3151M539.303 25.9263L561.831 30.224M539.303 25.9263L524.973 37.3151M561.831 30.224L593.584 31.2984M561.831 30.224L592.511 45.9104M561.831 30.224L560.755 47.1473M561.831 30.224L575.456 46.7699M576.288 63.8271L574.069 83.8428M576.288 63.8271L592.511 45.9104M576.288 63.8271H594.595M576.288 63.8271L588.649 83.2999M576.288 63.8271L554.93 61.6031M576.288 63.8271L560.755 47.1473M576.288 63.8271L575.456 46.7699M574.069 83.8428L580.282 102.639M574.069 83.8428L588.649 83.2999M574.069 83.8428L569.237 101.514M564.405 119.185L545.221 134.012M564.405 119.185L559.09 142.222M564.405 119.185L572.987 131.648L584.144 121.334M564.405 119.185L584.144 121.334M564.405 119.185L580.282 102.639M564.405 119.185L569.237 101.514M564.405 119.185H543.835M545.221 134.012L535.79 145.836M545.221 134.012L559.09 142.222M545.221 134.012L543.835 119.185M535.79 145.836L559.09 142.222M535.79 145.836L554.93 158.724L559.09 142.222M584.144 121.334L580.282 102.639M580.282 102.639L588.649 83.2999M580.282 102.639L599.377 96.4077M580.282 102.639L595.515 108.871L599.377 96.4077M580.282 102.639L569.237 101.514M593.584 31.2984L592.511 45.9104M593.584 31.2984L609.889 44.1913M593.584 31.2984L609.031 34.3068M592.511 45.9104L594.595 63.8271M592.511 45.9104L609.889 44.1913M592.511 45.9104L614.824 58.1587M592.511 45.9104L575.456 46.7699M594.595 63.8271L588.649 83.2999M594.595 63.8271L606.523 77.1709M594.595 63.8271L614.824 58.1587M588.649 83.2999L599.377 96.4077M588.649 83.2999L606.523 77.1709M599.377 96.4077L606.523 77.1709M599.377 96.4077L614.824 87.8124M606.523 77.1709L614.824 87.8124M606.523 77.1709L622.333 70.8367M606.523 77.1709L614.824 58.1587M614.824 87.8124L622.333 70.8367M622.333 70.8367L614.824 58.1587M622.333 70.8367L624.264 81.1511M622.333 70.8367H628.555M614.824 58.1587L609.889 44.1913M614.824 58.1587L624.693 46.7699M614.824 58.1587L625.122 59.2331M624.264 81.1511L627.053 85.4487L629.628 78.3576M624.264 81.1511L629.628 78.3576M624.264 81.1511L628.555 70.8367M629.628 78.3576L628.555 70.8367M609.889 44.1913L624.693 46.7699M609.889 44.1913L609.031 34.3068M624.693 46.7699L609.031 34.3068M624.693 46.7699L633.919 38.1746M624.693 46.7699L625.122 59.2331M624.693 46.7699L636.708 51.2825M609.031 34.3068H618.686M618.686 34.3068L633.919 38.1746M618.686 34.3068L629.628 28.2901M618.686 34.3068L620.402 28.9347M633.919 38.1746C633.404 38.0439 630.844 31.5304 629.628 28.2901M633.919 38.1746L636.708 51.2825M633.919 38.1746L645.934 36.0258M633.919 38.1746L651.727 46.7699M629.628 28.2901L620.402 28.9347M629.628 28.2901L622.333 23.9924M620.402 28.9347L613.537 27.2156L622.333 23.9924M620.402 28.9347L622.333 23.9924M625.122 59.2331L636.708 51.2825M625.122 59.2331L637.352 60.3075M636.708 51.2825L637.352 60.3075M636.708 51.2825L651.727 46.7699M636.708 51.2825L650.868 58.1587M637.352 60.3075L650.868 58.1587M645.934 36.0258L651.727 46.7699M645.934 36.0258L661.81 38.8193M651.727 46.7699L650.868 58.1587M651.727 46.7699L661.81 38.8193M651.727 46.7699L663.741 54.7206M650.868 58.1587L663.741 54.7206M661.81 38.8193L663.741 54.7206M661.81 38.8193L671.894 44.836M661.81 38.8193L674.04 37.53M663.741 54.7206L671.894 44.836M663.741 54.7206L675.756 53.6462M663.741 54.7206L665.672 62.0266M663.741 54.7206L656.017 60.3075M671.894 44.836L674.04 37.53M671.894 44.836L675.756 53.6462M671.894 44.836H683.051M674.04 37.53L683.051 44.836M674.04 37.53L689.916 38.1746M675.756 53.6462L683.051 44.836M675.756 53.6462H689.487M675.756 53.6462L678.76 58.1587M675.756 53.6462L665.672 62.0266M683.051 44.836L689.916 38.1746M683.051 44.836L694.207 49.1336M683.051 44.836L689.487 53.6462M689.916 38.1746L694.207 49.1336M689.916 38.1746L700 41.8276L694.207 49.1336M694.207 49.1336L698.284 53.2164L689.487 53.6462M694.207 49.1336L689.487 53.6462M689.487 53.6462L678.76 58.1587M678.76 58.1587L665.672 62.0266M665.672 62.0266L656.017 60.3075M665.672 62.0266L659.45 70.8367M656.017 60.3075L649.796 67.1837M656.017 60.3075L659.45 70.8367M649.796 67.1837L659.45 70.8367M649.796 67.1837L650.868 78.7874L659.45 70.8367M609.889 105.003L598.733 109.516L607.315 113.598M609.889 105.003L607.315 113.598M609.889 105.003L618.686 107.582M609.889 105.003L618.686 97.2673M607.315 113.598L618.686 107.582M618.686 107.582V97.2673M618.686 107.582L622.333 94.2589M618.686 97.2673L622.333 94.2589M622.333 94.2589L624.264 87.8124L634.777 90.1762L622.333 94.2589ZM533.081 165.815L541.019 177.203M533.081 165.815L550.674 173.55M533.081 165.815L538.659 155.93L550.674 173.55M541.019 177.203L550.674 173.55M541.019 177.203L551.961 188.162M550.674 173.55L551.961 188.162M551.961 188.162L560.758 192.245M551.961 188.162H561.831M560.758 192.245H570.627L561.831 188.162M560.758 192.245L561.831 188.162M559.9 172.691L561.831 181.716M559.9 172.691L570.627 166.674M559.9 172.691L568.482 175.27M561.831 181.716L572.987 183.005M561.831 181.716L568.482 175.27M572.987 183.005L578.351 174.41M572.987 183.005L568.482 175.27M578.351 174.41L570.627 166.674M578.351 174.41V165.815L570.627 166.674M578.351 174.41L568.482 175.27M570.627 166.674L568.482 175.27M578.351 183.435L580.496 177.203L588.649 178.493M578.351 183.435L588.649 178.493M578.351 183.435L588.22 186.658L588.649 178.493M581.354 173.765L587.576 175.27M581.354 173.765L581.998 175.914L587.576 175.27M581.354 173.765L591.224 172.906L587.576 175.27M589.293 162.162L583.715 161.302L589.936 158.724M589.293 162.162L589.936 158.724M589.293 162.162L595.729 163.451M589.936 158.724L592.94 157.434L595.729 163.451M589.936 158.724L595.729 163.451M581.998 149.269L580.496 154.426L585.86 150.558M581.998 149.269L585.86 150.558M581.998 149.269L589.936 147.765M581.998 149.269L583.929 145.401M581.998 149.269L580.496 142.822M585.86 150.558L589.936 147.765M589.936 147.765L583.929 145.401M583.929 145.401L580.496 142.822M583.929 145.401L585.86 139.169L580.496 142.822M606.886 179.782L601.951 178.493L605.169 175.914L606.886 179.782ZM606.886 179.782L605.169 183.865L610.748 183.005M606.886 179.782L610.748 183.005M606.886 179.782L611.177 178.493M610.748 183.005L611.177 178.493M610.748 183.005L617.613 178.493M610.748 183.005L616.97 187.518M611.177 178.493H617.613M617.613 178.493L616.97 187.518M617.613 178.493L625.337 181.716M616.97 187.518L625.337 181.716M616.97 187.518L616.54 192.245M616.97 187.518L625.337 190.096M625.337 181.716V190.096M625.337 181.716L632.632 186.658M616.54 192.245L625.337 190.096M616.54 192.245L624.908 195.468M625.337 190.096L624.908 195.468M625.337 190.096L632.632 186.658M625.337 190.096L629.628 191.171M624.908 195.468L629.628 191.171M632.632 186.658L629.628 191.171M632.632 186.658L635.421 190.526M629.628 191.171L635.421 190.526M629.628 191.171L635.421 195.898M635.421 190.526V195.898M635.421 190.526L640.355 196.973L635.421 195.898M570.627 242.957L578.351 236.726M570.627 242.957L585.216 244.032M570.627 242.957L569.554 227.701M578.351 236.726L585.216 244.032M578.351 236.726L569.554 227.701M578.351 236.726L581.998 222.759M578.351 236.726L589.293 232.428M585.216 244.032L589.293 232.428M585.216 244.032L600.878 238.23M569.554 227.701L571.914 217.601M569.554 227.701L581.998 222.759M571.914 217.601L581.998 222.759M571.914 217.601L585.216 210.51M581.998 222.759L589.293 232.428M581.998 222.759L585.216 210.51M581.998 222.759L596.537 223.397M589.293 232.428L596.537 223.397M589.293 232.428L600.878 238.23M585.216 210.51L596.537 223.397M585.216 210.51L609.851 217.601M585.216 210.51L601.951 199.766M596.537 223.397L600.878 238.23M596.537 223.397L609.851 217.601M600.878 238.23L609.851 217.601M600.878 238.23L617.613 229.235M600.878 238.23L611.177 245.751M609.851 217.601L617.613 229.235M609.851 217.601L601.951 199.766M609.851 217.601L613.751 200.411M609.851 217.601L621.904 210.51M609.851 217.601L626.41 221.684M617.613 229.235L611.177 245.751M617.613 229.235L626.41 221.684M617.613 229.235L630.486 236.726M611.177 245.751L630.486 236.726M611.177 245.751L626.41 251.983M601.951 199.766L613.751 200.411M613.751 200.411L621.904 210.51M621.904 210.51L626.41 221.684M621.904 210.51L632.632 208.576M621.904 210.51L625.337 197.832L632.632 208.576M626.41 221.684L632.632 208.576M626.41 221.684H641.428M626.41 221.684L630.486 236.726M632.632 208.576L641.428 221.684M641.428 221.684L645.29 232.428M641.428 221.684L630.486 236.726M630.486 236.726L626.41 251.983M630.486 236.726L641.428 248.115M630.486 236.726L645.29 232.428M626.41 251.983L641.428 248.115M641.428 248.115L645.29 232.428M679.618 268.099L672.967 267.024L678.116 261.652M679.618 268.099L678.116 261.652M679.618 268.099L687.985 257.999L678.116 261.652M686.483 253.057L690.56 257.355L695.495 251.553M686.483 253.057L695.495 251.553M686.483 253.057L687.556 244.677L695.495 251.553M189.374 133.367L179.934 131.863L189.374 129.929M189.374 133.367V129.929M189.374 133.367L197.527 136.376L189.374 129.929M542.725 90.1762L533.571 109.516M554.93 61.6031L560.755 47.1473M533.571 109.516L543.835 119.185M560.755 47.1473L575.456 46.7699M482.018 96.4077L496.125 104.573M467.555 121.334L475.102 131.648M496.125 104.573L507.775 100.276M377.64 161.455L381 171M380.108 182L381 171M578.351 194.824L581.998 193.105L583.071 196.973L578.351 194.824ZM588.22 196.328L590.365 190.526L595.729 193.964L588.22 196.328ZM598.518 171.402L595.729 176.774L598.089 177.848L598.518 171.402ZM585.86 153.352L584.144 156.79H589.936L585.86 153.352ZM591.653 150.558L589.936 153.996H593.584L591.653 150.558ZM629.413 257.355L631.773 262.082L637.566 256.71L629.413 257.355ZM667.603 216.312L676.4 217.601L671.68 221.684L667.603 216.312ZM698.713 206.857L692.92 209.651L698.069 212.874L698.713 206.857ZM200.101 140.029L211.258 141.103L209.327 135.731L200.101 140.029ZM215.978 138.954L213.832 141.103L217.051 141.533L215.978 138.954ZM193.236 140.459L191.948 143.467L196.025 142.822L193.236 140.459ZM191.948 126.706L191.09 128.64H196.025L191.948 126.706ZM1 73.6302L5.93462 71.0516L10.2256 76.4237L1 73.6302Z" stroke="#555555" stroke-width="0.75"/>
</svg>
