<svg width="20" height="17" viewBox="0 0 20 17" fill="none" xmlns="http://www.w3.org/2000/svg">
<path d="M1.12422 6.73756L1.093 6.74439H14.4761L10.2689 2.52797C10.0629 2.32211 9.94991 2.04325 9.94991 1.75057C9.94991 1.45789 10.0629 1.18098 10.2689 0.974634L10.9236 0.319675C11.1294 0.113821 11.4037 0 11.6963 0C11.9889 0 12.2634 0.113008 12.4693 0.318862L19.6811 7.53008C19.8878 7.73675 20.0008 8.01203 20 8.30488C20.0008 8.59935 19.8878 8.87479 19.6811 9.08114L12.4693 16.293C12.2634 16.4987 11.9891 16.6119 11.6963 16.6119C11.4037 16.6119 11.1294 16.4985 10.9236 16.293L10.2689 15.638C10.0629 15.4325 9.94991 15.158 9.94991 14.8654C9.94991 14.5728 10.0629 14.3128 10.2689 14.1072L14.5236 9.86715H1.10926C0.5065 9.86715 -3.8147e-06 9.34764 -3.8147e-06 8.7452V7.81886C-3.8147e-06 7.21642 0.52146 6.73756 1.12422 6.73756Z" fill="#555555"/>
</svg>
