<svg width="43" height="41" viewBox="0 0 43 41" fill="none" xmlns="http://www.w3.org/2000/svg">
<path d="M15.7264 21.8133L8.82161 28.5198L21.5009 40.8349L28.4057 34.1284L15.7264 21.8133Z" fill="#FF8E49"/>
<path d="M13.1595 8.15234L20.0613 14.8559L7.38201 27.171C5.55155 25.3931 4.52321 22.9818 4.52321 20.4674C4.52321 17.9531 5.55155 15.5418 7.38201 13.7639L13.1595 8.15234Z" fill="#00A98C"/>
<path d="M34.1316 12.4138L27.2298 19.1173L14.5505 6.80223C16.381 5.02435 18.8636 4.02554 21.4523 4.02554C24.041 4.02554 26.5236 5.02435 28.3541 6.80223L34.1316 12.4138Z" fill="#B0D735"/>
<path d="M29.7827 32.8103L22.8809 26.1068L35.5602 13.7917C37.3907 15.5696 38.419 17.9809 38.419 20.4952C38.419 23.0095 37.3907 25.4208 35.5602 27.1987L29.7827 32.8103Z" fill="#FFCD10"/>
<path d="M21.5033 16.1773L17.1338 20.4214L21.5033 24.6655L25.8729 20.4214L21.5033 16.1773Z" fill="#00AAFF"/>
</svg>
