<svg width="22" height="22" viewBox="0 0 22 22" fill="none" xmlns="http://www.w3.org/2000/svg">
<g clip-path="url(#clip0)">
<path d="M15.5827 21.9911C15.682 21.9956 15.7767 22.0001 15.8759 22.0001C16.9359 22.0001 17.8199 21.6168 18.5145 20.8635C18.519 20.859 18.528 20.85 18.5325 20.8455C18.7806 20.5478 19.0602 20.2772 19.3579 19.993C19.5609 19.7991 19.7684 19.6006 19.9623 19.3932C20.8869 18.4279 20.8824 17.2056 19.9533 16.2765L17.3824 13.7056C16.9404 13.2455 16.4127 13.002 15.8534 13.002C15.2986 13.002 14.7664 13.241 14.3108 13.6966L12.7908 15.2166C12.6555 15.1399 12.5157 15.0722 12.3804 15.0046C12.209 14.9189 12.0511 14.8377 11.9113 14.752C10.5176 13.868 9.25471 12.7133 8.04593 11.2294C7.43704 10.4626 7.03561 9.82218 6.75146 9.16366C7.14837 8.80283 7.51822 8.42847 7.87454 8.06314C8.00534 7.93233 8.13614 7.79702 8.27145 7.66171C9.23667 6.6965 9.23667 5.50125 8.27145 4.54054L6.99502 3.26411C6.84618 3.11527 6.70185 2.96643 6.55752 2.8221C6.27336 2.53343 5.98019 2.23124 5.68702 1.96062C5.245 1.5186 4.7218 1.28857 4.16702 1.28857C3.61676 1.28857 3.08454 1.5186 2.62448 1.96062L1.0233 3.55729C0.436957 4.14363 0.10319 4.85627 0.0310245 5.68166C-0.0501619 6.71003 0.139273 7.80153 0.626392 9.11856C1.37962 11.1527 2.51172 13.0426 4.18958 15.0632C6.23277 17.4988 8.68641 19.4247 11.4918 20.7823C12.5608 21.292 13.9906 21.8874 15.5827 21.9911ZM5.04203 14.3551C3.44537 12.4337 2.37641 10.6476 1.66829 8.73518C1.23078 7.55797 1.06841 6.64237 1.13606 5.77187C1.18568 5.20808 1.40217 4.739 1.80811 4.33758L3.40026 2.74542C3.64382 2.51088 3.90993 2.3891 4.17154 2.3891C4.42863 2.3891 4.68121 2.51088 4.92477 2.74993C5.20892 3.01604 5.48405 3.29568 5.77271 3.58886C5.91704 3.7377 6.06589 3.89105 6.21924 4.03989L7.49567 5.31633C8.01887 5.83953 8.01887 6.35371 7.49567 6.87691C7.36036 7.01222 7.22505 7.14753 7.09425 7.28284C6.69734 7.68426 6.32749 8.06313 5.91704 8.42847C5.90802 8.43749 5.90351 8.44201 5.89449 8.45103C5.52915 8.81636 5.58328 9.16817 5.67349 9.42977C5.678 9.44331 5.68251 9.45233 5.68702 9.46586C6.01627 10.2597 6.48084 11.0129 7.19348 11.915C8.47893 13.4981 9.83204 14.7294 11.3295 15.6811C11.5144 15.7984 11.7083 15.8976 11.8978 15.9923C12.0692 16.078 12.227 16.1592 12.3669 16.2449C12.3849 16.2539 12.3984 16.263 12.4165 16.272C12.5608 16.3442 12.7006 16.3802 12.845 16.3802C13.2013 16.3802 13.4268 16.1547 13.499 16.078L15.1001 14.4769C15.3437 14.2333 15.6053 14.107 15.8624 14.107C16.1781 14.107 16.4352 14.3055 16.6021 14.4769L19.182 17.0568C19.8135 17.6882 19.5248 18.2565 19.1685 18.6309C18.9881 18.8249 18.7986 19.0053 18.6002 19.1992C18.298 19.4879 17.9868 19.7901 17.7026 20.1283C17.2155 20.6515 16.6382 20.8951 15.8849 20.8951C15.8128 20.8951 15.7361 20.8906 15.6639 20.8861C14.2612 20.7959 12.9622 20.2501 11.9835 19.7856C9.31335 18.5001 6.98149 16.6734 5.04203 14.3551Z" fill="#555555"/>
<path d="M12.0917 4.02651C11.7895 3.9769 11.5054 4.17986 11.4557 4.47754C11.4061 4.77974 11.6091 5.06389 11.9068 5.11351C13.1471 5.32549 14.2747 5.91184 15.1768 6.8094C16.0743 7.70696 16.6607 8.83906 16.8727 10.0794C16.9178 10.35 17.1523 10.5395 17.4184 10.5395C17.45 10.5395 17.4816 10.535 17.5132 10.5304C17.8153 10.4808 18.0183 10.1922 17.9642 9.89448C17.7161 8.42862 17.0215 7.08904 15.9616 6.02911C14.8926 4.96466 13.5576 4.27458 12.0917 4.02651Z" fill="#555555"/>
<path d="M21.4326 10.3497C21.4642 10.3497 21.4957 10.3452 21.5273 10.3407C21.8295 10.2911 22.0325 10.0024 21.9784 9.70474C21.5679 7.27817 20.4223 5.0726 18.6678 3.31807C16.9087 1.56354 14.7031 0.417909 12.2766 0.00746609C11.9744 -0.0421479 11.6902 0.160818 11.6406 0.458502C11.591 0.760696 11.794 1.04485 12.0917 1.09446C14.2882 1.46882 16.2908 2.50621 17.883 4.09836C19.4751 5.69052 20.5125 7.69312 20.8869 9.88966C20.932 10.1603 21.1665 10.3497 21.4326 10.3497Z" fill="#555555"/>
</g>
<defs>
<clipPath id="clip0">
<rect width="22" height="22" fill="white"/>
</clipPath>
</defs>
</svg>
